<?xml version="1.0" encoding="UTF-8" standalone="no"?>
<!DOCTYPE svg PUBLIC "-//W3C//DTD SVG 1.1//EN"
 "http://www.w3.org/Graphics/SVG/1.1/DTD/svg11.dtd">
<!-- Generated by graphviz version 2.43.0 (0)
 -->
<!-- Title: G Pages: 1 -->
<svg width="1592pt" height="1196pt"
 viewBox="0.00 0.00 1592.18 1196.00" xmlns="http://www.w3.org/2000/svg" xmlns:xlink="http://www.w3.org/1999/xlink">
<g id="graph0" class="graph" transform="scale(1 1) rotate(0) translate(4 1192)">
<title>G</title>
<polygon fill="white" stroke="transparent" points="-4,4 -4,-1192 1588.18,-1192 1588.18,4 -4,4"/>
<!-- Data File -->
<g id="node1" class="node">
<title>Data File</title>
<ellipse fill="none" stroke="blue" cx="53.3" cy="-1170" rx="53.09" ry="18"/>
<text text-anchor="middle" x="53.3" y="-1166.3" font-family="Times,serif" font-size="14.00">Data File</text>
</g>
<!-- NOMAD AutoRed -->
<g id="node2" class="node">
<title>NOMAD AutoRed</title>
<ellipse fill="none" stroke="red" cx="120.3" cy="-1098" rx="90.98" ry="18"/>
<text text-anchor="middle" x="120.3" y="-1094.3" font-family="Times,serif" font-size="14.00">NOMAD AutoRed</text>
</g>
<!-- Data File&#45;&gt;NOMAD AutoRed -->
<g id="edge1" class="edge">
<title>Data File&#45;&gt;NOMAD AutoRed</title>
<path fill="none" stroke="black" d="M68.83,-1152.76C77.13,-1144.1 87.52,-1133.25 96.78,-1123.57"/>
<polygon fill="black" stroke="black" points="99.52,-1125.77 103.91,-1116.12 94.46,-1120.93 99.52,-1125.77"/>
</g>
<!-- Figure out IPTS &amp; sample ID -->
<g id="node4" class="node">
<title>Figure out IPTS &amp; sample ID</title>
<ellipse fill="none" stroke="red" cx="201.3" cy="-1026" rx="145.67" ry="18"/>
<text text-anchor="middle" x="201.3" y="-1022.3" font-family="Times,serif" font-size="14.00">Figure out IPTS &amp; sample ID</text>
</g>
<!-- NOMAD AutoRed&#45;&gt;Figure out IPTS &amp; sample ID -->
<g id="edge3" class="edge">
<title>NOMAD AutoRed&#45;&gt;Figure out IPTS &amp; sample ID</title>
<path fill="none" stroke="black" d="M139.9,-1080.05C150.08,-1071.26 162.67,-1060.38 173.8,-1050.76"/>
<polygon fill="black" stroke="black" points="176.31,-1053.22 181.59,-1044.03 171.73,-1047.92 176.31,-1053.22"/>
</g>
<!-- Output Dir. -->
<g id="node3" class="node">
<title>Output Dir.</title>
<ellipse fill="none" stroke="green" cx="187.3" cy="-1170" rx="63.09" ry="18"/>
<text text-anchor="middle" x="187.3" y="-1166.3" font-family="Times,serif" font-size="14.00">Output Dir.</text>
</g>
<!-- Output Dir.&#45;&gt;NOMAD AutoRed -->
<g id="edge2" class="edge">
<title>Output Dir.&#45;&gt;NOMAD AutoRed</title>
<path fill="none" stroke="black" d="M171.42,-1152.41C163.11,-1143.73 152.79,-1132.95 143.59,-1123.34"/>
<polygon fill="black" stroke="black" points="145.97,-1120.76 136.52,-1115.96 140.91,-1125.6 145.97,-1120.76"/>
</g>
<!-- IPTS -->
<g id="node6" class="node">
<title>IPTS</title>
<ellipse fill="none" stroke="green" cx="101.3" cy="-954" rx="32.49" ry="18"/>
<text text-anchor="middle" x="101.3" y="-950.3" font-family="Times,serif" font-size="14.00">IPTS</text>
</g>
<!-- Figure out IPTS &amp; sample ID&#45;&gt;IPTS -->
<g id="edge5" class="edge">
<title>Figure out IPTS &amp; sample ID&#45;&gt;IPTS</title>
<path fill="none" stroke="black" d="M177.34,-1008.23C162.85,-998.09 144.31,-985.11 129.17,-974.51"/>
<polygon fill="black" stroke="black" points="130.9,-971.45 120.7,-968.58 126.88,-977.18 130.9,-971.45"/>
</g>
<!-- Sample ID -->
<g id="node7" class="node">
<title>Sample ID</title>
<ellipse fill="none" stroke="blue" cx="211.3" cy="-954" rx="59.29" ry="18"/>
<text text-anchor="middle" x="211.3" y="-950.3" font-family="Times,serif" font-size="14.00">Sample ID</text>
</g>
<!-- Figure out IPTS &amp; sample ID&#45;&gt;Sample ID -->
<g id="edge6" class="edge">
<title>Figure out IPTS &amp; sample ID&#45;&gt;Sample ID</title>
<path fill="none" stroke="black" d="M203.77,-1007.7C204.87,-999.98 206.19,-990.71 207.42,-982.11"/>
<polygon fill="black" stroke="black" points="210.9,-982.5 208.85,-972.1 203.97,-981.51 210.9,-982.5"/>
</g>
<!-- Grab characterization runs -->
<g id="node8" class="node">
<title>Grab characterization runs</title>
<ellipse fill="none" stroke="red" cx="444.3" cy="-954" rx="135.68" ry="18"/>
<text text-anchor="middle" x="444.3" y="-950.3" font-family="Times,serif" font-size="14.00">Grab characterization runs</text>
</g>
<!-- Figure out IPTS &amp; sample ID&#45;&gt;Grab characterization runs -->
<g id="edge7" class="edge">
<title>Figure out IPTS &amp; sample ID&#45;&gt;Grab characterization runs</title>
<path fill="none" stroke="black" d="M255.83,-1009.29C292.85,-998.63 341.94,-984.49 380.73,-973.31"/>
<polygon fill="black" stroke="black" points="381.72,-976.67 390.36,-970.54 379.78,-969.94 381.72,-976.67"/>
</g>
<!-- df_1 -->
<g id="node5" class="node">
<title>df_1</title>
<ellipse fill="none" stroke="blue" cx="282.3" cy="-1098" rx="53.09" ry="18"/>
<text text-anchor="middle" x="282.3" y="-1094.3" font-family="Times,serif" font-size="14.00">Data File</text>
</g>
<!-- df_1&#45;&gt;Figure out IPTS &amp; sample ID -->
<g id="edge4" class="edge">
<title>df_1&#45;&gt;Figure out IPTS &amp; sample ID</title>
<path fill="none" stroke="black" d="M263.51,-1080.76C253.1,-1071.77 239.99,-1060.44 228.48,-1050.49"/>
<polygon fill="black" stroke="black" points="230.68,-1047.77 220.83,-1043.88 226.1,-1053.06 230.68,-1047.77"/>
</g>
<!-- Empty container runs -->
<g id="node10" class="node">
<title>Empty container runs</title>
<ellipse fill="none" stroke="green" cx="1224.3" cy="-882" rx="112.38" ry="18"/>
<text text-anchor="middle" x="1224.3" y="-878.3" font-family="Times,serif" font-size="14.00">Empty container runs</text>
</g>
<!-- Grab characterization runs&#45;&gt;Empty container runs -->
<g id="edge9" class="edge">
<title>Grab characterization runs&#45;&gt;Empty container runs</title>
<path fill="none" stroke="black" d="M563.96,-945.46C695.98,-936.65 914.61,-920.62 1102.3,-900 1112.79,-898.85 1123.78,-897.51 1134.68,-896.09"/>
<polygon fill="black" stroke="black" points="1135.19,-899.56 1144.64,-894.78 1134.27,-892.62 1135.19,-899.56"/>
</g>
<!-- Empty instrument runs -->
<g id="node11" class="node">
<title>Empty instrument runs</title>
<ellipse fill="none" stroke="green" cx="136.3" cy="-882" rx="120.48" ry="18"/>
<text text-anchor="middle" x="136.3" y="-878.3" font-family="Times,serif" font-size="14.00">Empty instrument runs</text>
</g>
<!-- Grab characterization runs&#45;&gt;Empty instrument runs -->
<g id="edge10" class="edge">
<title>Grab characterization runs&#45;&gt;Empty instrument runs</title>
<path fill="none" stroke="black" d="M378.98,-938.15C329.31,-926.87 260.98,-911.34 209.48,-899.63"/>
<polygon fill="black" stroke="black" points="209.94,-896.15 199.41,-897.35 208.39,-902.97 209.94,-896.15"/>
</g>
<!-- Vanadium runs -->
<g id="node12" class="node">
<title>Vanadium runs</title>
<ellipse fill="none" stroke="green" cx="355.3" cy="-882" rx="80.69" ry="18"/>
<text text-anchor="middle" x="355.3" y="-878.3" font-family="Times,serif" font-size="14.00">Vanadium runs</text>
</g>
<!-- Grab characterization runs&#45;&gt;Vanadium runs -->
<g id="edge11" class="edge">
<title>Grab characterization runs&#45;&gt;Vanadium runs</title>
<path fill="none" stroke="black" d="M422.75,-936.05C411.19,-926.96 396.78,-915.63 384.25,-905.77"/>
<polygon fill="black" stroke="black" points="386.36,-902.98 376.33,-899.55 382.03,-908.48 386.36,-902.98"/>
</g>
<!-- Calibration file -->
<g id="node13" class="node">
<title>Calibration file</title>
<ellipse fill="none" stroke="green" cx="534.3" cy="-882" rx="79.89" ry="18"/>
<text text-anchor="middle" x="534.3" y="-878.3" font-family="Times,serif" font-size="14.00">Calibration file</text>
</g>
<!-- Grab characterization runs&#45;&gt;Calibration file -->
<g id="edge12" class="edge">
<title>Grab characterization runs&#45;&gt;Calibration file</title>
<path fill="none" stroke="black" d="M466.08,-936.05C477.77,-926.96 492.35,-915.63 505.02,-905.77"/>
<polygon fill="black" stroke="black" points="507.28,-908.45 513.02,-899.55 502.98,-902.92 507.28,-908.45"/>
</g>
<!-- cf_1 -->
<g id="node9" class="node">
<title>cf_1</title>
<ellipse fill="none" stroke="green" cx="454.3" cy="-1026" rx="89.88" ry="18"/>
<text text-anchor="middle" x="454.3" y="-1022.3" font-family="Times,serif" font-size="14.00">Cental config file</text>
</g>
<!-- cf_1&#45;&gt;Grab characterization runs -->
<g id="edge8" class="edge">
<title>cf_1&#45;&gt;Grab characterization runs</title>
<path fill="none" stroke="black" d="M451.82,-1007.7C450.72,-999.98 449.4,-990.71 448.17,-982.11"/>
<polygon fill="black" stroke="black" points="451.62,-981.51 446.74,-972.1 444.69,-982.5 451.62,-981.51"/>
</g>
<!-- Prepare input JSON file -->
<g id="node15" class="node">
<title>Prepare input JSON file</title>
<ellipse fill="none" stroke="red" cx="800.3" cy="-810" rx="120.48" ry="18"/>
<text text-anchor="middle" x="800.3" y="-806.3" font-family="Times,serif" font-size="14.00">Prepare input JSON file</text>
</g>
<!-- Empty container runs&#45;&gt;Prepare input JSON file -->
<g id="edge16" class="edge">
<title>Empty container runs&#45;&gt;Prepare input JSON file</title>
<path fill="none" stroke="black" d="M1148.98,-868.57C1075.88,-856.5 964.97,-838.19 887.94,-825.47"/>
<polygon fill="black" stroke="black" points="888.21,-821.97 877.77,-823.79 887.07,-828.87 888.21,-821.97"/>
</g>
<!-- input_json_prep_2 -->
<g id="node26" class="node">
<title>input_json_prep_2</title>
<ellipse fill="none" stroke="red" cx="1001.3" cy="-306" rx="120.48" ry="18"/>
<text text-anchor="middle" x="1001.3" y="-302.3" font-family="Times,serif" font-size="14.00">Prepare input JSON file</text>
</g>
<!-- Empty container runs&#45;&gt;input_json_prep_2 -->
<g id="edge29" class="edge">
<title>Empty container runs&#45;&gt;input_json_prep_2</title>
<path fill="none" stroke="black" d="M1145.75,-868.97C1119.24,-861.27 1091.52,-848.67 1072.3,-828 1044.39,-798.01 1048.3,-779.97 1048.3,-739 1048.3,-739 1048.3,-739 1048.3,-449 1048.3,-406.96 1029.49,-361.29 1015.68,-333.41"/>
<polygon fill="black" stroke="black" points="1018.7,-331.63 1011.03,-324.32 1012.47,-334.82 1018.7,-331.63"/>
</g>
<!-- Empty instrument runs&#45;&gt;Prepare input JSON file -->
<g id="edge17" class="edge">
<title>Empty instrument runs&#45;&gt;Prepare input JSON file</title>
<path fill="none" stroke="black" d="M221.94,-869.32C236.4,-867.46 251.27,-865.62 265.3,-864 411.71,-847.1 581.05,-830.89 689.33,-820.94"/>
<polygon fill="black" stroke="black" points="689.98,-824.4 699.62,-820 689.34,-817.42 689.98,-824.4"/>
</g>
<!-- Empty instrument runs&#45;&gt;input_json_prep_2 -->
<g id="edge30" class="edge">
<title>Empty instrument runs&#45;&gt;input_json_prep_2</title>
<path fill="none" stroke="black" d="M178.6,-865.14C226.3,-844.19 297.3,-802.36 297.3,-739 297.3,-739 297.3,-739 297.3,-449 297.3,-333.28 667.4,-310.72 870.91,-307.06"/>
<polygon fill="black" stroke="black" points="871.13,-310.55 881.07,-306.89 871.02,-303.56 871.13,-310.55"/>
</g>
<!-- Vanadium runs&#45;&gt;Prepare input JSON file -->
<g id="edge19" class="edge">
<title>Vanadium runs&#45;&gt;Prepare input JSON file</title>
<path fill="none" stroke="black" d="M413.82,-869.61C424.29,-867.67 435.1,-865.72 445.3,-864 533.17,-849.15 633.66,-834.35 705.25,-824.18"/>
<polygon fill="black" stroke="black" points="705.74,-827.64 715.15,-822.77 704.76,-820.71 705.74,-827.64"/>
</g>
<!-- Vanadium runs&#45;&gt;input_json_prep_2 -->
<g id="edge31" class="edge">
<title>Vanadium runs&#45;&gt;input_json_prep_2</title>
<path fill="none" stroke="black" d="M370.14,-863.97C390.69,-838.58 425.3,-788.47 425.3,-739 425.3,-739 425.3,-739 425.3,-449 425.3,-356.58 708.35,-323.96 877.61,-312.71"/>
<polygon fill="black" stroke="black" points="878.09,-316.18 887.84,-312.04 877.63,-309.2 878.09,-316.18"/>
</g>
<!-- Calibration file&#45;&gt;Prepare input JSON file -->
<g id="edge20" class="edge">
<title>Calibration file&#45;&gt;Prepare input JSON file</title>
<path fill="none" stroke="black" d="M584.33,-867.83C626.53,-856.73 687.29,-840.74 733.62,-828.55"/>
<polygon fill="black" stroke="black" points="734.79,-831.86 743.57,-825.93 733.01,-825.09 734.79,-831.86"/>
</g>
<!-- Calibration file&#45;&gt;input_json_prep_2 -->
<g id="edge32" class="edge">
<title>Calibration file&#45;&gt;input_json_prep_2</title>
<path fill="none" stroke="black" d="M534.3,-863.95C534.3,-837.29 534.3,-784.11 534.3,-739 534.3,-739 534.3,-739 534.3,-449 534.3,-374.23 756.18,-335.07 894.06,-317.95"/>
<polygon fill="black" stroke="black" points="894.75,-321.4 904.25,-316.71 893.9,-314.45 894.75,-321.4"/>
</g>
<!-- df_2 -->
<g id="node14" class="node">
<title>df_2</title>
<ellipse fill="none" stroke="blue" cx="1040.3" cy="-882" rx="53.09" ry="18"/>
<text text-anchor="middle" x="1040.3" y="-878.3" font-family="Times,serif" font-size="14.00">Data File</text>
</g>
<!-- df_2&#45;&gt;Prepare input JSON file -->
<g id="edge13" class="edge">
<title>df_2&#45;&gt;Prepare input JSON file</title>
<path fill="none" stroke="black" d="M1001.2,-869.6C963.66,-858.65 906.35,-841.93 862.53,-829.15"/>
<polygon fill="black" stroke="black" points="863.41,-825.76 852.83,-826.32 861.45,-832.48 863.41,-825.76"/>
</g>
<!-- Input JSON for TSR -->
<g id="node19" class="node">
<title>Input JSON for TSR</title>
<ellipse fill="none" stroke="green" cx="800.3" cy="-738" rx="101.28" ry="18"/>
<text text-anchor="middle" x="800.3" y="-734.3" font-family="Times,serif" font-size="14.00">Input JSON for TSR</text>
</g>
<!-- Prepare input JSON file&#45;&gt;Input JSON for TSR -->
<g id="edge21" class="edge">
<title>Prepare input JSON file&#45;&gt;Input JSON for TSR</title>
<path fill="none" stroke="black" d="M800.3,-791.7C800.3,-783.98 800.3,-774.71 800.3,-766.11"/>
<polygon fill="black" stroke="black" points="803.8,-766.1 800.3,-756.1 796.8,-766.1 803.8,-766.1"/>
</g>
<!-- sc_2 -->
<g id="node16" class="node">
<title>sc_2</title>
<ellipse fill="none" stroke="green" cx="1453.3" cy="-882" rx="98.58" ry="18"/>
<text text-anchor="middle" x="1453.3" y="-878.3" font-family="Times,serif" font-size="14.00">Samle composition</text>
</g>
<!-- sc_2&#45;&gt;Prepare input JSON file -->
<g id="edge14" class="edge">
<title>sc_2&#45;&gt;Prepare input JSON file</title>
<path fill="none" stroke="black" d="M1383.09,-869.33C1370.52,-867.42 1357.53,-865.56 1345.3,-864 1196.58,-845.08 1024.27,-829.36 913.87,-820.07"/>
<polygon fill="black" stroke="black" points="913.97,-816.57 903.71,-819.22 913.39,-823.55 913.97,-816.57"/>
</g>
<!-- sc_2&#45;&gt;input_json_prep_2 -->
<g id="edge35" class="edge">
<title>sc_2&#45;&gt;input_json_prep_2</title>
<path fill="none" stroke="black" d="M1384.7,-868.96C1278.47,-848.33 1086.3,-802.28 1086.3,-739 1086.3,-739 1086.3,-739 1086.3,-449 1086.3,-402.19 1051.87,-357.45 1026.84,-331.1"/>
<polygon fill="black" stroke="black" points="1029.24,-328.55 1019.74,-323.85 1024.23,-333.45 1029.24,-328.55"/>
</g>
<!-- sid_2 -->
<g id="node17" class="node">
<title>sid_2</title>
<ellipse fill="none" stroke="blue" cx="1453.3" cy="-954" rx="53.09" ry="18"/>
<text text-anchor="middle" x="1453.3" y="-950.3" font-family="Times,serif" font-size="14.00">Samle ID</text>
</g>
<!-- sid_2&#45;&gt;sc_2 -->
<g id="edge15" class="edge">
<title>sid_2&#45;&gt;sc_2</title>
<path fill="none" stroke="black" d="M1453.3,-935.7C1453.3,-927.98 1453.3,-918.71 1453.3,-910.11"/>
<polygon fill="black" stroke="black" points="1456.8,-910.1 1453.3,-900.1 1449.8,-910.1 1456.8,-910.1"/>
</g>
<!-- Input JSON template for PDF Gen -->
<g id="node18" class="node">
<title>Input JSON template for PDF Gen</title>
<ellipse fill="none" stroke="green" cx="800.3" cy="-882" rx="168.17" ry="18"/>
<text text-anchor="middle" x="800.3" y="-878.3" font-family="Times,serif" font-size="14.00">Input JSON template for PDF Gen</text>
</g>
<!-- Input JSON template for PDF Gen&#45;&gt;Prepare input JSON file -->
<g id="edge18" class="edge">
<title>Input JSON template for PDF Gen&#45;&gt;Prepare input JSON file</title>
<path fill="none" stroke="black" d="M800.3,-863.7C800.3,-855.98 800.3,-846.71 800.3,-838.11"/>
<polygon fill="black" stroke="black" points="803.8,-838.1 800.3,-828.1 796.8,-838.1 803.8,-838.1"/>
</g>
<!-- TotalScatteringReduction (TSR) -->
<g id="node20" class="node">
<title>TotalScatteringReduction (TSR)</title>
<ellipse fill="none" stroke="red" cx="800.3" cy="-666" rx="158.67" ry="18"/>
<text text-anchor="middle" x="800.3" y="-662.3" font-family="Times,serif" font-size="14.00">TotalScatteringReduction (TSR)</text>
</g>
<!-- Input JSON for TSR&#45;&gt;TotalScatteringReduction (TSR) -->
<g id="edge22" class="edge">
<title>Input JSON for TSR&#45;&gt;TotalScatteringReduction (TSR)</title>
<path fill="none" stroke="black" d="M800.3,-719.7C800.3,-711.98 800.3,-702.71 800.3,-694.11"/>
<polygon fill="black" stroke="black" points="803.8,-694.1 800.3,-684.1 796.8,-694.1 803.8,-694.1"/>
</g>
<!-- S(Q) wksp -->
<g id="node21" class="node">
<title>S(Q) wksp</title>
<ellipse fill="none" stroke="blue" cx="800.3" cy="-594" rx="57.69" ry="18"/>
<text text-anchor="middle" x="800.3" y="-590.3" font-family="Times,serif" font-size="14.00">S(Q) wksp</text>
</g>
<!-- TotalScatteringReduction (TSR)&#45;&gt;S(Q) wksp -->
<g id="edge23" class="edge">
<title>TotalScatteringReduction (TSR)&#45;&gt;S(Q) wksp</title>
<path fill="none" stroke="black" d="M800.3,-647.7C800.3,-639.98 800.3,-630.71 800.3,-622.11"/>
<polygon fill="black" stroke="black" points="803.8,-622.1 800.3,-612.1 796.8,-622.1 803.8,-622.1"/>
</g>
<!-- Save processed S(Q) -->
<g id="node22" class="node">
<title>Save processed S(Q)</title>
<ellipse fill="none" stroke="red" cx="913.3" cy="-522" rx="106.68" ry="18"/>
<text text-anchor="middle" x="913.3" y="-518.3" font-family="Times,serif" font-size="14.00">Save processed S(Q)</text>
</g>
<!-- S(Q) wksp&#45;&gt;Save processed S(Q) -->
<g id="edge24" class="edge">
<title>S(Q) wksp&#45;&gt;Save processed S(Q)</title>
<path fill="none" stroke="black" d="M825.09,-577.64C840.58,-568.04 860.78,-555.53 877.93,-544.91"/>
<polygon fill="black" stroke="black" points="879.93,-547.79 886.58,-539.55 876.24,-541.84 879.93,-547.79"/>
</g>
<!-- PDFFourierTransform -->
<g id="node23" class="node">
<title>PDFFourierTransform</title>
<ellipse fill="none" stroke="red" cx="675.3" cy="-522" rx="113.18" ry="18"/>
<text text-anchor="middle" x="675.3" y="-518.3" font-family="Times,serif" font-size="14.00">PDFFourierTransform</text>
</g>
<!-- S(Q) wksp&#45;&gt;PDFFourierTransform -->
<g id="edge25" class="edge">
<title>S(Q) wksp&#45;&gt;PDFFourierTransform</title>
<path fill="none" stroke="black" d="M773.48,-577.98C756.02,-568.2 732.96,-555.29 713.58,-544.44"/>
<polygon fill="black" stroke="black" points="715.12,-541.29 704.69,-539.46 711.7,-547.4 715.12,-541.29"/>
</g>
<!-- PDF wksp -->
<g id="node24" class="node">
<title>PDF wksp</title>
<ellipse fill="none" stroke="blue" cx="722.3" cy="-450" rx="57.69" ry="18"/>
<text text-anchor="middle" x="722.3" y="-446.3" font-family="Times,serif" font-size="14.00">PDF wksp</text>
</g>
<!-- PDFFourierTransform&#45;&gt;PDF wksp -->
<g id="edge26" class="edge">
<title>PDFFourierTransform&#45;&gt;PDF wksp</title>
<path fill="none" stroke="black" d="M686.67,-504.05C692.27,-495.71 699.14,-485.49 705.34,-476.25"/>
<polygon fill="black" stroke="black" points="708.35,-478.04 711.02,-467.79 702.54,-474.14 708.35,-478.04"/>
</g>
<!-- SavePDFGui -->
<g id="node25" class="node">
<title>SavePDFGui</title>
<ellipse fill="none" stroke="red" cx="815.3" cy="-378" rx="69.59" ry="18"/>
<text text-anchor="middle" x="815.3" y="-374.3" font-family="Times,serif" font-size="14.00">SavePDFGui</text>
</g>
<!-- PDF wksp&#45;&gt;SavePDFGui -->
<g id="edge27" class="edge">
<title>PDF wksp&#45;&gt;SavePDFGui</title>
<path fill="none" stroke="black" d="M743.4,-433.12C755.82,-423.76 771.74,-411.78 785.44,-401.47"/>
<polygon fill="black" stroke="black" points="787.75,-404.12 793.63,-395.31 783.54,-398.52 787.75,-404.12"/>
</g>
<!-- SavePDFGui&#45;&gt;input_json_prep_2 -->
<g id="edge28" class="edge">
<title>SavePDFGui&#45;&gt;input_json_prep_2</title>
<path fill="none" stroke="black" d="M852.94,-362.83C880.62,-352.42 918.59,-338.13 949.19,-326.61"/>
<polygon fill="black" stroke="black" points="950.71,-329.78 958.84,-322.98 948.25,-323.23 950.71,-329.78"/>
</g>
<!-- input_json_TSR -->
<g id="node29" class="node">
<title>input_json_TSR</title>
<ellipse fill="none" stroke="green" cx="1001.3" cy="-234" rx="101.28" ry="18"/>
<text text-anchor="middle" x="1001.3" y="-230.3" font-family="Times,serif" font-size="14.00">Input JSON for TSR</text>
</g>
<!-- input_json_prep_2&#45;&gt;input_json_TSR -->
<g id="edge36" class="edge">
<title>input_json_prep_2&#45;&gt;input_json_TSR</title>
<path fill="none" stroke="black" d="M1001.3,-287.7C1001.3,-279.98 1001.3,-270.71 1001.3,-262.11"/>
<polygon fill="black" stroke="black" points="1004.8,-262.1 1001.3,-252.1 997.8,-262.1 1004.8,-262.1"/>
</g>
<!-- df_3 -->
<g id="node27" class="node">
<title>df_3</title>
<ellipse fill="none" stroke="blue" cx="1167.3" cy="-378" rx="53.09" ry="18"/>
<text text-anchor="middle" x="1167.3" y="-374.3" font-family="Times,serif" font-size="14.00">Data File</text>
</g>
<!-- df_3&#45;&gt;input_json_prep_2 -->
<g id="edge33" class="edge">
<title>df_3&#45;&gt;input_json_prep_2</title>
<path fill="none" stroke="black" d="M1135.29,-363.5C1110.85,-353.2 1076.78,-338.83 1049.11,-327.16"/>
<polygon fill="black" stroke="black" points="1050.19,-323.82 1039.61,-323.16 1047.47,-330.27 1050.19,-323.82"/>
</g>
<!-- Input JSON template for BbyB Gen -->
<g id="node28" class="node">
<title>Input JSON template for BbyB Gen</title>
<ellipse fill="none" stroke="green" cx="1411.3" cy="-378" rx="172.77" ry="18"/>
<text text-anchor="middle" x="1411.3" y="-374.3" font-family="Times,serif" font-size="14.00">Input JSON template for BbyB Gen</text>
</g>
<!-- Input JSON template for BbyB Gen&#45;&gt;input_json_prep_2 -->
<g id="edge34" class="edge">
<title>Input JSON template for BbyB Gen&#45;&gt;input_json_prep_2</title>
<path fill="none" stroke="black" d="M1325.35,-362.33C1255.52,-350.4 1157.49,-333.67 1087.57,-321.73"/>
<polygon fill="black" stroke="black" points="1087.91,-318.24 1077.47,-320 1086.74,-325.14 1087.91,-318.24"/>
</g>
<!-- tsr_2 -->
<g id="node30" class="node">
<title>tsr_2</title>
<ellipse fill="none" stroke="red" cx="1001.3" cy="-162" rx="158.67" ry="18"/>
<text text-anchor="middle" x="1001.3" y="-158.3" font-family="Times,serif" font-size="14.00">TotalScatteringReduction (TSR)</text>
</g>
<!-- input_json_TSR&#45;&gt;tsr_2 -->
<g id="edge37" class="edge">
<title>input_json_TSR&#45;&gt;tsr_2</title>
<path fill="none" stroke="black" d="M1001.3,-215.7C1001.3,-207.98 1001.3,-198.71 1001.3,-190.11"/>
<polygon fill="black" stroke="black" points="1004.8,-190.1 1001.3,-180.1 997.8,-190.1 1004.8,-190.1"/>
</g>
<!-- d&#45;space Bragg pattern -->
<g id="node31" class="node">
<title>d&#45;space Bragg pattern</title>
<ellipse fill="none" stroke="green" cx="1001.3" cy="-90" rx="114.28" ry="18"/>
<text text-anchor="middle" x="1001.3" y="-86.3" font-family="Times,serif" font-size="14.00">d&#45;space Bragg pattern</text>
</g>
<!-- tsr_2&#45;&gt;d&#45;space Bragg pattern -->
<g id="edge38" class="edge">
<title>tsr_2&#45;&gt;d&#45;space Bragg pattern</title>
<path fill="none" stroke="black" d="M1001.3,-143.7C1001.3,-135.98 1001.3,-126.71 1001.3,-118.11"/>
<polygon fill="black" stroke="black" points="1004.8,-118.1 1001.3,-108.1 997.8,-118.1 1004.8,-118.1"/>
</g>
<!-- Save &amp; Send Plots -->
<g id="node32" class="node">
<title>Save &amp; Send Plots</title>
<ellipse fill="none" stroke="black" cx="1191.3" cy="-18" rx="96.68" ry="18"/>
<text text-anchor="middle" x="1191.3" y="-14.3" font-family="Times,serif" font-size="14.00">Save &amp; Send Plots</text>
</g>
<!-- d&#45;space Bragg pattern&#45;&gt;Save &amp; Send Plots -->
<g id="edge39" class="edge">
<title>d&#45;space Bragg pattern&#45;&gt;Save &amp; Send Plots</title>
<path fill="none" stroke="black" d="M1043.93,-73.29C1072.47,-62.78 1110.16,-48.89 1140.29,-37.79"/>
<polygon fill="black" stroke="black" points="1141.6,-41.04 1149.78,-34.3 1139.18,-34.47 1141.6,-41.04"/>
</g>
<!-- sofq_wksp_1 -->
<g id="node33" class="node">
<title>sofq_wksp_1</title>
<ellipse fill="none" stroke="blue" cx="1191.3" cy="-90" rx="57.69" ry="18"/>
<text text-anchor="middle" x="1191.3" y="-86.3" font-family="Times,serif" font-size="14.00">S(Q) wksp</text>
</g>
<!-- sofq_wksp_1&#45;&gt;Save &amp; Send Plots -->
<g id="edge40" class="edge">
<title>sofq_wksp_1&#45;&gt;Save &amp; Send Plots</title>
<path fill="none" stroke="black" d="M1191.3,-71.7C1191.3,-63.98 1191.3,-54.71 1191.3,-46.11"/>
<polygon fill="black" stroke="black" points="1194.8,-46.1 1191.3,-36.1 1187.8,-46.1 1194.8,-46.1"/>
</g>
<!-- pdf_wksp_1 -->
<g id="node34" class="node">
<title>pdf_wksp_1</title>
<ellipse fill="none" stroke="blue" cx="1325.3" cy="-90" rx="57.69" ry="18"/>
<text text-anchor="middle" x="1325.3" y="-86.3" font-family="Times,serif" font-size="14.00">PDF wksp</text>
</g>
<!-- pdf_wksp_1&#45;&gt;Save &amp; Send Plots -->
<g id="edge41" class="edge">
<title>pdf_wksp_1&#45;&gt;Save &amp; Send Plots</title>
<path fill="none" stroke="black" d="M1296.88,-74.15C1277.87,-64.23 1252.58,-51.02 1231.52,-40.01"/>
<polygon fill="black" stroke="black" points="1232.96,-36.82 1222.48,-35.29 1229.72,-43.02 1232.96,-36.82"/>
</g>
</g>
</svg>
