<?xml version="1.0" encoding="UTF-8" standalone="no"?>
<!DOCTYPE svg PUBLIC "-//W3C//DTD SVG 1.1//EN"
 "http://www.w3.org/Graphics/SVG/1.1/DTD/svg11.dtd">
<!-- Generated by graphviz version 2.43.0 (0)
 -->
<!-- Title: G Pages: 1 -->
<svg width="1452pt" height="1936pt"
 viewBox="0.00 0.00 1451.93 1936.00" xmlns="http://www.w3.org/2000/svg" xmlns:xlink="http://www.w3.org/1999/xlink">
<g id="graph0" class="graph" transform="scale(1 1) rotate(0) translate(4 1932)">
<title>G</title>
<polygon fill="white" stroke="transparent" points="-4,4 -4,-1932 1447.93,-1932 1447.93,4 -4,4"/>
<!-- Central config -->
<g id="node1" class="node">
<title>Central config</title>
<ellipse fill="none" stroke="green" cx="169.99" cy="-1910" rx="76.89" ry="18"/>
<text text-anchor="middle" x="169.99" y="-1906.3" font-family="Times,serif" font-size="14.00">Central config</text>
</g>
<!-- User config exists? -->
<g id="node2" class="node">
<title>User config exists?</title>
<ellipse fill="none" stroke="black" cx="169.99" cy="-1837" rx="99.38" ry="18"/>
<text text-anchor="middle" x="169.99" y="-1833.3" font-family="Times,serif" font-size="14.00">User config exists?</text>
</g>
<!-- Central config&#45;&gt;User config exists? -->
<g id="edge1" class="edge">
<title>Central config&#45;&gt;User config exists?</title>
<path fill="none" stroke="black" d="M169.99,-1891.81C169.99,-1883.79 169.99,-1874.05 169.99,-1865.07"/>
<polygon fill="black" stroke="black" points="173.49,-1865.03 169.99,-1855.03 166.49,-1865.03 173.49,-1865.03"/>
</g>
<!-- Write user config -->
<g id="node3" class="node">
<title>Write user config</title>
<ellipse fill="none" stroke="black" cx="90.99" cy="-1696" rx="90.98" ry="18"/>
<text text-anchor="middle" x="90.99" y="-1692.3" font-family="Times,serif" font-size="14.00">Write user config</text>
</g>
<!-- User config exists?&#45;&gt;Write user config -->
<g id="edge2" class="edge">
<title>User config exists?&#45;&gt;Write user config</title>
<path fill="none" stroke="black" d="M151.18,-1819.28C137.86,-1806.47 120.56,-1787.7 109.99,-1768 102.69,-1754.38 98.04,-1737.75 95.17,-1724.01"/>
<polygon fill="black" stroke="black" points="98.61,-1723.35 93.31,-1714.17 91.73,-1724.65 98.61,-1723.35"/>
<text text-anchor="middle" x="146.49" y="-1789.8" font-family="Times,serif" font-size="14.00"> No</text>
</g>
<!-- Override user config? -->
<g id="node6" class="node">
<title>Override user config?</title>
<ellipse fill="none" stroke="black" cx="229.99" cy="-1750" rx="111.28" ry="18"/>
<text text-anchor="middle" x="229.99" y="-1746.3" font-family="Times,serif" font-size="14.00">Override user config?</text>
</g>
<!-- User config exists?&#45;&gt;Override user config? -->
<g id="edge5" class="edge">
<title>User config exists?&#45;&gt;Override user config?</title>
<path fill="none" stroke="black" d="M182.13,-1818.8C190.67,-1806.7 202.25,-1790.3 211.87,-1776.67"/>
<polygon fill="black" stroke="black" points="214.96,-1778.36 217.87,-1768.18 209.24,-1774.33 214.96,-1778.36"/>
<text text-anchor="middle" x="217.49" y="-1789.8" font-family="Times,serif" font-size="14.00"> Yes</text>
</g>
<!-- Reduction params -->
<g id="node4" class="node">
<title>Reduction params</title>
<ellipse fill="none" stroke="blue" cx="232.99" cy="-1461" rx="94.78" ry="18"/>
<text text-anchor="middle" x="232.99" y="-1457.3" font-family="Times,serif" font-size="14.00">Reduction params</text>
</g>
<!-- Write user config&#45;&gt;Reduction params -->
<g id="edge3" class="edge">
<title>Write user config&#45;&gt;Reduction params</title>
<path fill="none" stroke="black" d="M88.65,-1677.99C84.89,-1643.67 81.26,-1565.25 117.99,-1516 130.4,-1499.36 149.22,-1487.66 168.07,-1479.51"/>
<polygon fill="black" stroke="black" points="169.62,-1482.66 177.6,-1475.68 167.01,-1476.16 169.62,-1482.66"/>
</g>
<!-- Prepare input JSON -->
<g id="node5" class="node">
<title>Prepare input JSON</title>
<ellipse fill="none" stroke="red" cx="789.99" cy="-1388" rx="102.88" ry="18"/>
<text text-anchor="middle" x="789.99" y="-1384.3" font-family="Times,serif" font-size="14.00">Prepare input JSON</text>
</g>
<!-- Reduction params&#45;&gt;Prepare input JSON -->
<g id="edge4" class="edge">
<title>Reduction params&#45;&gt;Prepare input JSON</title>
<path fill="none" stroke="black" d="M307.07,-1449.69C323.5,-1447.45 340.83,-1445.12 356.99,-1443 474.59,-1427.61 610.28,-1410.85 697.97,-1400.15"/>
<polygon fill="black" stroke="black" points="698.65,-1403.59 708.15,-1398.91 697.8,-1396.64 698.65,-1403.59"/>
</g>
<!-- Input JSON for TSR -->
<g id="node27" class="node">
<title>Input JSON for TSR</title>
<ellipse fill="none" stroke="green" cx="844.99" cy="-1315" rx="101.28" ry="18"/>
<text text-anchor="middle" x="844.99" y="-1311.3" font-family="Times,serif" font-size="14.00">Input JSON for TSR</text>
</g>
<!-- Prepare input JSON&#45;&gt;Input JSON for TSR -->
<g id="edge31" class="edge">
<title>Prepare input JSON&#45;&gt;Input JSON for TSR</title>
<path fill="none" stroke="black" d="M803.31,-1369.81C809.99,-1361.18 818.22,-1350.56 825.6,-1341.03"/>
<polygon fill="black" stroke="black" points="828.44,-1343.08 831.8,-1333.03 822.91,-1338.79 828.44,-1343.08"/>
</g>
<!-- Backup user config -->
<g id="node7" class="node">
<title>Backup user config</title>
<ellipse fill="none" stroke="black" cx="217.99" cy="-1642" rx="99.38" ry="18"/>
<text text-anchor="middle" x="217.99" y="-1638.3" font-family="Times,serif" font-size="14.00">Backup user config</text>
</g>
<!-- Override user config?&#45;&gt;Backup user config -->
<g id="edge6" class="edge">
<title>Override user config?&#45;&gt;Backup user config</title>
<path fill="none" stroke="black" d="M228.06,-1731.97C226.19,-1715.38 223.3,-1689.88 221.1,-1670.43"/>
<polygon fill="black" stroke="black" points="224.56,-1669.88 219.96,-1660.34 217.6,-1670.67 224.56,-1669.88"/>
<text text-anchor="middle" x="239.49" y="-1692.3" font-family="Times,serif" font-size="14.00"> Yes</text>
</g>
<!-- Use user config -->
<g id="node9" class="node">
<title>Use user config</title>
<ellipse fill="none" stroke="black" cx="336.99" cy="-1588" rx="83.39" ry="18"/>
<text text-anchor="middle" x="336.99" y="-1584.3" font-family="Times,serif" font-size="14.00">Use user config</text>
</g>
<!-- Override user config?&#45;&gt;Use user config -->
<g id="edge9" class="edge">
<title>Override user config?&#45;&gt;Use user config</title>
<path fill="none" stroke="black" d="M256.18,-1732.28C278.57,-1716.5 309.67,-1690.71 325.99,-1660 333.06,-1646.7 335.91,-1630.16 336.94,-1616.38"/>
<polygon fill="black" stroke="black" points="340.46,-1616.2 337.43,-1606.05 333.46,-1615.87 340.46,-1616.2"/>
</g>
<!-- ruc_1 -->
<g id="node8" class="node">
<title>ruc_1</title>
<ellipse fill="none" stroke="black" cx="217.99" cy="-1534" rx="90.98" ry="18"/>
<text text-anchor="middle" x="217.99" y="-1530.3" font-family="Times,serif" font-size="14.00">Write user config</text>
</g>
<!-- Backup user config&#45;&gt;ruc_1 -->
<g id="edge7" class="edge">
<title>Backup user config&#45;&gt;ruc_1</title>
<path fill="none" stroke="black" d="M217.99,-1623.97C217.99,-1607.38 217.99,-1581.88 217.99,-1562.43"/>
<polygon fill="black" stroke="black" points="221.49,-1562.34 217.99,-1552.34 214.49,-1562.34 221.49,-1562.34"/>
</g>
<!-- ruc_1&#45;&gt;Reduction params -->
<g id="edge8" class="edge">
<title>ruc_1&#45;&gt;Reduction params</title>
<path fill="none" stroke="black" d="M221.62,-1515.81C223.32,-1507.79 225.38,-1498.05 227.27,-1489.07"/>
<polygon fill="black" stroke="black" points="230.75,-1489.54 229.39,-1479.03 223.9,-1488.09 230.75,-1489.54"/>
</g>
<!-- Use user config&#45;&gt;Reduction params -->
<g id="edge10" class="edge">
<title>Use user config&#45;&gt;Reduction params</title>
<path fill="none" stroke="black" d="M335.88,-1569.71C334.13,-1554.32 329.62,-1531.84 317.99,-1516 307.88,-1502.23 293.11,-1491.1 278.7,-1482.61"/>
<polygon fill="black" stroke="black" points="280.26,-1479.47 269.82,-1477.66 276.85,-1485.58 280.26,-1479.47"/>
</g>
<!-- Data File -->
<g id="node10" class="node">
<title>Data File</title>
<ellipse fill="none" stroke="blue" cx="367.99" cy="-1837" rx="53.09" ry="18"/>
<text text-anchor="middle" x="367.99" y="-1833.3" font-family="Times,serif" font-size="14.00">Data File</text>
</g>
<!-- NOMAD AutoRed -->
<g id="node11" class="node">
<title>NOMAD AutoRed</title>
<ellipse fill="none" stroke="red" cx="484.99" cy="-1750" rx="90.98" ry="18"/>
<text text-anchor="middle" x="484.99" y="-1746.3" font-family="Times,serif" font-size="14.00">NOMAD AutoRed</text>
</g>
<!-- Data File&#45;&gt;NOMAD AutoRed -->
<g id="edge11" class="edge">
<title>Data File&#45;&gt;NOMAD AutoRed</title>
<path fill="none" stroke="black" d="M389.45,-1820.41C407.46,-1807.33 433.43,-1788.46 453.75,-1773.7"/>
<polygon fill="black" stroke="black" points="456.04,-1776.36 462.07,-1767.65 451.92,-1770.7 456.04,-1776.36"/>
</g>
<!-- Sample config -->
<g id="node13" class="node">
<title>Sample config</title>
<ellipse fill="none" stroke="red" cx="527.99" cy="-1642" rx="76.89" ry="18"/>
<text text-anchor="middle" x="527.99" y="-1638.3" font-family="Times,serif" font-size="14.00">Sample config</text>
</g>
<!-- NOMAD AutoRed&#45;&gt;Sample config -->
<g id="edge13" class="edge">
<title>NOMAD AutoRed&#45;&gt;Sample config</title>
<path fill="none" stroke="black" d="M491.9,-1731.97C498.77,-1715.05 509.39,-1688.86 517.33,-1669.28"/>
<polygon fill="black" stroke="black" points="520.58,-1670.57 521.1,-1659.99 514.1,-1667.94 520.58,-1670.57"/>
</g>
<!-- Output Dir. -->
<g id="node12" class="node">
<title>Output Dir.</title>
<ellipse fill="none" stroke="green" cx="501.99" cy="-1837" rx="63.09" ry="18"/>
<text text-anchor="middle" x="501.99" y="-1833.3" font-family="Times,serif" font-size="14.00">Output Dir.</text>
</g>
<!-- Output Dir.&#45;&gt;NOMAD AutoRed -->
<g id="edge12" class="edge">
<title>Output Dir.&#45;&gt;NOMAD AutoRed</title>
<path fill="none" stroke="black" d="M498.55,-1818.8C496.22,-1807.16 493.1,-1791.55 490.44,-1778.24"/>
<polygon fill="black" stroke="black" points="493.82,-1777.29 488.43,-1768.18 486.96,-1778.67 493.82,-1777.29"/>
</g>
<!-- IPTS -->
<g id="node15" class="node">
<title>IPTS</title>
<ellipse fill="none" stroke="green" cx="539.99" cy="-1534" rx="32.49" ry="18"/>
<text text-anchor="middle" x="539.99" y="-1530.3" font-family="Times,serif" font-size="14.00">IPTS</text>
</g>
<!-- Sample config&#45;&gt;IPTS -->
<g id="edge15" class="edge">
<title>Sample config&#45;&gt;IPTS</title>
<path fill="none" stroke="black" d="M529.92,-1623.97C531.81,-1607.28 534.72,-1581.58 536.93,-1562.08"/>
<polygon fill="black" stroke="black" points="540.42,-1562.32 538.07,-1551.99 533.47,-1561.53 540.42,-1562.32"/>
</g>
<!-- Sample ID -->
<g id="node16" class="node">
<title>Sample ID</title>
<ellipse fill="none" stroke="blue" cx="429.99" cy="-1534" rx="59.29" ry="18"/>
<text text-anchor="middle" x="429.99" y="-1530.3" font-family="Times,serif" font-size="14.00">Sample ID</text>
</g>
<!-- Sample config&#45;&gt;Sample ID -->
<g id="edge16" class="edge">
<title>Sample config&#45;&gt;Sample ID</title>
<path fill="none" stroke="black" d="M512.25,-1623.97C496.01,-1606.4 470.54,-1578.86 452.24,-1559.07"/>
<polygon fill="black" stroke="black" points="454.73,-1556.61 445.38,-1551.64 449.59,-1561.36 454.73,-1556.61"/>
</g>
<!-- Grab char runs -->
<g id="node17" class="node">
<title>Grab char runs</title>
<ellipse fill="none" stroke="red" cx="671.99" cy="-1534" rx="81.49" ry="18"/>
<text text-anchor="middle" x="671.99" y="-1530.3" font-family="Times,serif" font-size="14.00">Grab char runs</text>
</g>
<!-- Sample config&#45;&gt;Grab char runs -->
<g id="edge17" class="edge">
<title>Sample config&#45;&gt;Grab char runs</title>
<path fill="none" stroke="black" d="M550.18,-1624.67C574.63,-1606.67 614.12,-1577.6 641.47,-1557.46"/>
<polygon fill="black" stroke="black" points="643.57,-1560.27 649.55,-1551.52 639.42,-1554.63 643.57,-1560.27"/>
</g>
<!-- df_1 -->
<g id="node14" class="node">
<title>df_1</title>
<ellipse fill="none" stroke="blue" cx="646.99" cy="-1750" rx="53.09" ry="18"/>
<text text-anchor="middle" x="646.99" y="-1746.3" font-family="Times,serif" font-size="14.00">Data File</text>
</g>
<!-- df_1&#45;&gt;Sample config -->
<g id="edge14" class="edge">
<title>df_1&#45;&gt;Sample config</title>
<path fill="none" stroke="black" d="M628.92,-1732.9C609.03,-1715.18 576.87,-1686.54 554.21,-1666.36"/>
<polygon fill="black" stroke="black" points="556.42,-1663.64 546.63,-1659.6 551.77,-1668.87 556.42,-1663.64"/>
</g>
<!-- MTC runs -->
<g id="node19" class="node">
<title>MTC runs</title>
<ellipse fill="none" stroke="green" cx="544.99" cy="-1461" rx="56.59" ry="18"/>
<text text-anchor="middle" x="544.99" y="-1457.3" font-family="Times,serif" font-size="14.00">MTC runs</text>
</g>
<!-- Grab char runs&#45;&gt;MTC runs -->
<g id="edge19" class="edge">
<title>Grab char runs&#45;&gt;MTC runs</title>
<path fill="none" stroke="black" d="M643.49,-1517.07C624.85,-1506.64 600.35,-1492.95 580.44,-1481.82"/>
<polygon fill="black" stroke="black" points="582.1,-1478.74 571.66,-1476.91 578.68,-1484.85 582.1,-1478.74"/>
</g>
<!-- MT runs -->
<g id="node20" class="node">
<title>MT runs</title>
<ellipse fill="none" stroke="green" cx="1093.99" cy="-1461" rx="50.09" ry="18"/>
<text text-anchor="middle" x="1093.99" y="-1457.3" font-family="Times,serif" font-size="14.00">MT runs</text>
</g>
<!-- Grab char runs&#45;&gt;MT runs -->
<g id="edge20" class="edge">
<title>Grab char runs&#45;&gt;MT runs</title>
<path fill="none" stroke="black" d="M743.1,-1525.25C816.66,-1516.58 934.6,-1500.83 1034.99,-1479 1039.09,-1478.11 1043.33,-1477.09 1047.56,-1476"/>
<polygon fill="black" stroke="black" points="1048.61,-1479.34 1057.36,-1473.37 1046.8,-1472.58 1048.61,-1479.34"/>
</g>
<!-- Van runs -->
<g id="node21" class="node">
<title>Van runs</title>
<ellipse fill="none" stroke="green" cx="671.99" cy="-1461" rx="51.99" ry="18"/>
<text text-anchor="middle" x="671.99" y="-1457.3" font-family="Times,serif" font-size="14.00">Van runs</text>
</g>
<!-- Grab char runs&#45;&gt;Van runs -->
<g id="edge21" class="edge">
<title>Grab char runs&#45;&gt;Van runs</title>
<path fill="none" stroke="black" d="M671.99,-1515.81C671.99,-1507.79 671.99,-1498.05 671.99,-1489.07"/>
<polygon fill="black" stroke="black" points="675.49,-1489.03 671.99,-1479.03 668.49,-1489.03 675.49,-1489.03"/>
</g>
<!-- Calib file -->
<g id="node22" class="node">
<title>Calib file</title>
<ellipse fill="none" stroke="green" cx="417.99" cy="-1461" rx="51.99" ry="18"/>
<text text-anchor="middle" x="417.99" y="-1457.3" font-family="Times,serif" font-size="14.00">Calib file</text>
</g>
<!-- Grab char runs&#45;&gt;Calib file -->
<g id="edge22" class="edge">
<title>Grab char runs&#45;&gt;Calib file</title>
<path fill="none" stroke="black" d="M623.62,-1519.48C578.66,-1506.91 512.02,-1488.28 466.89,-1475.67"/>
<polygon fill="black" stroke="black" points="467.61,-1472.24 457.04,-1472.91 465.72,-1478.98 467.61,-1472.24"/>
</g>
<!-- cf_1 -->
<g id="node18" class="node">
<title>cf_1</title>
<ellipse fill="none" stroke="green" cx="708.99" cy="-1642" rx="86.38" ry="18"/>
<text text-anchor="middle" x="708.99" y="-1638.3" font-family="Times,serif" font-size="14.00">Central char file</text>
</g>
<!-- cf_1&#45;&gt;Grab char runs -->
<g id="edge18" class="edge">
<title>cf_1&#45;&gt;Grab char runs</title>
<path fill="none" stroke="black" d="M703.05,-1623.97C697.17,-1607.12 688.08,-1581.1 681.26,-1561.54"/>
<polygon fill="black" stroke="black" points="684.52,-1560.28 677.92,-1551.99 677.91,-1562.58 684.52,-1560.28"/>
</g>
<!-- MTC runs&#45;&gt;Prepare input JSON -->
<g id="edge26" class="edge">
<title>MTC runs&#45;&gt;Prepare input JSON</title>
<path fill="none" stroke="black" d="M585.45,-1448.28C624.7,-1436.9 684.75,-1419.5 729.65,-1406.49"/>
<polygon fill="black" stroke="black" points="730.64,-1409.84 739.27,-1403.7 728.7,-1403.12 730.64,-1409.84"/>
</g>
<!-- input_json_prep_2 -->
<g id="node36" class="node">
<title>input_json_prep_2</title>
<ellipse fill="none" stroke="red" cx="1078.99" cy="-790" rx="102.88" ry="18"/>
<text text-anchor="middle" x="1078.99" y="-786.3" font-family="Times,serif" font-size="14.00">Prepare input JSON</text>
</g>
<!-- MTC runs&#45;&gt;input_json_prep_2 -->
<g id="edge42" class="edge">
<title>MTC runs&#45;&gt;input_json_prep_2</title>
<path fill="none" stroke="black" d="M545.75,-1442.79C546.31,-1428.41 546.99,-1407.37 546.99,-1389 546.99,-1389 546.99,-1389 546.99,-862 546.99,-819.8 813.37,-801.77 969.14,-794.84"/>
<polygon fill="black" stroke="black" points="969.4,-798.33 979.24,-794.4 969.1,-791.34 969.4,-798.33"/>
</g>
<!-- MT runs&#45;&gt;Prepare input JSON -->
<g id="edge27" class="edge">
<title>MT runs&#45;&gt;Prepare input JSON</title>
<path fill="none" stroke="black" d="M1056.64,-1448.85C1049.47,-1446.82 1042.02,-1444.78 1034.99,-1443 978.02,-1428.53 913.03,-1414.31 864.31,-1404.1"/>
<polygon fill="black" stroke="black" points="864.98,-1400.66 854.48,-1402.04 863.55,-1407.51 864.98,-1400.66"/>
</g>
<!-- MT runs&#45;&gt;input_json_prep_2 -->
<g id="edge43" class="edge">
<title>MT runs&#45;&gt;input_json_prep_2</title>
<path fill="none" stroke="black" d="M1093.99,-1442.78C1093.99,-1428.41 1093.99,-1407.37 1093.99,-1389 1093.99,-1389 1093.99,-1389 1093.99,-862 1093.99,-847.19 1090.83,-831.01 1087.41,-817.84"/>
<polygon fill="black" stroke="black" points="1090.72,-816.7 1084.66,-808 1083.98,-818.58 1090.72,-816.7"/>
</g>
<!-- Van runs&#45;&gt;Prepare input JSON -->
<g id="edge29" class="edge">
<title>Van runs&#45;&gt;Prepare input JSON</title>
<path fill="none" stroke="black" d="M696.73,-1445.12C713.22,-1435.19 735.18,-1421.98 753.65,-1410.87"/>
<polygon fill="black" stroke="black" points="755.63,-1413.76 762.4,-1405.6 752.03,-1407.76 755.63,-1413.76"/>
</g>
<!-- Van runs&#45;&gt;input_json_prep_2 -->
<g id="edge44" class="edge">
<title>Van runs&#45;&gt;input_json_prep_2</title>
<path fill="none" stroke="black" d="M637.91,-1447.26C614.26,-1435.96 586.99,-1416.88 586.99,-1389 586.99,-1389 586.99,-1389 586.99,-862 586.99,-823.52 825.78,-804.2 970.64,-796.01"/>
<polygon fill="black" stroke="black" points="971.12,-799.49 980.91,-795.44 970.73,-792.5 971.12,-799.49"/>
</g>
<!-- Calib file&#45;&gt;Prepare input JSON -->
<g id="edge30" class="edge">
<title>Calib file&#45;&gt;Prepare input JSON</title>
<path fill="none" stroke="black" d="M456.24,-1448.71C463.75,-1446.67 471.59,-1444.67 478.99,-1443 554.19,-1426.04 640.65,-1411.41 703.29,-1401.68"/>
<polygon fill="black" stroke="black" points="704.17,-1405.08 713.52,-1400.1 703.11,-1398.16 704.17,-1405.08"/>
</g>
<!-- Calib file&#45;&gt;input_json_prep_2 -->
<g id="edge45" class="edge">
<title>Calib file&#45;&gt;input_json_prep_2</title>
<path fill="none" stroke="black" d="M421.39,-1442.86C423.94,-1428.53 426.99,-1407.51 426.99,-1389 426.99,-1389 426.99,-1389 426.99,-862 426.99,-808.37 780.15,-795.22 966.64,-792.02"/>
<polygon fill="black" stroke="black" points="966.82,-795.52 976.76,-791.85 966.7,-788.52 966.82,-795.52"/>
</g>
<!-- df_2 -->
<g id="node23" class="node">
<title>df_2</title>
<ellipse fill="none" stroke="blue" cx="972.99" cy="-1461" rx="53.09" ry="18"/>
<text text-anchor="middle" x="972.99" y="-1457.3" font-family="Times,serif" font-size="14.00">Data File</text>
</g>
<!-- df_2&#45;&gt;Prepare input JSON -->
<g id="edge23" class="edge">
<title>df_2&#45;&gt;Prepare input JSON</title>
<path fill="none" stroke="black" d="M939.43,-1446.98C911.56,-1436.17 871.52,-1420.63 839.89,-1408.36"/>
<polygon fill="black" stroke="black" points="840.96,-1405.02 830.37,-1404.67 838.43,-1411.55 840.96,-1405.02"/>
</g>
<!-- sc_2 -->
<g id="node24" class="node">
<title>sc_2</title>
<ellipse fill="none" stroke="green" cx="1221.99" cy="-1461" rx="60.39" ry="18"/>
<text text-anchor="middle" x="1221.99" y="-1457.3" font-family="Times,serif" font-size="14.00">Samle Info</text>
</g>
<!-- sc_2&#45;&gt;Prepare input JSON -->
<g id="edge24" class="edge">
<title>sc_2&#45;&gt;Prepare input JSON</title>
<path fill="none" stroke="black" d="M1177.96,-1448.5C1169.69,-1446.52 1161.1,-1444.6 1152.99,-1443 1061.35,-1424.94 955.62,-1409.85 881.99,-1400.26"/>
<polygon fill="black" stroke="black" points="882.19,-1396.75 871.82,-1398.94 881.29,-1403.7 882.19,-1396.75"/>
</g>
<!-- sc_2&#45;&gt;input_json_prep_2 -->
<g id="edge48" class="edge">
<title>sc_2&#45;&gt;input_json_prep_2</title>
<path fill="none" stroke="black" d="M1183.82,-1446.88C1159.29,-1435.75 1131.99,-1417.06 1131.99,-1389 1131.99,-1389 1131.99,-1389 1131.99,-862 1131.99,-843.91 1120.81,-827.46 1108.72,-814.96"/>
<polygon fill="black" stroke="black" points="1110.8,-812.11 1101.16,-807.7 1105.95,-817.16 1110.8,-812.11"/>
</g>
<!-- sid_2 -->
<g id="node25" class="node">
<title>sid_2</title>
<ellipse fill="none" stroke="blue" cx="1221.99" cy="-1534" rx="53.09" ry="18"/>
<text text-anchor="middle" x="1221.99" y="-1530.3" font-family="Times,serif" font-size="14.00">Samle ID</text>
</g>
<!-- sid_2&#45;&gt;sc_2 -->
<g id="edge25" class="edge">
<title>sid_2&#45;&gt;sc_2</title>
<path fill="none" stroke="black" d="M1221.99,-1515.81C1221.99,-1507.79 1221.99,-1498.05 1221.99,-1489.07"/>
<polygon fill="black" stroke="black" points="1225.49,-1489.03 1221.99,-1479.03 1218.49,-1489.03 1225.49,-1489.03"/>
</g>
<!-- JSON template -->
<g id="node26" class="node">
<title>JSON template</title>
<ellipse fill="none" stroke="green" cx="821.99" cy="-1461" rx="79.89" ry="18"/>
<text text-anchor="middle" x="821.99" y="-1457.3" font-family="Times,serif" font-size="14.00">JSON template</text>
</g>
<!-- JSON template&#45;&gt;Prepare input JSON -->
<g id="edge28" class="edge">
<title>JSON template&#45;&gt;Prepare input JSON</title>
<path fill="none" stroke="black" d="M814.25,-1442.81C810.51,-1434.53 805.95,-1424.41 801.8,-1415.19"/>
<polygon fill="black" stroke="black" points="804.97,-1413.71 797.67,-1406.03 798.59,-1416.58 804.97,-1413.71"/>
</g>
<!-- TotalScatteringReduction (TSR) -->
<g id="node28" class="node">
<title>TotalScatteringReduction (TSR)</title>
<ellipse fill="none" stroke="red" cx="857.99" cy="-1242" rx="158.67" ry="18"/>
<text text-anchor="middle" x="857.99" y="-1238.3" font-family="Times,serif" font-size="14.00">TotalScatteringReduction (TSR)</text>
</g>
<!-- Input JSON for TSR&#45;&gt;TotalScatteringReduction (TSR) -->
<g id="edge32" class="edge">
<title>Input JSON for TSR&#45;&gt;TotalScatteringReduction (TSR)</title>
<path fill="none" stroke="black" d="M848.14,-1296.81C849.61,-1288.79 851.39,-1279.05 853.04,-1270.07"/>
<polygon fill="black" stroke="black" points="856.52,-1270.5 854.87,-1260.03 849.63,-1269.23 856.52,-1270.5"/>
</g>
<!-- S(Q) wksp -->
<g id="node29" class="node">
<title>S(Q) wksp</title>
<ellipse fill="none" stroke="blue" cx="857.99" cy="-1169" rx="57.69" ry="18"/>
<text text-anchor="middle" x="857.99" y="-1165.3" font-family="Times,serif" font-size="14.00">S(Q) wksp</text>
</g>
<!-- TotalScatteringReduction (TSR)&#45;&gt;S(Q) wksp -->
<g id="edge33" class="edge">
<title>TotalScatteringReduction (TSR)&#45;&gt;S(Q) wksp</title>
<path fill="none" stroke="black" d="M857.99,-1223.81C857.99,-1215.79 857.99,-1206.05 857.99,-1197.07"/>
<polygon fill="black" stroke="black" points="861.49,-1197.03 857.99,-1187.03 854.49,-1197.03 861.49,-1197.03"/>
</g>
<!-- Absolute Scaled? -->
<g id="node30" class="node">
<title>Absolute Scaled?</title>
<ellipse fill="none" stroke="black" cx="857.99" cy="-1096" rx="89.88" ry="18"/>
<text text-anchor="middle" x="857.99" y="-1092.3" font-family="Times,serif" font-size="14.00">Absolute Scaled?</text>
</g>
<!-- S(Q) wksp&#45;&gt;Absolute Scaled? -->
<g id="edge34" class="edge">
<title>S(Q) wksp&#45;&gt;Absolute Scaled?</title>
<path fill="none" stroke="black" d="M857.99,-1150.81C857.99,-1142.79 857.99,-1133.05 857.99,-1124.07"/>
<polygon fill="black" stroke="black" points="861.49,-1124.03 857.99,-1114.03 854.49,-1124.03 861.49,-1124.03"/>
</g>
<!-- Save S(Q) -->
<g id="node31" class="node">
<title>Save S(Q)</title>
<ellipse fill="none" stroke="red" cx="1008.99" cy="-1009" rx="56.59" ry="18"/>
<text text-anchor="middle" x="1008.99" y="-1005.3" font-family="Times,serif" font-size="14.00">Save S(Q)</text>
</g>
<!-- Absolute Scaled?&#45;&gt;Save S(Q) -->
<g id="edge35" class="edge">
<title>Absolute Scaled?&#45;&gt;Save S(Q)</title>
<path fill="none" stroke="black" d="M886.75,-1078.81C911.4,-1064.94 947,-1044.9 973.43,-1030.02"/>
<polygon fill="black" stroke="black" points="975.37,-1032.94 982.37,-1024.99 971.94,-1026.84 975.37,-1032.94"/>
<text text-anchor="middle" x="958.99" y="-1048.8" font-family="Times,serif" font-size="14.00"> &#160;Yes</text>
</g>
<!-- Adjust PF -->
<g id="node34" class="node">
<title>Adjust PF</title>
<ellipse fill="none" stroke="black" cx="670.99" cy="-1009" rx="55.79" ry="18"/>
<text text-anchor="middle" x="670.99" y="-1005.3" font-family="Times,serif" font-size="14.00">Adjust PF</text>
</g>
<!-- Absolute Scaled?&#45;&gt;Adjust PF -->
<g id="edge38" class="edge">
<title>Absolute Scaled?&#45;&gt;Adjust PF</title>
<path fill="none" stroke="black" d="M823.26,-1079.21C791.63,-1064.84 744.91,-1043.6 711.58,-1028.45"/>
<polygon fill="black" stroke="black" points="712.68,-1025.1 702.12,-1024.15 709.78,-1031.48 712.68,-1025.1"/>
<text text-anchor="middle" x="789.99" y="-1048.8" font-family="Times,serif" font-size="14.00"> &#160;No</text>
</g>
<!-- PDFFourierTransform -->
<g id="node32" class="node">
<title>PDFFourierTransform</title>
<ellipse fill="none" stroke="red" cx="952.99" cy="-936" rx="113.18" ry="18"/>
<text text-anchor="middle" x="952.99" y="-932.3" font-family="Times,serif" font-size="14.00">PDFFourierTransform</text>
</g>
<!-- Save S(Q)&#45;&gt;PDFFourierTransform -->
<g id="edge36" class="edge">
<title>Save S(Q)&#45;&gt;PDFFourierTransform</title>
<path fill="none" stroke="black" d="M995.72,-991.17C988.92,-982.55 980.49,-971.86 972.92,-962.27"/>
<polygon fill="black" stroke="black" points="975.5,-959.88 966.56,-954.2 970,-964.22 975.5,-959.88"/>
</g>
<!-- Save PDF -->
<g id="node35" class="node">
<title>Save PDF</title>
<ellipse fill="none" stroke="blue" cx="994.99" cy="-863" rx="55.79" ry="18"/>
<text text-anchor="middle" x="994.99" y="-859.3" font-family="Times,serif" font-size="14.00">Save PDF</text>
</g>
<!-- PDFFourierTransform&#45;&gt;Save PDF -->
<g id="edge40" class="edge">
<title>PDFFourierTransform&#45;&gt;Save PDF</title>
<path fill="none" stroke="black" d="M963.16,-917.81C968.11,-909.44 974.17,-899.2 979.67,-889.9"/>
<polygon fill="black" stroke="black" points="982.84,-891.42 984.92,-881.03 976.81,-887.85 982.84,-891.42"/>
</g>
<!-- rdp_1 -->
<g id="node33" class="node">
<title>rdp_1</title>
<ellipse fill="none" stroke="blue" cx="839.99" cy="-1009" rx="94.78" ry="18"/>
<text text-anchor="middle" x="839.99" y="-1005.3" font-family="Times,serif" font-size="14.00">Reduction params</text>
</g>
<!-- rdp_1&#45;&gt;PDFFourierTransform -->
<g id="edge37" class="edge">
<title>rdp_1&#45;&gt;PDFFourierTransform</title>
<path fill="none" stroke="black" d="M866.2,-991.53C881.49,-981.92 900.99,-969.67 917.63,-959.22"/>
<polygon fill="black" stroke="black" points="919.93,-961.91 926.53,-953.62 916.2,-955.98 919.93,-961.91"/>
</g>
<!-- Adjust PF&#45;&gt;Prepare input JSON -->
<g id="edge39" class="edge">
<title>Adjust PF&#45;&gt;Prepare input JSON</title>
<path fill="none" stroke="black" d="M670.99,-1027.26C670.99,-1044.43 670.99,-1071.54 670.99,-1095 670.99,-1316 670.99,-1316 670.99,-1316 670.99,-1342.57 693.14,-1359.43 718.32,-1370.01"/>
<polygon fill="black" stroke="black" points="717.11,-1373.29 727.7,-1373.63 719.64,-1366.76 717.11,-1373.29"/>
</g>
<!-- Save PDF&#45;&gt;input_json_prep_2 -->
<g id="edge41" class="edge">
<title>Save PDF&#45;&gt;input_json_prep_2</title>
<path fill="none" stroke="black" d="M1014.05,-845.89C1025.09,-836.56 1039.18,-824.65 1051.41,-814.31"/>
<polygon fill="black" stroke="black" points="1053.75,-816.92 1059.13,-807.79 1049.23,-811.57 1053.75,-816.92"/>
</g>
<!-- input_json_TSR -->
<g id="node39" class="node">
<title>input_json_TSR</title>
<ellipse fill="none" stroke="green" cx="1078.99" cy="-717" rx="101.28" ry="18"/>
<text text-anchor="middle" x="1078.99" y="-713.3" font-family="Times,serif" font-size="14.00">Input JSON for TSR</text>
</g>
<!-- input_json_prep_2&#45;&gt;input_json_TSR -->
<g id="edge49" class="edge">
<title>input_json_prep_2&#45;&gt;input_json_TSR</title>
<path fill="none" stroke="black" d="M1078.99,-771.81C1078.99,-763.79 1078.99,-754.05 1078.99,-745.07"/>
<polygon fill="black" stroke="black" points="1082.49,-745.03 1078.99,-735.03 1075.49,-745.03 1082.49,-745.03"/>
</g>
<!-- df_3 -->
<g id="node37" class="node">
<title>df_3</title>
<ellipse fill="none" stroke="blue" cx="1212.99" cy="-863" rx="53.09" ry="18"/>
<text text-anchor="middle" x="1212.99" y="-859.3" font-family="Times,serif" font-size="14.00">Data File</text>
</g>
<!-- df_3&#45;&gt;input_json_prep_2 -->
<g id="edge46" class="edge">
<title>df_3&#45;&gt;input_json_prep_2</title>
<path fill="none" stroke="black" d="M1185.97,-847.39C1173.78,-840.82 1159.18,-832.99 1145.99,-826 1137.39,-821.44 1128.14,-816.58 1119.34,-811.98"/>
<polygon fill="black" stroke="black" points="1120.87,-808.83 1110.39,-807.31 1117.63,-815.04 1120.87,-808.83"/>
</g>
<!-- jt_1 -->
<g id="node38" class="node">
<title>jt_1</title>
<ellipse fill="none" stroke="green" cx="1363.99" cy="-863" rx="79.89" ry="18"/>
<text text-anchor="middle" x="1363.99" y="-859.3" font-family="Times,serif" font-size="14.00">JSON template</text>
</g>
<!-- jt_1&#45;&gt;input_json_prep_2 -->
<g id="edge47" class="edge">
<title>jt_1&#45;&gt;input_json_prep_2</title>
<path fill="none" stroke="black" d="M1312.38,-849.14C1265.61,-837.49 1196.42,-820.26 1145.52,-807.57"/>
<polygon fill="black" stroke="black" points="1146.14,-804.12 1135.59,-805.1 1144.45,-810.91 1146.14,-804.12"/>
</g>
<!-- tsr_2 -->
<g id="node40" class="node">
<title>tsr_2</title>
<ellipse fill="none" stroke="red" cx="985.99" cy="-644" rx="158.67" ry="18"/>
<text text-anchor="middle" x="985.99" y="-640.3" font-family="Times,serif" font-size="14.00">TotalScatteringReduction (TSR)</text>
</g>
<!-- input_json_TSR&#45;&gt;tsr_2 -->
<g id="edge50" class="edge">
<title>input_json_TSR&#45;&gt;tsr_2</title>
<path fill="none" stroke="black" d="M1056.95,-699.17C1044.76,-689.87 1029.44,-678.17 1016.16,-668.03"/>
<polygon fill="black" stroke="black" points="1018.27,-665.24 1008.2,-661.95 1014.02,-670.8 1018.27,-665.24"/>
</g>
<!-- pfc_1 -->
<g id="node41" class="node">
<title>pfc_1</title>
<ellipse fill="none" stroke="black" cx="985.99" cy="-571" rx="89.88" ry="18"/>
<text text-anchor="middle" x="985.99" y="-567.3" font-family="Times,serif" font-size="14.00">Absolute Scaled?</text>
</g>
<!-- tsr_2&#45;&gt;pfc_1 -->
<g id="edge51" class="edge">
<title>tsr_2&#45;&gt;pfc_1</title>
<path fill="none" stroke="black" d="M985.99,-625.81C985.99,-617.79 985.99,-608.05 985.99,-599.07"/>
<polygon fill="black" stroke="black" points="989.49,-599.03 985.99,-589.03 982.49,-599.03 989.49,-599.03"/>
</g>
<!-- Save BbyB Bragg &amp; S(Q) -->
<g id="node42" class="node">
<title>Save BbyB Bragg &amp; S(Q)</title>
<ellipse fill="none" stroke="black" cx="971.99" cy="-484" rx="126.98" ry="18"/>
<text text-anchor="middle" x="971.99" y="-480.3" font-family="Times,serif" font-size="14.00">Save BbyB Bragg &amp; S(Q)</text>
</g>
<!-- pfc_1&#45;&gt;Save BbyB Bragg &amp; S(Q) -->
<g id="edge52" class="edge">
<title>pfc_1&#45;&gt;Save BbyB Bragg &amp; S(Q)</title>
<path fill="none" stroke="black" d="M983.16,-552.8C981.24,-541.16 978.67,-525.55 976.48,-512.24"/>
<polygon fill="black" stroke="black" points="979.9,-511.47 974.82,-502.18 972.99,-512.61 979.9,-511.47"/>
<text text-anchor="middle" x="993.49" y="-523.8" font-family="Times,serif" font-size="14.00"> Yes</text>
</g>
<!-- apf_1 -->
<g id="node43" class="node">
<title>apf_1</title>
<ellipse fill="none" stroke="black" cx="1172.99" cy="-484" rx="55.79" ry="18"/>
<text text-anchor="middle" x="1172.99" y="-480.3" font-family="Times,serif" font-size="14.00">Adjust PF</text>
</g>
<!-- pfc_1&#45;&gt;apf_1 -->
<g id="edge53" class="edge">
<title>pfc_1&#45;&gt;apf_1</title>
<path fill="none" stroke="black" d="M1020.73,-554.21C1052.35,-539.84 1099.07,-518.6 1132.41,-503.45"/>
<polygon fill="black" stroke="black" points="1134.2,-506.48 1141.86,-499.15 1131.31,-500.1 1134.2,-506.48"/>
<text text-anchor="middle" x="1102.49" y="-523.8" font-family="Times,serif" font-size="14.00"> No</text>
</g>
<!-- Merge JSONs for similar runs -->
<g id="node44" class="node">
<title>Merge JSONs for similar runs</title>
<ellipse fill="none" stroke="black" cx="971.99" cy="-411" rx="148.67" ry="18"/>
<text text-anchor="middle" x="971.99" y="-407.3" font-family="Times,serif" font-size="14.00">Merge JSONs for similar runs</text>
</g>
<!-- Save BbyB Bragg &amp; S(Q)&#45;&gt;Merge JSONs for similar runs -->
<g id="edge55" class="edge">
<title>Save BbyB Bragg &amp; S(Q)&#45;&gt;Merge JSONs for similar runs</title>
<path fill="none" stroke="black" d="M971.99,-465.81C971.99,-457.79 971.99,-448.05 971.99,-439.07"/>
<polygon fill="black" stroke="black" points="975.49,-439.03 971.99,-429.03 968.49,-439.03 975.49,-439.03"/>
</g>
<!-- apf_1&#45;&gt;input_json_TSR -->
<g id="edge54" class="edge">
<title>apf_1&#45;&gt;input_json_TSR</title>
<path fill="none" stroke="black" d="M1175.49,-502C1179.51,-535.25 1184.14,-610.17 1153.99,-662 1146.32,-675.18 1134.01,-686.02 1121.55,-694.44"/>
<polygon fill="black" stroke="black" points="1119.54,-691.57 1112.97,-699.88 1123.29,-697.49 1119.54,-691.57"/>
</g>
<!-- For all merged JSONs -->
<g id="node45" class="node">
<title>For all merged JSONs</title>
<ellipse fill="none" stroke="black" cx="971.99" cy="-338" rx="111.58" ry="18"/>
<text text-anchor="middle" x="971.99" y="-334.3" font-family="Times,serif" font-size="14.00">For all merged JSONs</text>
</g>
<!-- Merge JSONs for similar runs&#45;&gt;For all merged JSONs -->
<g id="edge56" class="edge">
<title>Merge JSONs for similar runs&#45;&gt;For all merged JSONs</title>
<path fill="none" stroke="black" d="M971.99,-392.81C971.99,-384.79 971.99,-375.05 971.99,-366.07"/>
<polygon fill="black" stroke="black" points="975.49,-366.03 971.99,-356.03 968.49,-366.03 975.49,-366.03"/>
</g>
<!-- Sample title same as current? -->
<g id="node46" class="node">
<title>Sample title same as current?</title>
<ellipse fill="none" stroke="black" cx="971.99" cy="-265" rx="150.27" ry="18"/>
<text text-anchor="middle" x="971.99" y="-261.3" font-family="Times,serif" font-size="14.00">Sample title same as current?</text>
</g>
<!-- For all merged JSONs&#45;&gt;Sample title same as current? -->
<g id="edge57" class="edge">
<title>For all merged JSONs&#45;&gt;Sample title same as current?</title>
<path fill="none" stroke="black" d="M971.99,-319.81C971.99,-311.79 971.99,-302.05 971.99,-293.07"/>
<polygon fill="black" stroke="black" points="975.49,-293.03 971.99,-283.03 968.49,-293.03 975.49,-293.03"/>
</g>
<!-- Run merged JSON -->
<g id="node47" class="node">
<title>Run merged JSON</title>
<ellipse fill="none" stroke="black" cx="888.99" cy="-91" rx="95.58" ry="18"/>
<text text-anchor="middle" x="888.99" y="-87.3" font-family="Times,serif" font-size="14.00">Run merged JSON</text>
</g>
<!-- Sample title same as current?&#45;&gt;Run merged JSON -->
<g id="edge58" class="edge">
<title>Sample title same as current?&#45;&gt;Run merged JSON</title>
<path fill="none" stroke="black" d="M945.36,-247.22C928.69,-235.15 908.46,-217.29 897.99,-196 886.23,-172.07 885.01,-141.29 886.11,-119.44"/>
<polygon fill="black" stroke="black" points="889.62,-119.43 886.82,-109.21 882.63,-118.94 889.62,-119.43"/>
<text text-anchor="middle" x="912.49" y="-174.3" font-family="Times,serif" font-size="14.00"> Yes</text>
</g>
<!-- Merged JSON ever run before? -->
<g id="node48" class="node">
<title>Merged JSON ever run before?</title>
<ellipse fill="none" stroke="black" cx="1090.99" cy="-178" rx="154.87" ry="18"/>
<text text-anchor="middle" x="1090.99" y="-174.3" font-family="Times,serif" font-size="14.00">Merged JSON ever run before?</text>
</g>
<!-- Sample title same as current?&#45;&gt;Merged JSON ever run before? -->
<g id="edge59" class="edge">
<title>Sample title same as current?&#45;&gt;Merged JSON ever run before?</title>
<path fill="none" stroke="black" d="M995.5,-247.21C1013.64,-234.25 1038.92,-216.19 1058.91,-201.91"/>
<polygon fill="black" stroke="black" points="1061.02,-204.71 1067.12,-196.05 1056.95,-199.01 1061.02,-204.71"/>
<text text-anchor="middle" x="1050.49" y="-217.8" font-family="Times,serif" font-size="14.00"> No</text>
</g>
<!-- Run merged JSON&#45;&gt;For all merged JSONs -->
<g id="edge62" class="edge">
<title>Run merged JSON&#45;&gt;For all merged JSONs</title>
<path fill="none" stroke="black" d="M871.96,-108.92C838.78,-143.97 772.15,-225.99 812.99,-283 827.47,-303.2 849.94,-315.94 873.47,-323.94"/>
<polygon fill="black" stroke="black" points="872.65,-327.35 883.24,-326.99 874.73,-320.67 872.65,-327.35"/>
</g>
<!-- Merge all merged JSON to table -->
<g id="node49" class="node">
<title>Merge all merged JSON to table</title>
<ellipse fill="none" stroke="red" cx="888.99" cy="-18" rx="159.77" ry="18"/>
<text text-anchor="middle" x="888.99" y="-14.3" font-family="Times,serif" font-size="14.00">Merge all merged JSON to table</text>
</g>
<!-- Run merged JSON&#45;&gt;Merge all merged JSON to table -->
<g id="edge63" class="edge">
<title>Run merged JSON&#45;&gt;Merge all merged JSON to table</title>
<path fill="none" stroke="black" d="M888.99,-72.81C888.99,-64.79 888.99,-55.05 888.99,-46.07"/>
<polygon fill="black" stroke="black" points="892.49,-46.03 888.99,-36.03 885.49,-46.03 892.49,-46.03"/>
</g>
<!-- Merged JSON ever run before?&#45;&gt;For all merged JSONs -->
<g id="edge60" class="edge">
<title>Merged JSON ever run before?&#45;&gt;For all merged JSONs</title>
<path fill="none" stroke="black" d="M1107.03,-196.13C1125.36,-217.86 1150.48,-255.8 1130.99,-283 1116.52,-303.2 1094.05,-315.94 1070.52,-323.94"/>
<polygon fill="black" stroke="black" points="1069.25,-320.67 1060.75,-326.99 1071.34,-327.35 1069.25,-320.67"/>
<text text-anchor="middle" x="1150.49" y="-261.3" font-family="Times,serif" font-size="14.00"> No</text>
</g>
<!-- Merged JSON ever run before?&#45;&gt;Run merged JSON -->
<g id="edge61" class="edge">
<title>Merged JSON ever run before?&#45;&gt;Run merged JSON</title>
<path fill="none" stroke="black" d="M1051.56,-160.41C1018.4,-146.45 970.91,-126.47 935.82,-111.71"/>
<polygon fill="black" stroke="black" points="936.85,-108.34 926.27,-107.69 934.13,-114.79 936.85,-108.34"/>
<text text-anchor="middle" x="1016.49" y="-130.8" font-family="Times,serif" font-size="14.00"> Yes</text>
</g>
</g>
</svg>
