<?xml version="1.0" encoding="UTF-8" standalone="no"?>
<!DOCTYPE svg PUBLIC "-//W3C//DTD SVG 1.1//EN"
 "http://www.w3.org/Graphics/SVG/1.1/DTD/svg11.dtd">
<!-- Generated by graphviz version 2.43.0 (0)
 -->
<!-- Title: G Pages: 1 -->
<svg width="1409pt" height="1372pt"
 viewBox="0.00 0.00 1408.88 1372.00" xmlns="http://www.w3.org/2000/svg" xmlns:xlink="http://www.w3.org/1999/xlink">
<g id="graph0" class="graph" transform="scale(1 1) rotate(0) translate(4 1368)">
<title>G</title>
<polygon fill="white" stroke="transparent" points="-4,4 -4,-1368 1404.88,-1368 1404.88,4 -4,4"/>
<!-- Data File -->
<g id="node1" class="node">
<title>Data File</title>
<ellipse fill="none" stroke="blue" cx="53.3" cy="-1346" rx="53.09" ry="18"/>
<text text-anchor="middle" x="53.3" y="-1342.3" font-family="Times,serif" font-size="14.00">Data File</text>
</g>
<!-- NOMAD AutoRed -->
<g id="node2" class="node">
<title>NOMAD AutoRed</title>
<ellipse fill="none" stroke="red" cx="120.3" cy="-1273" rx="90.98" ry="18"/>
<text text-anchor="middle" x="120.3" y="-1269.3" font-family="Times,serif" font-size="14.00">NOMAD AutoRed</text>
</g>
<!-- Data File&#45;&gt;NOMAD AutoRed -->
<g id="edge1" class="edge">
<title>Data File&#45;&gt;NOMAD AutoRed</title>
<path fill="none" stroke="black" d="M68.83,-1328.53C77.34,-1319.52 88.03,-1308.19 97.46,-1298.19"/>
<polygon fill="black" stroke="black" points="100.06,-1300.55 104.37,-1290.87 94.97,-1295.74 100.06,-1300.55"/>
</g>
<!-- Figure out IPTS &amp; sample ID -->
<g id="node4" class="node">
<title>Figure out IPTS &amp; sample ID</title>
<ellipse fill="none" stroke="red" cx="201.3" cy="-1200" rx="145.67" ry="18"/>
<text text-anchor="middle" x="201.3" y="-1196.3" font-family="Times,serif" font-size="14.00">Figure out IPTS &amp; sample ID</text>
</g>
<!-- NOMAD AutoRed&#45;&gt;Figure out IPTS &amp; sample ID -->
<g id="edge3" class="edge">
<title>NOMAD AutoRed&#45;&gt;Figure out IPTS &amp; sample ID</title>
<path fill="none" stroke="black" d="M139.49,-1255.17C149.91,-1246.04 162.95,-1234.61 174.37,-1224.61"/>
<polygon fill="black" stroke="black" points="176.74,-1227.17 181.96,-1217.95 172.13,-1221.91 176.74,-1227.17"/>
</g>
<!-- Output Dir. -->
<g id="node3" class="node">
<title>Output Dir.</title>
<ellipse fill="none" stroke="green" cx="187.3" cy="-1346" rx="63.09" ry="18"/>
<text text-anchor="middle" x="187.3" y="-1342.3" font-family="Times,serif" font-size="14.00">Output Dir.</text>
</g>
<!-- Output Dir.&#45;&gt;NOMAD AutoRed -->
<g id="edge2" class="edge">
<title>Output Dir.&#45;&gt;NOMAD AutoRed</title>
<path fill="none" stroke="black" d="M171.76,-1328.53C163.25,-1319.52 152.56,-1308.19 143.13,-1298.19"/>
<polygon fill="black" stroke="black" points="145.62,-1295.74 136.22,-1290.87 140.53,-1300.55 145.62,-1295.74"/>
</g>
<!-- IPTS -->
<g id="node6" class="node">
<title>IPTS</title>
<ellipse fill="none" stroke="green" cx="101.3" cy="-1127" rx="32.49" ry="18"/>
<text text-anchor="middle" x="101.3" y="-1123.3" font-family="Times,serif" font-size="14.00">IPTS</text>
</g>
<!-- Figure out IPTS &amp; sample ID&#45;&gt;IPTS -->
<g id="edge5" class="edge">
<title>Figure out IPTS &amp; sample ID&#45;&gt;IPTS</title>
<path fill="none" stroke="black" d="M177.6,-1182.17C163.02,-1171.82 144.26,-1158.51 129,-1147.67"/>
<polygon fill="black" stroke="black" points="130.65,-1144.55 120.47,-1141.61 126.6,-1150.26 130.65,-1144.55"/>
</g>
<!-- Sample ID -->
<g id="node7" class="node">
<title>Sample ID</title>
<ellipse fill="none" stroke="blue" cx="211.3" cy="-1127" rx="59.29" ry="18"/>
<text text-anchor="middle" x="211.3" y="-1123.3" font-family="Times,serif" font-size="14.00">Sample ID</text>
</g>
<!-- Figure out IPTS &amp; sample ID&#45;&gt;Sample ID -->
<g id="edge6" class="edge">
<title>Figure out IPTS &amp; sample ID&#45;&gt;Sample ID</title>
<path fill="none" stroke="black" d="M203.72,-1181.81C204.85,-1173.79 206.22,-1164.05 207.48,-1155.07"/>
<polygon fill="black" stroke="black" points="210.97,-1155.42 208.9,-1145.03 204.04,-1154.44 210.97,-1155.42"/>
</g>
<!-- Grab characterization runs -->
<g id="node8" class="node">
<title>Grab characterization runs</title>
<ellipse fill="none" stroke="red" cx="444.3" cy="-1127" rx="135.68" ry="18"/>
<text text-anchor="middle" x="444.3" y="-1123.3" font-family="Times,serif" font-size="14.00">Grab characterization runs</text>
</g>
<!-- Figure out IPTS &amp; sample ID&#45;&gt;Grab characterization runs -->
<g id="edge7" class="edge">
<title>Figure out IPTS &amp; sample ID&#45;&gt;Grab characterization runs</title>
<path fill="none" stroke="black" d="M255.22,-1183.24C292.48,-1172.36 342.15,-1157.84 381.24,-1146.42"/>
<polygon fill="black" stroke="black" points="382.32,-1149.76 390.94,-1143.59 380.35,-1143.04 382.32,-1149.76"/>
</g>
<!-- df_1 -->
<g id="node5" class="node">
<title>df_1</title>
<ellipse fill="none" stroke="blue" cx="282.3" cy="-1273" rx="53.09" ry="18"/>
<text text-anchor="middle" x="282.3" y="-1269.3" font-family="Times,serif" font-size="14.00">Data File</text>
</g>
<!-- df_1&#45;&gt;Figure out IPTS &amp; sample ID -->
<g id="edge4" class="edge">
<title>df_1&#45;&gt;Figure out IPTS &amp; sample ID</title>
<path fill="none" stroke="black" d="M263.92,-1255.89C253.45,-1246.71 240.14,-1235.05 228.48,-1224.83"/>
<polygon fill="black" stroke="black" points="230.56,-1222 220.73,-1218.04 225.95,-1227.26 230.56,-1222"/>
</g>
<!-- MTC runs -->
<g id="node10" class="node">
<title>MTC runs</title>
<ellipse fill="none" stroke="green" cx="505.3" cy="-1054" rx="56.59" ry="18"/>
<text text-anchor="middle" x="505.3" y="-1050.3" font-family="Times,serif" font-size="14.00">MTC runs</text>
</g>
<!-- Grab characterization runs&#45;&gt;MTC runs -->
<g id="edge9" class="edge">
<title>Grab characterization runs&#45;&gt;MTC runs</title>
<path fill="none" stroke="black" d="M459.06,-1108.81C466.66,-1099.96 476.06,-1089.02 484.4,-1079.32"/>
<polygon fill="black" stroke="black" points="487.22,-1081.41 491.08,-1071.54 481.91,-1076.84 487.22,-1081.41"/>
</g>
<!-- MT runs -->
<g id="node11" class="node">
<title>MT runs</title>
<ellipse fill="none" stroke="green" cx="380.3" cy="-1054" rx="50.09" ry="18"/>
<text text-anchor="middle" x="380.3" y="-1050.3" font-family="Times,serif" font-size="14.00">MT runs</text>
</g>
<!-- Grab characterization runs&#45;&gt;MT runs -->
<g id="edge10" class="edge">
<title>Grab characterization runs&#45;&gt;MT runs</title>
<path fill="none" stroke="black" d="M428.8,-1108.81C420.75,-1099.88 410.77,-1088.8 401.96,-1079.03"/>
<polygon fill="black" stroke="black" points="404.5,-1076.62 395.2,-1071.54 399.3,-1081.31 404.5,-1076.62"/>
</g>
<!-- Van runs -->
<g id="node12" class="node">
<title>Van runs</title>
<ellipse fill="none" stroke="green" cx="934.3" cy="-1054" rx="51.99" ry="18"/>
<text text-anchor="middle" x="934.3" y="-1050.3" font-family="Times,serif" font-size="14.00">Van runs</text>
</g>
<!-- Grab characterization runs&#45;&gt;Van runs -->
<g id="edge11" class="edge">
<title>Grab characterization runs&#45;&gt;Van runs</title>
<path fill="none" stroke="black" d="M555.23,-1116.54C642.28,-1108.04 766.22,-1093.54 873.3,-1072 877.66,-1071.12 882.16,-1070.1 886.66,-1068.99"/>
<polygon fill="black" stroke="black" points="887.62,-1072.36 896.43,-1066.48 885.87,-1065.58 887.62,-1072.36"/>
</g>
<!-- Calib file -->
<g id="node13" class="node">
<title>Calib file</title>
<ellipse fill="none" stroke="green" cx="260.3" cy="-1054" rx="51.99" ry="18"/>
<text text-anchor="middle" x="260.3" y="-1050.3" font-family="Times,serif" font-size="14.00">Calib file</text>
</g>
<!-- Grab characterization runs&#45;&gt;Calib file -->
<g id="edge12" class="edge">
<title>Grab characterization runs&#45;&gt;Calib file</title>
<path fill="none" stroke="black" d="M402.08,-1109.71C372.53,-1098.31 333.17,-1083.12 303.42,-1071.64"/>
<polygon fill="black" stroke="black" points="304.32,-1068.24 293.73,-1067.9 301.8,-1074.77 304.32,-1068.24"/>
</g>
<!-- cf_1 -->
<g id="node9" class="node">
<title>cf_1</title>
<ellipse fill="none" stroke="green" cx="454.3" cy="-1200" rx="89.88" ry="18"/>
<text text-anchor="middle" x="454.3" y="-1196.3" font-family="Times,serif" font-size="14.00">Cental config file</text>
</g>
<!-- cf_1&#45;&gt;Grab characterization runs -->
<g id="edge8" class="edge">
<title>cf_1&#45;&gt;Grab characterization runs</title>
<path fill="none" stroke="black" d="M451.87,-1181.81C450.74,-1173.79 449.37,-1164.05 448.11,-1155.07"/>
<polygon fill="black" stroke="black" points="451.55,-1154.44 446.69,-1145.03 444.62,-1155.42 451.55,-1154.44"/>
</g>
<!-- Prepare input JSON file -->
<g id="node15" class="node">
<title>Prepare input JSON file</title>
<ellipse fill="none" stroke="red" cx="643.3" cy="-981" rx="120.48" ry="18"/>
<text text-anchor="middle" x="643.3" y="-977.3" font-family="Times,serif" font-size="14.00">Prepare input JSON file</text>
</g>
<!-- MTC runs&#45;&gt;Prepare input JSON file -->
<g id="edge16" class="edge">
<title>MTC runs&#45;&gt;Prepare input JSON file</title>
<path fill="none" stroke="black" d="M533.89,-1038.29C553.65,-1028.12 580.23,-1014.45 602.24,-1003.12"/>
<polygon fill="black" stroke="black" points="604.07,-1006.12 611.36,-998.43 600.87,-999.89 604.07,-1006.12"/>
</g>
<!-- input_json_prep_2 -->
<g id="node28" class="node">
<title>input_json_prep_2</title>
<ellipse fill="none" stroke="red" cx="877.3" cy="-310" rx="120.48" ry="18"/>
<text text-anchor="middle" x="877.3" y="-306.3" font-family="Times,serif" font-size="14.00">Prepare input JSON file</text>
</g>
<!-- MTC runs&#45;&gt;input_json_prep_2 -->
<g id="edge32" class="edge">
<title>MTC runs&#45;&gt;input_json_prep_2</title>
<path fill="none" stroke="black" d="M501.51,-1035.88C498.68,-1021.56 495.3,-1000.55 495.3,-982 495.3,-982 495.3,-982 495.3,-382 495.3,-354.17 654.02,-332.72 766.85,-320.98"/>
<polygon fill="black" stroke="black" points="767.34,-324.45 776.93,-319.95 766.62,-317.49 767.34,-324.45"/>
</g>
<!-- MT runs&#45;&gt;Prepare input JSON file -->
<g id="edge17" class="edge">
<title>MT runs&#45;&gt;Prepare input JSON file</title>
<path fill="none" stroke="black" d="M418.03,-1041.99C425.09,-1039.97 432.41,-1037.9 439.3,-1036 484.71,-1023.45 535.97,-1009.88 575.75,-999.48"/>
<polygon fill="black" stroke="black" points="576.82,-1002.82 585.61,-996.91 575.05,-996.05 576.82,-1002.82"/>
</g>
<!-- MT runs&#45;&gt;input_json_prep_2 -->
<g id="edge33" class="edge">
<title>MT runs&#45;&gt;input_json_prep_2</title>
<path fill="none" stroke="black" d="M385.59,-1035.97C389.55,-1021.7 394.3,-1000.72 394.3,-982 394.3,-982 394.3,-982 394.3,-382 394.3,-345.58 612.01,-326.06 755.1,-317.16"/>
<polygon fill="black" stroke="black" points="755.5,-320.65 765.27,-316.54 755.08,-313.66 755.5,-320.65"/>
</g>
<!-- Van runs&#45;&gt;Prepare input JSON file -->
<g id="edge19" class="edge">
<title>Van runs&#45;&gt;Prepare input JSON file</title>
<path fill="none" stroke="black" d="M895.31,-1041.88C888.01,-1039.87 880.43,-1037.83 873.3,-1036 821.4,-1022.68 762.58,-1008.9 717.42,-998.59"/>
<polygon fill="black" stroke="black" points="717.94,-995.12 707.42,-996.31 716.39,-1001.94 717.94,-995.12"/>
</g>
<!-- Van runs&#45;&gt;input_json_prep_2 -->
<g id="edge34" class="edge">
<title>Van runs&#45;&gt;input_json_prep_2</title>
<path fill="none" stroke="black" d="M923.93,-1036.17C916.32,-1022.2 907.3,-1001.52 907.3,-982 907.3,-982 907.3,-982 907.3,-382 907.3,-366.17 900.89,-349.81 894,-336.79"/>
<polygon fill="black" stroke="black" points="896.96,-334.92 888.98,-327.96 890.88,-338.38 896.96,-334.92"/>
</g>
<!-- Calib file&#45;&gt;Prepare input JSON file -->
<g id="edge20" class="edge">
<title>Calib file&#45;&gt;Prepare input JSON file</title>
<path fill="none" stroke="black" d="M298.54,-1041.68C306.05,-1039.64 313.89,-1037.65 321.3,-1036 396.92,-1019.17 483.59,-1004.92 547.94,-995.29"/>
<polygon fill="black" stroke="black" points="548.7,-998.71 558.08,-993.78 547.67,-991.79 548.7,-998.71"/>
</g>
<!-- Calib file&#45;&gt;input_json_prep_2 -->
<g id="edge35" class="edge">
<title>Calib file&#45;&gt;input_json_prep_2</title>
<path fill="none" stroke="black" d="M272.58,-1036.44C281.6,-1022.61 292.3,-1002.01 292.3,-982 292.3,-982 292.3,-982 292.3,-382 292.3,-336.33 576.93,-319.83 749.11,-314.02"/>
<polygon fill="black" stroke="black" points="749.38,-317.52 759.26,-313.69 749.15,-310.52 749.38,-317.52"/>
</g>
<!-- df_2 -->
<g id="node14" class="node">
<title>df_2</title>
<ellipse fill="none" stroke="blue" cx="633.3" cy="-1054" rx="53.09" ry="18"/>
<text text-anchor="middle" x="633.3" y="-1050.3" font-family="Times,serif" font-size="14.00">Data File</text>
</g>
<!-- df_2&#45;&gt;Prepare input JSON file -->
<g id="edge13" class="edge">
<title>df_2&#45;&gt;Prepare input JSON file</title>
<path fill="none" stroke="black" d="M635.72,-1035.81C636.85,-1027.79 638.22,-1018.05 639.48,-1009.07"/>
<polygon fill="black" stroke="black" points="642.97,-1009.42 640.9,-999.03 636.04,-1008.44 642.97,-1009.42"/>
</g>
<!-- Input JSON for TSR -->
<g id="node19" class="node">
<title>Input JSON for TSR</title>
<ellipse fill="none" stroke="green" cx="691.3" cy="-908" rx="101.28" ry="18"/>
<text text-anchor="middle" x="691.3" y="-904.3" font-family="Times,serif" font-size="14.00">Input JSON for TSR</text>
</g>
<!-- Prepare input JSON file&#45;&gt;Input JSON for TSR -->
<g id="edge21" class="edge">
<title>Prepare input JSON file&#45;&gt;Input JSON for TSR</title>
<path fill="none" stroke="black" d="M654.91,-962.81C660.69,-954.27 667.79,-943.77 674.18,-934.32"/>
<polygon fill="black" stroke="black" points="677.08,-936.27 679.78,-926.03 671.28,-932.35 677.08,-936.27"/>
</g>
<!-- sc_2 -->
<g id="node16" class="node">
<title>sc_2</title>
<ellipse fill="none" stroke="green" cx="1103.3" cy="-1054" rx="98.58" ry="18"/>
<text text-anchor="middle" x="1103.3" y="-1050.3" font-family="Times,serif" font-size="14.00">Samle composition</text>
</g>
<!-- sc_2&#45;&gt;Prepare input JSON file -->
<g id="edge14" class="edge">
<title>sc_2&#45;&gt;Prepare input JSON file</title>
<path fill="none" stroke="black" d="M1031.27,-1041.62C1019.25,-1039.74 1006.92,-1037.81 995.3,-1036 906.79,-1022.25 805.72,-1006.76 734.66,-995.92"/>
<polygon fill="black" stroke="black" points="734.81,-992.4 724.4,-994.35 733.76,-999.32 734.81,-992.4"/>
</g>
<!-- sc_2&#45;&gt;input_json_prep_2 -->
<g id="edge38" class="edge">
<title>sc_2&#45;&gt;input_json_prep_2</title>
<path fill="none" stroke="black" d="M1024.31,-1043.04C989.91,-1033.83 957.3,-1016.1 957.3,-982 957.3,-982 957.3,-982 957.3,-382 957.3,-360.78 941.35,-344.35 923.69,-332.67"/>
<polygon fill="black" stroke="black" points="925.31,-329.55 914.95,-327.32 921.65,-335.52 925.31,-329.55"/>
</g>
<!-- sid_2 -->
<g id="node17" class="node">
<title>sid_2</title>
<ellipse fill="none" stroke="blue" cx="1103.3" cy="-1127" rx="53.09" ry="18"/>
<text text-anchor="middle" x="1103.3" y="-1123.3" font-family="Times,serif" font-size="14.00">Samle ID</text>
</g>
<!-- sid_2&#45;&gt;sc_2 -->
<g id="edge15" class="edge">
<title>sid_2&#45;&gt;sc_2</title>
<path fill="none" stroke="black" d="M1103.3,-1108.81C1103.3,-1100.79 1103.3,-1091.05 1103.3,-1082.07"/>
<polygon fill="black" stroke="black" points="1106.8,-1082.03 1103.3,-1072.03 1099.8,-1082.03 1106.8,-1082.03"/>
</g>
<!-- JSON template -->
<g id="node18" class="node">
<title>JSON template</title>
<ellipse fill="none" stroke="green" cx="784.3" cy="-1054" rx="79.89" ry="18"/>
<text text-anchor="middle" x="784.3" y="-1050.3" font-family="Times,serif" font-size="14.00">JSON template</text>
</g>
<!-- JSON template&#45;&gt;Prepare input JSON file -->
<g id="edge18" class="edge">
<title>JSON template&#45;&gt;Prepare input JSON file</title>
<path fill="none" stroke="black" d="M753,-1037.24C732.98,-1027.16 706.78,-1013.97 685,-1003"/>
<polygon fill="black" stroke="black" points="686.48,-999.82 675.97,-998.45 683.33,-1006.08 686.48,-999.82"/>
</g>
<!-- TotalScatteringReduction (TSR) -->
<g id="node20" class="node">
<title>TotalScatteringReduction (TSR)</title>
<ellipse fill="none" stroke="red" cx="720.3" cy="-835" rx="158.67" ry="18"/>
<text text-anchor="middle" x="720.3" y="-831.3" font-family="Times,serif" font-size="14.00">TotalScatteringReduction (TSR)</text>
</g>
<!-- Input JSON for TSR&#45;&gt;TotalScatteringReduction (TSR) -->
<g id="edge22" class="edge">
<title>Input JSON for TSR&#45;&gt;TotalScatteringReduction (TSR)</title>
<path fill="none" stroke="black" d="M698.32,-889.81C701.66,-881.62 705.74,-871.62 709.48,-862.48"/>
<polygon fill="black" stroke="black" points="712.8,-863.61 713.34,-853.03 706.32,-860.96 712.8,-863.61"/>
</g>
<!-- S(Q) wksp -->
<g id="node21" class="node">
<title>S(Q) wksp</title>
<ellipse fill="none" stroke="blue" cx="720.3" cy="-762" rx="57.69" ry="18"/>
<text text-anchor="middle" x="720.3" y="-758.3" font-family="Times,serif" font-size="14.00">S(Q) wksp</text>
</g>
<!-- TotalScatteringReduction (TSR)&#45;&gt;S(Q) wksp -->
<g id="edge23" class="edge">
<title>TotalScatteringReduction (TSR)&#45;&gt;S(Q) wksp</title>
<path fill="none" stroke="black" d="M720.3,-816.81C720.3,-808.79 720.3,-799.05 720.3,-790.07"/>
<polygon fill="black" stroke="black" points="723.8,-790.03 720.3,-780.03 716.8,-790.03 723.8,-790.03"/>
</g>
<!-- Packing fraction converged? -->
<g id="node22" class="node">
<title>Packing fraction converged?</title>
<ellipse fill="none" stroke="black" cx="720.3" cy="-689" rx="141.88" ry="18"/>
<text text-anchor="middle" x="720.3" y="-685.3" font-family="Times,serif" font-size="14.00">Packing fraction converged?</text>
</g>
<!-- S(Q) wksp&#45;&gt;Packing fraction converged? -->
<g id="edge24" class="edge">
<title>S(Q) wksp&#45;&gt;Packing fraction converged?</title>
<path fill="none" stroke="black" d="M720.3,-743.81C720.3,-735.79 720.3,-726.05 720.3,-717.07"/>
<polygon fill="black" stroke="black" points="723.8,-717.03 720.3,-707.03 716.8,-717.03 723.8,-717.03"/>
</g>
<!-- Save processed S(Q) -->
<g id="node23" class="node">
<title>Save processed S(Q)</title>
<ellipse fill="none" stroke="red" cx="763.3" cy="-602" rx="106.68" ry="18"/>
<text text-anchor="middle" x="763.3" y="-598.3" font-family="Times,serif" font-size="14.00">Save processed S(Q)</text>
</g>
<!-- Packing fraction converged?&#45;&gt;Save processed S(Q) -->
<g id="edge25" class="edge">
<title>Packing fraction converged?&#45;&gt;Save processed S(Q)</title>
<path fill="none" stroke="black" d="M729,-670.8C735,-658.93 743.1,-642.93 749.92,-629.45"/>
<polygon fill="black" stroke="black" points="753.22,-630.68 754.61,-620.18 746.97,-627.52 753.22,-630.68"/>
<text text-anchor="middle" x="761.3" y="-641.8" font-family="Times,serif" font-size="14.00"> &#160;Yes</text>
</g>
<!-- Adjust PF -->
<g id="node25" class="node">
<title>Adjust PF</title>
<ellipse fill="none" stroke="black" cx="580.3" cy="-602" rx="55.79" ry="18"/>
<text text-anchor="middle" x="580.3" y="-598.3" font-family="Times,serif" font-size="14.00">Adjust PF</text>
</g>
<!-- Packing fraction converged?&#45;&gt;Adjust PF -->
<g id="edge27" class="edge">
<title>Packing fraction converged?&#45;&gt;Adjust PF</title>
<path fill="none" stroke="black" d="M692.64,-671.21C670.17,-657.56 638.37,-638.26 614.34,-623.67"/>
<polygon fill="black" stroke="black" points="615.91,-620.53 605.54,-618.33 612.28,-626.51 615.91,-620.53"/>
<text text-anchor="middle" x="673.3" y="-641.8" font-family="Times,serif" font-size="14.00"> &#160;No</text>
</g>
<!-- PDFFourierTransform -->
<g id="node24" class="node">
<title>PDFFourierTransform</title>
<ellipse fill="none" stroke="red" cx="766.3" cy="-529" rx="113.18" ry="18"/>
<text text-anchor="middle" x="766.3" y="-525.3" font-family="Times,serif" font-size="14.00">PDFFourierTransform</text>
</g>
<!-- Save processed S(Q)&#45;&gt;PDFFourierTransform -->
<g id="edge26" class="edge">
<title>Save processed S(Q)&#45;&gt;PDFFourierTransform</title>
<path fill="none" stroke="black" d="M764.02,-583.81C764.36,-575.79 764.77,-566.05 765.15,-557.07"/>
<polygon fill="black" stroke="black" points="768.65,-557.17 765.58,-547.03 761.66,-556.87 768.65,-557.17"/>
</g>
<!-- PDF wksp -->
<g id="node26" class="node">
<title>PDF wksp</title>
<ellipse fill="none" stroke="blue" cx="774.3" cy="-456" rx="57.69" ry="18"/>
<text text-anchor="middle" x="774.3" y="-452.3" font-family="Times,serif" font-size="14.00">PDF wksp</text>
</g>
<!-- PDFFourierTransform&#45;&gt;PDF wksp -->
<g id="edge29" class="edge">
<title>PDFFourierTransform&#45;&gt;PDF wksp</title>
<path fill="none" stroke="black" d="M768.23,-510.81C769.14,-502.79 770.23,-493.05 771.25,-484.07"/>
<polygon fill="black" stroke="black" points="774.73,-484.36 772.38,-474.03 767.78,-483.57 774.73,-484.36"/>
</g>
<!-- Adjust PF&#45;&gt;Prepare input JSON file -->
<g id="edge28" class="edge">
<title>Adjust PF&#45;&gt;Prepare input JSON file</title>
<path fill="none" stroke="black" d="M564.64,-619.43C550.97,-635.55 533.3,-661.53 533.3,-688 533.3,-909 533.3,-909 533.3,-909 533.3,-933.78 553.25,-950.33 576.16,-961.17"/>
<polygon fill="black" stroke="black" points="574.83,-964.41 585.4,-965.19 577.62,-957.99 574.83,-964.41"/>
</g>
<!-- SavePDFGui -->
<g id="node27" class="node">
<title>SavePDFGui</title>
<ellipse fill="none" stroke="red" cx="798.3" cy="-383" rx="69.59" ry="18"/>
<text text-anchor="middle" x="798.3" y="-379.3" font-family="Times,serif" font-size="14.00">SavePDFGui</text>
</g>
<!-- PDF wksp&#45;&gt;SavePDFGui -->
<g id="edge30" class="edge">
<title>PDF wksp&#45;&gt;SavePDFGui</title>
<path fill="none" stroke="black" d="M780.11,-437.81C782.85,-429.7 786.18,-419.84 789.24,-410.78"/>
<polygon fill="black" stroke="black" points="792.65,-411.62 792.54,-401.03 786.02,-409.38 792.65,-411.62"/>
</g>
<!-- SavePDFGui&#45;&gt;input_json_prep_2 -->
<g id="edge31" class="edge">
<title>SavePDFGui&#45;&gt;input_json_prep_2</title>
<path fill="none" stroke="black" d="M816.62,-365.53C826.84,-356.35 839.75,-344.75 851.03,-334.61"/>
<polygon fill="black" stroke="black" points="853.43,-337.16 858.52,-327.87 848.75,-331.95 853.43,-337.16"/>
</g>
<!-- input_json_TSR -->
<g id="node31" class="node">
<title>input_json_TSR</title>
<ellipse fill="none" stroke="green" cx="877.3" cy="-237" rx="101.28" ry="18"/>
<text text-anchor="middle" x="877.3" y="-233.3" font-family="Times,serif" font-size="14.00">Input JSON for TSR</text>
</g>
<!-- input_json_prep_2&#45;&gt;input_json_TSR -->
<g id="edge39" class="edge">
<title>input_json_prep_2&#45;&gt;input_json_TSR</title>
<path fill="none" stroke="black" d="M877.3,-291.81C877.3,-283.79 877.3,-274.05 877.3,-265.07"/>
<polygon fill="black" stroke="black" points="880.8,-265.03 877.3,-255.03 873.8,-265.03 880.8,-265.03"/>
</g>
<!-- df_3 -->
<g id="node29" class="node">
<title>df_3</title>
<ellipse fill="none" stroke="blue" cx="1038.3" cy="-383" rx="53.09" ry="18"/>
<text text-anchor="middle" x="1038.3" y="-379.3" font-family="Times,serif" font-size="14.00">Data File</text>
</g>
<!-- df_3&#45;&gt;input_json_prep_2 -->
<g id="edge36" class="edge">
<title>df_3&#45;&gt;input_json_prep_2</title>
<path fill="none" stroke="black" d="M1012.62,-367.14C1000.32,-360.3 985.25,-352.31 971.3,-346 959.03,-340.45 945.6,-335.06 932.83,-330.25"/>
<polygon fill="black" stroke="black" points="933.82,-326.88 923.22,-326.68 931.38,-333.44 933.82,-326.88"/>
</g>
<!-- JSON template for BbyB Gen -->
<g id="node30" class="node">
<title>JSON template for BbyB Gen</title>
<ellipse fill="none" stroke="green" cx="1255.3" cy="-383" rx="145.67" ry="18"/>
<text text-anchor="middle" x="1255.3" y="-379.3" font-family="Times,serif" font-size="14.00">JSON template for BbyB Gen</text>
</g>
<!-- JSON template for BbyB Gen&#45;&gt;input_json_prep_2 -->
<g id="edge37" class="edge">
<title>JSON template for BbyB Gen&#45;&gt;input_json_prep_2</title>
<path fill="none" stroke="black" d="M1178.8,-367.63C1114.99,-355.65 1024.27,-338.61 959.03,-326.35"/>
<polygon fill="black" stroke="black" points="959.67,-322.91 949.19,-324.5 958.38,-329.79 959.67,-322.91"/>
</g>
<!-- tsr_2 -->
<g id="node32" class="node">
<title>tsr_2</title>
<ellipse fill="none" stroke="red" cx="877.3" cy="-164" rx="158.67" ry="18"/>
<text text-anchor="middle" x="877.3" y="-160.3" font-family="Times,serif" font-size="14.00">TotalScatteringReduction (TSR)</text>
</g>
<!-- input_json_TSR&#45;&gt;tsr_2 -->
<g id="edge40" class="edge">
<title>input_json_TSR&#45;&gt;tsr_2</title>
<path fill="none" stroke="black" d="M877.3,-218.81C877.3,-210.79 877.3,-201.05 877.3,-192.07"/>
<polygon fill="black" stroke="black" points="880.8,-192.03 877.3,-182.03 873.8,-192.03 880.8,-192.03"/>
</g>
<!-- d&#45;space Bragg pattern -->
<g id="node33" class="node">
<title>d&#45;space Bragg pattern</title>
<ellipse fill="none" stroke="green" cx="877.3" cy="-91" rx="114.28" ry="18"/>
<text text-anchor="middle" x="877.3" y="-87.3" font-family="Times,serif" font-size="14.00">d&#45;space Bragg pattern</text>
</g>
<!-- tsr_2&#45;&gt;d&#45;space Bragg pattern -->
<g id="edge41" class="edge">
<title>tsr_2&#45;&gt;d&#45;space Bragg pattern</title>
<path fill="none" stroke="black" d="M877.3,-145.81C877.3,-137.79 877.3,-128.05 877.3,-119.07"/>
<polygon fill="black" stroke="black" points="880.8,-119.03 877.3,-109.03 873.8,-119.03 880.8,-119.03"/>
</g>
<!-- Save &amp; Send Plots -->
<g id="node34" class="node">
<title>Save &amp; Send Plots</title>
<ellipse fill="none" stroke="black" cx="1067.3" cy="-18" rx="96.68" ry="18"/>
<text text-anchor="middle" x="1067.3" y="-14.3" font-family="Times,serif" font-size="14.00">Save &amp; Send Plots</text>
</g>
<!-- d&#45;space Bragg pattern&#45;&gt;Save &amp; Send Plots -->
<g id="edge42" class="edge">
<title>d&#45;space Bragg pattern&#45;&gt;Save &amp; Send Plots</title>
<path fill="none" stroke="black" d="M919.46,-74.24C948.17,-63.52 986.31,-49.26 1016.67,-37.92"/>
<polygon fill="black" stroke="black" points="1018.08,-41.13 1026.23,-34.35 1015.63,-34.57 1018.08,-41.13"/>
</g>
<!-- sofq_wksp_1 -->
<g id="node35" class="node">
<title>sofq_wksp_1</title>
<ellipse fill="none" stroke="blue" cx="1067.3" cy="-91" rx="57.69" ry="18"/>
<text text-anchor="middle" x="1067.3" y="-87.3" font-family="Times,serif" font-size="14.00">S(Q) wksp</text>
</g>
<!-- sofq_wksp_1&#45;&gt;Save &amp; Send Plots -->
<g id="edge43" class="edge">
<title>sofq_wksp_1&#45;&gt;Save &amp; Send Plots</title>
<path fill="none" stroke="black" d="M1067.3,-72.81C1067.3,-64.79 1067.3,-55.05 1067.3,-46.07"/>
<polygon fill="black" stroke="black" points="1070.8,-46.03 1067.3,-36.03 1063.8,-46.03 1070.8,-46.03"/>
</g>
<!-- pdf_wksp_1 -->
<g id="node36" class="node">
<title>pdf_wksp_1</title>
<ellipse fill="none" stroke="blue" cx="1201.3" cy="-91" rx="57.69" ry="18"/>
<text text-anchor="middle" x="1201.3" y="-87.3" font-family="Times,serif" font-size="14.00">PDF wksp</text>
</g>
<!-- pdf_wksp_1&#45;&gt;Save &amp; Send Plots -->
<g id="edge44" class="edge">
<title>pdf_wksp_1&#45;&gt;Save &amp; Send Plots</title>
<path fill="none" stroke="black" d="M1173.2,-75.12C1153.86,-64.87 1127.91,-51.11 1106.53,-39.79"/>
<polygon fill="black" stroke="black" points="1108.16,-36.69 1097.68,-35.1 1104.88,-42.87 1108.16,-36.69"/>
</g>
</g>
</svg>
