<?xml version="1.0" encoding="UTF-8" standalone="no"?>
<!DOCTYPE svg PUBLIC "-//W3C//DTD SVG 1.1//EN"
 "http://www.w3.org/Graphics/SVG/1.1/DTD/svg11.dtd">
<!-- Generated by graphviz version 2.43.0 (0)
 -->
<!-- Title: G Pages: 1 -->
<svg width="712pt" height="545pt"
 viewBox="0.00 0.00 712.23 545.00" xmlns="http://www.w3.org/2000/svg" xmlns:xlink="http://www.w3.org/1999/xlink">
<g id="graph0" class="graph" transform="scale(1 1) rotate(0) translate(4 541)">
<title>G</title>
<polygon fill="white" stroke="transparent" points="-4,4 -4,-541 708.23,-541 708.23,4 -4,4"/>
<!-- Create absorption workspace -->
<g id="node1" class="node">
<title>Create absorption workspace</title>
<ellipse fill="none" stroke="red" cx="328.44" cy="-519" rx="146.77" ry="18"/>
<text text-anchor="middle" x="328.44" y="-515.3" font-family="Times,serif" font-size="14.00">Create absorption workspace</text>
</g>
<!-- Pixel by pixel absorption calculation -->
<g id="node2" class="node">
<title>Pixel by pixel absorption calculation</title>
<ellipse fill="none" stroke="black" cx="328.44" cy="-446" rx="178.97" ry="18"/>
<text text-anchor="middle" x="328.44" y="-442.3" font-family="Times,serif" font-size="14.00">Pixel by pixel absorption calculation</text>
</g>
<!-- Create absorption workspace&#45;&gt;Pixel by pixel absorption calculation -->
<g id="edge1" class="edge">
<title>Create absorption workspace&#45;&gt;Pixel by pixel absorption calculation</title>
<path fill="none" stroke="black" d="M328.44,-500.81C328.44,-492.79 328.44,-483.05 328.44,-474.07"/>
<polygon fill="black" stroke="black" points="331.94,-474.03 328.44,-464.03 324.94,-474.03 331.94,-474.03"/>
</g>
<!-- Group file exists? -->
<g id="node3" class="node">
<title>Group file exists?</title>
<ellipse fill="none" stroke="black" cx="328.44" cy="-373" rx="92.08" ry="18"/>
<text text-anchor="middle" x="328.44" y="-369.3" font-family="Times,serif" font-size="14.00">Group file exists?</text>
</g>
<!-- Pixel by pixel absorption calculation&#45;&gt;Group file exists? -->
<g id="edge2" class="edge">
<title>Pixel by pixel absorption calculation&#45;&gt;Group file exists?</title>
<path fill="none" stroke="black" d="M328.44,-427.81C328.44,-419.79 328.44,-410.05 328.44,-401.07"/>
<polygon fill="black" stroke="black" points="331.94,-401.03 328.44,-391.03 324.94,-401.03 331.94,-401.03"/>
</g>
<!-- regen_g_1 -->
<g id="node4" class="node">
<title>regen_g_1</title>
<ellipse fill="none" stroke="black" cx="244.44" cy="-286" rx="75.29" ry="18"/>
<text text-anchor="middle" x="244.44" y="-282.3" font-family="Times,serif" font-size="14.00">Regen group?</text>
</g>
<!-- Group file exists?&#45;&gt;regen_g_1 -->
<g id="edge3" class="edge">
<title>Group file exists?&#45;&gt;regen_g_1</title>
<path fill="none" stroke="black" d="M311.85,-355.21C299.42,-342.63 282.24,-325.25 268.34,-311.18"/>
<polygon fill="black" stroke="black" points="270.52,-308.41 261,-303.76 265.54,-313.33 270.52,-308.41"/>
<text text-anchor="middle" x="309.44" y="-325.8" font-family="Times,serif" font-size="14.00"> &#160;Yes</text>
</g>
<!-- regen_g_2 -->
<g id="node9" class="node">
<title>regen_g_2</title>
<ellipse fill="none" stroke="black" cx="413.44" cy="-286" rx="75.29" ry="18"/>
<text text-anchor="middle" x="413.44" y="-282.3" font-family="Times,serif" font-size="14.00">Regen group?</text>
</g>
<!-- Group file exists?&#45;&gt;regen_g_2 -->
<g id="edge9" class="edge">
<title>Group file exists?&#45;&gt;regen_g_2</title>
<path fill="none" stroke="black" d="M345.24,-355.21C357.81,-342.63 375.19,-325.25 389.26,-311.18"/>
<polygon fill="black" stroke="black" points="392.09,-313.3 396.68,-303.76 387.14,-308.35 392.09,-313.3"/>
<text text-anchor="middle" x="391.44" y="-325.8" font-family="Times,serif" font-size="14.00"> &#160;No</text>
</g>
<!-- Regenerate Groups -->
<g id="node5" class="node">
<title>Regenerate Groups</title>
<ellipse fill="none" stroke="black" cx="306.44" cy="-199" rx="100.98" ry="18"/>
<text text-anchor="middle" x="306.44" y="-195.3" font-family="Times,serif" font-size="14.00">Regenerate Groups</text>
</g>
<!-- regen_g_1&#45;&gt;Regenerate Groups -->
<g id="edge4" class="edge">
<title>regen_g_1&#45;&gt;Regenerate Groups</title>
<path fill="none" stroke="black" d="M256.69,-268.21C265.63,-255.95 277.91,-239.11 288.03,-225.24"/>
<polygon fill="black" stroke="black" points="290.94,-227.19 294.01,-217.05 285.29,-223.07 290.94,-227.19"/>
<text text-anchor="middle" x="296.44" y="-238.8" font-family="Times,serif" font-size="14.00"> &#160;Yes</text>
</g>
<!-- Group detectors -->
<g id="node8" class="node">
<title>Group detectors</title>
<ellipse fill="none" stroke="black" cx="86.44" cy="-145" rx="86.38" ry="18"/>
<text text-anchor="middle" x="86.44" y="-141.3" font-family="Times,serif" font-size="14.00">Group detectors</text>
</g>
<!-- regen_g_1&#45;&gt;Group detectors -->
<g id="edge7" class="edge">
<title>regen_g_1&#45;&gt;Group detectors</title>
<path fill="none" stroke="black" d="M225.7,-268.51C197.82,-243.98 145.28,-197.76 113.31,-169.64"/>
<polygon fill="black" stroke="black" points="115.48,-166.88 105.66,-162.9 110.85,-172.14 115.48,-166.88"/>
<text text-anchor="middle" x="220.44" y="-238.8" font-family="Times,serif" font-size="14.00"> &#160;No</text>
</g>
<!-- Group detectors, save detector grouping, etc. -->
<g id="node6" class="node">
<title>Group detectors, save detector grouping, etc.</title>
<ellipse fill="none" stroke="black" cx="306.44" cy="-91" rx="222.86" ry="18"/>
<text text-anchor="middle" x="306.44" y="-87.3" font-family="Times,serif" font-size="14.00">Group detectors, save detector grouping, etc.</text>
</g>
<!-- Regenerate Groups&#45;&gt;Group detectors, save detector grouping, etc. -->
<g id="edge5" class="edge">
<title>Regenerate Groups&#45;&gt;Group detectors, save detector grouping, etc.</title>
<path fill="none" stroke="black" d="M306.44,-180.97C306.44,-164.38 306.44,-138.88 306.44,-119.43"/>
<polygon fill="black" stroke="black" points="309.94,-119.34 306.44,-109.34 302.94,-119.34 309.94,-119.34"/>
</g>
<!-- Return absorption and group wksp -->
<g id="node7" class="node">
<title>Return absorption and group wksp</title>
<ellipse fill="none" stroke="green" cx="306.44" cy="-18" rx="172.77" ry="18"/>
<text text-anchor="middle" x="306.44" y="-14.3" font-family="Times,serif" font-size="14.00">Return absorption and group wksp</text>
</g>
<!-- Group detectors, save detector grouping, etc.&#45;&gt;Return absorption and group wksp -->
<g id="edge6" class="edge">
<title>Group detectors, save detector grouping, etc.&#45;&gt;Return absorption and group wksp</title>
<path fill="none" stroke="black" d="M306.44,-72.81C306.44,-64.79 306.44,-55.05 306.44,-46.07"/>
<polygon fill="black" stroke="black" points="309.94,-46.03 306.44,-36.03 302.94,-46.03 309.94,-46.03"/>
</g>
<!-- Group detectors&#45;&gt;Return absorption and group wksp -->
<g id="edge8" class="edge">
<title>Group detectors&#45;&gt;Return absorption and group wksp</title>
<path fill="none" stroke="black" d="M76.83,-126.95C69.42,-111.3 62.32,-88.27 74.44,-73 89.06,-54.59 136.43,-41.89 184.6,-33.45"/>
<polygon fill="black" stroke="black" points="185.27,-36.88 194.55,-31.76 184.11,-29.98 185.27,-36.88"/>
</g>
<!-- regen_g_2&#45;&gt;Regenerate Groups -->
<g id="edge10" class="edge">
<title>regen_g_2&#45;&gt;Regenerate Groups</title>
<path fill="none" stroke="black" d="M392.81,-268.61C376.49,-255.64 353.49,-237.38 335.34,-222.95"/>
<polygon fill="black" stroke="black" points="337.38,-220.11 327.37,-216.63 333.03,-225.59 337.38,-220.11"/>
<text text-anchor="middle" x="383.44" y="-238.8" font-family="Times,serif" font-size="14.00"> &#160;Yes</text>
</g>
<!-- Stay with pixel by pixel abs scheme -->
<g id="node10" class="node">
<title>Stay with pixel by pixel abs scheme</title>
<ellipse fill="none" stroke="black" cx="527.44" cy="-145" rx="176.57" ry="18"/>
<text text-anchor="middle" x="527.44" y="-141.3" font-family="Times,serif" font-size="14.00">Stay with pixel by pixel abs scheme</text>
</g>
<!-- regen_g_2&#45;&gt;Stay with pixel by pixel abs scheme -->
<g id="edge11" class="edge">
<title>regen_g_2&#45;&gt;Stay with pixel by pixel abs scheme</title>
<path fill="none" stroke="black" d="M427.19,-268.23C447.03,-244.05 483.81,-199.2 506.88,-171.07"/>
<polygon fill="black" stroke="black" points="509.65,-173.21 513.28,-163.26 504.24,-168.77 509.65,-173.21"/>
<text text-anchor="middle" x="468.44" y="-238.8" font-family="Times,serif" font-size="14.00"> &#160;No</text>
</g>
<!-- Stay with pixel by pixel abs scheme&#45;&gt;Return absorption and group wksp -->
<g id="edge12" class="edge">
<title>Stay with pixel by pixel abs scheme&#45;&gt;Return absorption and group wksp</title>
<path fill="none" stroke="black" d="M536.71,-126.94C543.81,-111.27 550.54,-88.24 538.44,-73 523.83,-54.59 476.45,-41.89 428.29,-33.45"/>
<polygon fill="black" stroke="black" points="428.78,-29.98 418.33,-31.76 427.61,-36.88 428.78,-29.98"/>
</g>
</g>
</svg>
