<?xml version="1.0" encoding="UTF-8" standalone="no"?>
<!DOCTYPE svg PUBLIC "-//W3C//DTD SVG 1.1//EN"
 "http://www.w3.org/Graphics/SVG/1.1/DTD/svg11.dtd">
<!-- Generated by graphviz version 2.43.0 (0)
 -->
<!-- Title: G Pages: 1 -->
<svg width="999pt" height="1519pt"
 viewBox="0.00 0.00 999.38 1519.00" xmlns="http://www.w3.org/2000/svg" xmlns:xlink="http://www.w3.org/1999/xlink">
<g id="graph0" class="graph" transform="scale(1 1) rotate(0) translate(4 1515)">
<title>G</title>
<polygon fill="white" stroke="transparent" points="-4,4 -4,-1515 995.38,-1515 995.38,4 -4,4"/>
<!-- Data loader -->
<g id="node1" class="node">
<title>Data loader</title>
<ellipse fill="none" stroke="red" cx="127.14" cy="-1493" rx="64.99" ry="18"/>
<text text-anchor="middle" x="127.14" y="-1489.3" font-family="Times,serif" font-size="14.00">Data loader</text>
</g>
<!-- group_wksp is None? -->
<g id="node2" class="node">
<title>group_wksp is None?</title>
<ellipse fill="none" stroke="green" cx="127.14" cy="-1420" rx="109.38" ry="18"/>
<text text-anchor="middle" x="127.14" y="-1416.3" font-family="Times,serif" font-size="14.00">group_wksp is None?</text>
</g>
<!-- Data loader&#45;&gt;group_wksp is None? -->
<g id="edge1" class="edge">
<title>Data loader&#45;&gt;group_wksp is None?</title>
<path fill="none" stroke="black" d="M127.14,-1474.81C127.14,-1466.79 127.14,-1457.05 127.14,-1448.07"/>
<polygon fill="black" stroke="black" points="130.64,-1448.03 127.14,-1438.03 123.64,-1448.03 130.64,-1448.03"/>
</g>
<!-- Summed cache exist? -->
<g id="node3" class="node">
<title>Summed cache exist?</title>
<ellipse fill="none" stroke="black" cx="111.14" cy="-846" rx="111.28" ry="18"/>
<text text-anchor="middle" x="111.14" y="-842.3" font-family="Times,serif" font-size="14.00">Summed cache exist?</text>
</g>
<!-- group_wksp is None?&#45;&gt;Summed cache exist? -->
<g id="edge2" class="edge">
<title>group_wksp is None?&#45;&gt;Summed cache exist?</title>
<path fill="none" stroke="black" d="M121.99,-1401.92C117.31,-1384.88 111.14,-1357.88 111.14,-1334 111.14,-1334 111.14,-1334 111.14,-918 111.14,-903.65 111.14,-887.67 111.14,-874.51"/>
<polygon fill="black" stroke="black" points="114.64,-874.22 111.14,-864.22 107.64,-874.22 114.64,-874.22"/>
<text text-anchor="middle" x="128.14" y="-1115.3" font-family="Times,serif" font-size="14.00"> &#160;Yes</text>
</g>
<!-- loop_runs_1 -->
<g id="node16" class="node">
<title>loop_runs_1</title>
<ellipse fill="none" stroke="black" cx="262.14" cy="-1333" rx="81.49" ry="18"/>
<text text-anchor="middle" x="262.14" y="-1329.3" font-family="Times,serif" font-size="14.00">For run in runs</text>
</g>
<!-- group_wksp is None?&#45;&gt;loop_runs_1 -->
<g id="edge18" class="edge">
<title>group_wksp is None?&#45;&gt;loop_runs_1</title>
<path fill="none" stroke="black" d="M153.49,-1402.41C174.72,-1389.04 204.73,-1370.15 227.83,-1355.6"/>
<polygon fill="black" stroke="black" points="229.72,-1358.55 236.32,-1350.26 225.99,-1352.63 229.72,-1358.55"/>
<text text-anchor="middle" x="218.14" y="-1372.8" font-family="Times,serif" font-size="14.00"> &#160;No</text>
</g>
<!-- Load summed cache -->
<g id="node4" class="node">
<title>Load summed cache</title>
<ellipse fill="none" stroke="black" cx="109.14" cy="-705" rx="104.78" ry="18"/>
<text text-anchor="middle" x="109.14" y="-701.3" font-family="Times,serif" font-size="14.00">Load summed cache</text>
</g>
<!-- Summed cache exist?&#45;&gt;Load summed cache -->
<g id="edge3" class="edge">
<title>Summed cache exist?&#45;&gt;Load summed cache</title>
<path fill="none" stroke="black" d="M110.89,-827.96C110.56,-804.4 109.94,-761.64 109.54,-733.53"/>
<polygon fill="black" stroke="black" points="113.03,-733.13 109.39,-723.18 106.03,-733.23 113.03,-733.13"/>
<text text-anchor="middle" x="128.14" y="-798.8" font-family="Times,serif" font-size="14.00"> &#160;Yes</text>
</g>
<!-- For run in runs -->
<g id="node7" class="node">
<title>For run in runs</title>
<ellipse fill="none" stroke="black" cx="229.14" cy="-759" rx="81.49" ry="18"/>
<text text-anchor="middle" x="229.14" y="-755.3" font-family="Times,serif" font-size="14.00">For run in runs</text>
</g>
<!-- Summed cache exist?&#45;&gt;For run in runs -->
<g id="edge6" class="edge">
<title>Summed cache exist?&#45;&gt;For run in runs</title>
<path fill="none" stroke="black" d="M134.45,-828.21C152.67,-815.08 178.16,-796.72 198.11,-782.35"/>
<polygon fill="black" stroke="black" points="200.21,-785.15 206.28,-776.47 196.12,-779.47 200.21,-785.15"/>
<text text-anchor="middle" x="193.14" y="-798.8" font-family="Times,serif" font-size="14.00"> &#160;No</text>
</g>
<!-- Normalize by current -->
<g id="node5" class="node">
<title>Normalize by current</title>
<ellipse fill="none" stroke="black" cx="305.14" cy="-91" rx="110.48" ry="18"/>
<text text-anchor="middle" x="305.14" y="-87.3" font-family="Times,serif" font-size="14.00">Normalize by current</text>
</g>
<!-- Load summed cache&#45;&gt;Normalize by current -->
<g id="edge4" class="edge">
<title>Load summed cache&#45;&gt;Normalize by current</title>
<path fill="none" stroke="black" d="M112.03,-686.8C114.99,-667.73 119.14,-636.01 119.14,-608.5 119.14,-608.5 119.14,-608.5 119.14,-163 119.14,-138.7 175.27,-119.67 225.85,-107.46"/>
<polygon fill="black" stroke="black" points="226.94,-110.8 235.88,-105.1 225.35,-103.98 226.94,-110.8"/>
</g>
<!-- Return summed wksp -->
<g id="node6" class="node">
<title>Return summed wksp</title>
<ellipse fill="none" stroke="black" cx="305.14" cy="-18" rx="112.38" ry="18"/>
<text text-anchor="middle" x="305.14" y="-14.3" font-family="Times,serif" font-size="14.00">Return summed wksp</text>
</g>
<!-- Normalize by current&#45;&gt;Return summed wksp -->
<g id="edge5" class="edge">
<title>Normalize by current&#45;&gt;Return summed wksp</title>
<path fill="none" stroke="black" d="M305.14,-72.81C305.14,-64.79 305.14,-55.05 305.14,-46.07"/>
<polygon fill="black" stroke="black" points="308.64,-46.03 305.14,-36.03 301.64,-46.03 308.64,-46.03"/>
</g>
<!-- Run cache exists? -->
<g id="node8" class="node">
<title>Run cache exists?</title>
<ellipse fill="none" stroke="black" cx="351.14" cy="-651" rx="93.68" ry="18"/>
<text text-anchor="middle" x="351.14" y="-647.3" font-family="Times,serif" font-size="14.00">Run cache exists?</text>
</g>
<!-- For run in runs&#45;&gt;Run cache exists? -->
<g id="edge7" class="edge">
<title>For run in runs&#45;&gt;Run cache exists?</title>
<path fill="none" stroke="black" d="M248.2,-741.44C268.59,-723.73 301.08,-695.5 324.1,-675.5"/>
<polygon fill="black" stroke="black" points="326.56,-678 331.81,-668.8 321.96,-672.71 326.56,-678"/>
</g>
<!-- Load run cache -->
<g id="node9" class="node">
<title>Load run cache</title>
<ellipse fill="none" stroke="black" cx="325.14" cy="-510" rx="81.49" ry="18"/>
<text text-anchor="middle" x="325.14" y="-506.3" font-family="Times,serif" font-size="14.00">Load run cache</text>
</g>
<!-- Run cache exists?&#45;&gt;Load run cache -->
<g id="edge8" class="edge">
<title>Run cache exists?&#45;&gt;Load run cache</title>
<path fill="none" stroke="black" d="M341.61,-633.02C334.67,-619.63 325.87,-600.23 322.14,-582 318.94,-566.32 321.46,-561.99 322.14,-546 322.25,-543.44 322.4,-540.78 322.59,-538.12"/>
<polygon fill="black" stroke="black" points="326.08,-538.32 323.38,-528.07 319.1,-537.76 326.08,-538.32"/>
<text text-anchor="middle" x="350.14" y="-603.8" font-family="Times,serif" font-size="14.00"> &#160;Yes</text>
</g>
<!-- Align and focus run -->
<g id="node12" class="node">
<title>Align and focus run</title>
<ellipse fill="none" stroke="black" cx="432.14" cy="-564" rx="100.98" ry="18"/>
<text text-anchor="middle" x="432.14" y="-560.3" font-family="Times,serif" font-size="14.00">Align and focus run</text>
</g>
<!-- Run cache exists?&#45;&gt;Align and focus run -->
<g id="edge11" class="edge">
<title>Run cache exists?&#45;&gt;Align and focus run</title>
<path fill="none" stroke="black" d="M367.14,-633.21C379.05,-620.72 395.47,-603.48 408.83,-589.46"/>
<polygon fill="black" stroke="black" points="411.53,-591.7 415.89,-582.05 406.46,-586.87 411.53,-591.7"/>
<text text-anchor="middle" x="412.14" y="-603.8" font-family="Times,serif" font-size="14.00"> &#160;No</text>
</g>
<!-- Accumulate run into runs -->
<g id="node10" class="node">
<title>Accumulate run into runs</title>
<ellipse fill="none" stroke="black" cx="305.14" cy="-237" rx="128.88" ry="18"/>
<text text-anchor="middle" x="305.14" y="-233.3" font-family="Times,serif" font-size="14.00">Accumulate run into runs</text>
</g>
<!-- Load run cache&#45;&gt;Accumulate run into runs -->
<g id="edge9" class="edge">
<title>Load run cache&#45;&gt;Accumulate run into runs</title>
<path fill="none" stroke="black" d="M318.92,-491.86C313.05,-474.13 305.14,-445.5 305.14,-420 305.14,-420 305.14,-420 305.14,-309 305.14,-294.65 305.14,-278.67 305.14,-265.51"/>
<polygon fill="black" stroke="black" points="308.64,-265.22 305.14,-255.22 301.64,-265.22 308.64,-265.22"/>
</g>
<!-- Accumulate run into runs&#45;&gt;For run in runs -->
<g id="edge16" class="edge">
<title>Accumulate run into runs&#45;&gt;For run in runs</title>
<path fill="none" stroke="black" d="M269.81,-254.52C249.96,-266.49 229.14,-284.8 229.14,-309 229.14,-652 229.14,-652 229.14,-652 229.14,-678.76 229.14,-709.33 229.14,-730.74"/>
<polygon fill="black" stroke="black" points="225.64,-730.74 229.14,-740.74 232.64,-730.74 225.64,-730.74"/>
</g>
<!-- Save summed cache -->
<g id="node11" class="node">
<title>Save summed cache</title>
<ellipse fill="none" stroke="black" cx="305.14" cy="-164" rx="104.78" ry="18"/>
<text text-anchor="middle" x="305.14" y="-160.3" font-family="Times,serif" font-size="14.00">Save summed cache</text>
</g>
<!-- Accumulate run into runs&#45;&gt;Save summed cache -->
<g id="edge10" class="edge">
<title>Accumulate run into runs&#45;&gt;Save summed cache</title>
<path fill="none" stroke="black" d="M305.14,-218.81C305.14,-210.79 305.14,-201.05 305.14,-192.07"/>
<polygon fill="black" stroke="black" points="308.64,-192.03 305.14,-182.03 301.64,-192.03 308.64,-192.03"/>
</g>
<!-- Save summed cache&#45;&gt;Normalize by current -->
<g id="edge17" class="edge">
<title>Save summed cache&#45;&gt;Normalize by current</title>
<path fill="none" stroke="black" d="M305.14,-145.81C305.14,-137.79 305.14,-128.05 305.14,-119.07"/>
<polygon fill="black" stroke="black" points="308.64,-119.03 305.14,-109.03 301.64,-119.03 308.64,-119.03"/>
</g>
<!-- Convert unit to Q -->
<g id="node13" class="node">
<title>Convert unit to Q</title>
<ellipse fill="none" stroke="black" cx="425.14" cy="-456" rx="91.78" ry="18"/>
<text text-anchor="middle" x="425.14" y="-452.3" font-family="Times,serif" font-size="14.00">Convert unit to Q</text>
</g>
<!-- Align and focus run&#45;&gt;Convert unit to Q -->
<g id="edge12" class="edge">
<title>Align and focus run&#45;&gt;Convert unit to Q</title>
<path fill="none" stroke="black" d="M431.02,-545.97C429.92,-529.38 428.24,-503.88 426.95,-484.43"/>
<polygon fill="black" stroke="black" points="430.44,-484.09 426.29,-474.34 423.45,-484.55 430.44,-484.09"/>
</g>
<!-- Rebin -->
<g id="node14" class="node">
<title>Rebin</title>
<ellipse fill="none" stroke="black" cx="423.14" cy="-383" rx="37.89" ry="18"/>
<text text-anchor="middle" x="423.14" y="-379.3" font-family="Times,serif" font-size="14.00">Rebin</text>
</g>
<!-- Convert unit to Q&#45;&gt;Rebin -->
<g id="edge13" class="edge">
<title>Convert unit to Q&#45;&gt;Rebin</title>
<path fill="none" stroke="black" d="M424.66,-437.81C424.43,-429.79 424.16,-420.05 423.9,-411.07"/>
<polygon fill="black" stroke="black" points="427.4,-410.93 423.62,-401.03 420.4,-411.12 427.4,-410.93"/>
</g>
<!-- Save run cache -->
<g id="node15" class="node">
<title>Save run cache</title>
<ellipse fill="none" stroke="black" cx="417.14" cy="-310" rx="81.49" ry="18"/>
<text text-anchor="middle" x="417.14" y="-306.3" font-family="Times,serif" font-size="14.00">Save run cache</text>
</g>
<!-- Rebin&#45;&gt;Save run cache -->
<g id="edge14" class="edge">
<title>Rebin&#45;&gt;Save run cache</title>
<path fill="none" stroke="black" d="M421.69,-364.81C421.01,-356.79 420.19,-347.05 419.43,-338.07"/>
<polygon fill="black" stroke="black" points="422.91,-337.7 418.58,-328.03 415.93,-338.29 422.91,-337.7"/>
</g>
<!-- Save run cache&#45;&gt;Accumulate run into runs -->
<g id="edge15" class="edge">
<title>Save run cache&#45;&gt;Accumulate run into runs</title>
<path fill="none" stroke="black" d="M391.73,-292.89C376.59,-283.29 357.15,-270.97 340.52,-260.43"/>
<polygon fill="black" stroke="black" points="341.94,-257.19 331.62,-254.79 338.19,-263.1 341.94,-257.19"/>
</g>
<!-- group_run_exists_1 -->
<g id="node17" class="node">
<title>group_run_exists_1</title>
<ellipse fill="none" stroke="black" cx="262.14" cy="-1260" rx="122.68" ry="18"/>
<text text-anchor="middle" x="262.14" y="-1256.3" font-family="Times,serif" font-size="14.00">Group run cache exists?</text>
</g>
<!-- loop_runs_1&#45;&gt;group_run_exists_1 -->
<g id="edge19" class="edge">
<title>loop_runs_1&#45;&gt;group_run_exists_1</title>
<path fill="none" stroke="black" d="M262.14,-1314.81C262.14,-1306.79 262.14,-1297.05 262.14,-1288.07"/>
<polygon fill="black" stroke="black" points="265.64,-1288.03 262.14,-1278.03 258.64,-1288.03 265.64,-1288.03"/>
</g>
<!-- Load group run cache -->
<g id="node18" class="node">
<title>Load group run cache</title>
<ellipse fill="none" stroke="black" cx="263.14" cy="-1119" rx="111.58" ry="18"/>
<text text-anchor="middle" x="263.14" y="-1115.3" font-family="Times,serif" font-size="14.00">Load group run cache</text>
</g>
<!-- group_run_exists_1&#45;&gt;Load group run cache -->
<g id="edge20" class="edge">
<title>group_run_exists_1&#45;&gt;Load group run cache</title>
<path fill="none" stroke="black" d="M247.31,-1241.78C231.24,-1220.92 209.59,-1184.85 223.14,-1155 224.94,-1151.03 227.44,-1147.33 230.32,-1143.94"/>
<polygon fill="black" stroke="black" points="233.03,-1146.18 237.57,-1136.61 228.05,-1141.26 233.03,-1146.18"/>
<text text-anchor="middle" x="252.14" y="-1212.8" font-family="Times,serif" font-size="14.00"> &#160;Yes</text>
</g>
<!-- align_focus_2 -->
<g id="node20" class="node">
<title>align_focus_2</title>
<ellipse fill="none" stroke="black" cx="333.14" cy="-1173" rx="100.98" ry="18"/>
<text text-anchor="middle" x="333.14" y="-1169.3" font-family="Times,serif" font-size="14.00">Align and focus run</text>
</g>
<!-- group_run_exists_1&#45;&gt;align_focus_2 -->
<g id="edge22" class="edge">
<title>group_run_exists_1&#45;&gt;align_focus_2</title>
<path fill="none" stroke="black" d="M276.51,-1241.8C286.87,-1229.39 301.02,-1212.46 312.58,-1198.62"/>
<polygon fill="black" stroke="black" points="315.31,-1200.8 319.04,-1190.89 309.94,-1196.32 315.31,-1200.8"/>
<text text-anchor="middle" x="317.14" y="-1212.8" font-family="Times,serif" font-size="14.00"> &#160;No</text>
</g>
<!-- Accumulate group run to runs -->
<g id="node25" class="node">
<title>Accumulate group run to runs</title>
<ellipse fill="none" stroke="black" cx="441.14" cy="-846" rx="150.27" ry="18"/>
<text text-anchor="middle" x="441.14" y="-842.3" font-family="Times,serif" font-size="14.00">Accumulate group run to runs</text>
</g>
<!-- Load group run cache&#45;&gt;Accumulate group run to runs -->
<g id="edge27" class="edge">
<title>Load group run cache&#45;&gt;Accumulate group run to runs</title>
<path fill="none" stroke="black" d="M266.56,-1100.68C269.79,-1082.81 274.14,-1054.07 274.14,-1029 274.14,-1029 274.14,-1029 274.14,-918 274.14,-889.27 295.33,-872 322.62,-861.67"/>
<polygon fill="black" stroke="black" points="323.75,-864.98 332.08,-858.43 321.49,-858.36 323.75,-864.98"/>
</g>
<!-- group_wksp_3 -->
<g id="node19" class="node">
<title>group_wksp_3</title>
<ellipse fill="none" stroke="green" cx="469.14" cy="-1260" rx="66.09" ry="18"/>
<text text-anchor="middle" x="469.14" y="-1256.3" font-family="Times,serif" font-size="14.00">group_wksp</text>
</g>
<!-- group_wksp_3&#45;&gt;align_focus_2 -->
<g id="edge21" class="edge">
<title>group_wksp_3&#45;&gt;align_focus_2</title>
<path fill="none" stroke="black" d="M443.88,-1243.21C422.63,-1229.93 392.01,-1210.79 368.35,-1196.01"/>
<polygon fill="black" stroke="black" points="369.99,-1192.91 359.66,-1190.57 366.28,-1198.84 369.99,-1192.91"/>
</g>
<!-- rebin_2 -->
<g id="node21" class="node">
<title>rebin_2</title>
<ellipse fill="none" stroke="black" cx="441.14" cy="-1065" rx="37.89" ry="18"/>
<text text-anchor="middle" x="441.14" y="-1061.3" font-family="Times,serif" font-size="14.00">Rebin</text>
</g>
<!-- align_focus_2&#45;&gt;rebin_2 -->
<g id="edge23" class="edge">
<title>align_focus_2&#45;&gt;rebin_2</title>
<path fill="none" stroke="black" d="M360.2,-1155.58C368.27,-1150.13 376.9,-1143.72 384.14,-1137 399.11,-1123.11 413.49,-1105.16 424.06,-1090.78"/>
<polygon fill="black" stroke="black" points="427.12,-1092.52 430.12,-1082.36 421.44,-1088.43 427.12,-1092.52"/>
</g>
<!-- convert_unit_w_1 -->
<g id="node23" class="node">
<title>convert_unit_w_1</title>
<ellipse fill="none" stroke="black" cx="441.14" cy="-992" rx="137.58" ry="18"/>
<text text-anchor="middle" x="441.14" y="-988.3" font-family="Times,serif" font-size="14.00">Convert unit to wavelength</text>
</g>
<!-- rebin_2&#45;&gt;convert_unit_w_1 -->
<g id="edge25" class="edge">
<title>rebin_2&#45;&gt;convert_unit_w_1</title>
<path fill="none" stroke="black" d="M441.14,-1046.81C441.14,-1038.79 441.14,-1029.05 441.14,-1020.07"/>
<polygon fill="black" stroke="black" points="444.64,-1020.03 441.14,-1010.03 437.64,-1020.03 444.64,-1020.03"/>
</g>
<!-- Proper TOF bin params -->
<g id="node22" class="node">
<title>Proper TOF bin params</title>
<ellipse fill="none" stroke="green" cx="572.14" cy="-1173" rx="120.48" ry="18"/>
<text text-anchor="middle" x="572.14" y="-1169.3" font-family="Times,serif" font-size="14.00">Proper TOF bin params</text>
</g>
<!-- Proper TOF bin params&#45;&gt;rebin_2 -->
<g id="edge24" class="edge">
<title>Proper TOF bin params&#45;&gt;rebin_2</title>
<path fill="none" stroke="black" d="M551.38,-1155.2C528.7,-1136.85 492.29,-1107.39 467.58,-1087.39"/>
<polygon fill="black" stroke="black" points="469.66,-1084.57 459.68,-1081 465.25,-1090.01 469.66,-1084.57"/>
</g>
<!-- save_group_run_1 -->
<g id="node24" class="node">
<title>save_group_run_1</title>
<ellipse fill="none" stroke="black" cx="441.14" cy="-919" rx="111.58" ry="18"/>
<text text-anchor="middle" x="441.14" y="-915.3" font-family="Times,serif" font-size="14.00">Save group run cache</text>
</g>
<!-- convert_unit_w_1&#45;&gt;save_group_run_1 -->
<g id="edge26" class="edge">
<title>convert_unit_w_1&#45;&gt;save_group_run_1</title>
<path fill="none" stroke="black" d="M441.14,-973.81C441.14,-965.79 441.14,-956.05 441.14,-947.07"/>
<polygon fill="black" stroke="black" points="444.64,-947.03 441.14,-937.03 437.64,-947.03 444.64,-947.03"/>
</g>
<!-- save_group_run_1&#45;&gt;Accumulate group run to runs -->
<g id="edge28" class="edge">
<title>save_group_run_1&#45;&gt;Accumulate group run to runs</title>
<path fill="none" stroke="black" d="M441.14,-900.81C441.14,-892.79 441.14,-883.05 441.14,-874.07"/>
<polygon fill="black" stroke="black" points="444.64,-874.03 441.14,-864.03 437.64,-874.03 444.64,-874.03"/>
</g>
<!-- Accumulate group run to runs&#45;&gt;loop_runs_1 -->
<g id="edge29" class="edge">
<title>Accumulate group run to runs&#45;&gt;loop_runs_1</title>
<path fill="none" stroke="black" d="M527.89,-860.76C609.79,-874.99 720.14,-897.88 720.14,-918 720.14,-1261 720.14,-1261 720.14,-1261 720.14,-1298.03 483.33,-1318.52 350.28,-1327.11"/>
<polygon fill="black" stroke="black" points="349.85,-1323.62 340.09,-1327.75 350.29,-1330.61 349.85,-1323.62"/>
</g>
<!-- Valid absorption wksp? -->
<g id="node27" class="node">
<title>Valid absorption wksp?</title>
<ellipse fill="none" stroke="black" cx="685.14" cy="-759" rx="118.08" ry="18"/>
<text text-anchor="middle" x="685.14" y="-755.3" font-family="Times,serif" font-size="14.00">Valid absorption wksp?</text>
</g>
<!-- Accumulate group run to runs&#45;&gt;Valid absorption wksp? -->
<g id="edge31" class="edge">
<title>Accumulate group run to runs&#45;&gt;Valid absorption wksp?</title>
<path fill="none" stroke="black" d="M487.61,-828.81C528.36,-814.62 587.64,-793.96 630.62,-778.99"/>
<polygon fill="black" stroke="black" points="631.79,-782.29 640.08,-775.7 629.49,-775.68 631.79,-782.29"/>
</g>
<!-- abs_wksp_input_1 -->
<g id="node26" class="node">
<title>abs_wksp_input_1</title>
<ellipse fill="none" stroke="green" cx="694.14" cy="-846" rx="85.29" ry="18"/>
<text text-anchor="middle" x="694.14" y="-842.3" font-family="Times,serif" font-size="14.00">Absorption sksp</text>
</g>
<!-- abs_wksp_input_1&#45;&gt;Valid absorption wksp? -->
<g id="edge30" class="edge">
<title>abs_wksp_input_1&#45;&gt;Valid absorption wksp?</title>
<path fill="none" stroke="black" d="M692.32,-827.8C691.09,-816.16 689.43,-800.55 688.02,-787.24"/>
<polygon fill="black" stroke="black" points="691.49,-786.75 686.96,-777.18 684.53,-787.49 691.49,-786.75"/>
</g>
<!-- Rebin abs wksp to runs wksp -->
<g id="node28" class="node">
<title>Rebin abs wksp to runs wksp</title>
<ellipse fill="none" stroke="black" cx="845.14" cy="-651" rx="146.47" ry="18"/>
<text text-anchor="middle" x="845.14" y="-647.3" font-family="Times,serif" font-size="14.00">Rebin abs wksp to runs wksp</text>
</g>
<!-- Valid absorption wksp?&#45;&gt;Rebin abs wksp to runs wksp -->
<g id="edge32" class="edge">
<title>Valid absorption wksp?&#45;&gt;Rebin abs wksp to runs wksp</title>
<path fill="none" stroke="black" d="M710.49,-741.2C737.68,-723.19 781,-694.49 811.13,-674.53"/>
<polygon fill="black" stroke="black" points="813.24,-677.33 819.64,-668.89 809.37,-671.5 813.24,-677.33"/>
<text text-anchor="middle" x="806.14" y="-701.3" font-family="Times,serif" font-size="14.00"> &#160;Yes</text>
</g>
<!-- Generate spec&#45;ID to index map -->
<g id="node30" class="node">
<title>Generate spec&#45;ID to index map</title>
<ellipse fill="none" stroke="black" cx="689.14" cy="-456" rx="154.87" ry="18"/>
<text text-anchor="middle" x="689.14" y="-452.3" font-family="Times,serif" font-size="14.00">Generate spec&#45;ID to index map</text>
</g>
<!-- Valid absorption wksp?&#45;&gt;Generate spec&#45;ID to index map -->
<g id="edge35" class="edge">
<title>Valid absorption wksp?&#45;&gt;Generate spec&#45;ID to index map</title>
<path fill="none" stroke="black" d="M685.37,-740.95C686.03,-691.09 687.97,-545.2 688.78,-484.25"/>
<polygon fill="black" stroke="black" points="692.28,-484.28 688.91,-474.23 685.28,-484.18 692.28,-484.28"/>
<text text-anchor="middle" x="703.14" y="-603.8" font-family="Times,serif" font-size="14.00"> &#160;No</text>
</g>
<!-- Divide runs over abs wksp -->
<g id="node29" class="node">
<title>Divide runs over abs wksp</title>
<ellipse fill="none" stroke="black" cx="839.14" cy="-564" rx="133.78" ry="18"/>
<text text-anchor="middle" x="839.14" y="-560.3" font-family="Times,serif" font-size="14.00">Divide runs over abs wksp</text>
</g>
<!-- Rebin abs wksp to runs wksp&#45;&gt;Divide runs over abs wksp -->
<g id="edge33" class="edge">
<title>Rebin abs wksp to runs wksp&#45;&gt;Divide runs over abs wksp</title>
<path fill="none" stroke="black" d="M843.93,-632.8C843.1,-621.16 842,-605.55 841.06,-592.24"/>
<polygon fill="black" stroke="black" points="844.55,-591.9 840.35,-582.18 837.57,-592.4 844.55,-591.9"/>
</g>
<!-- Divide runs over abs wksp&#45;&gt;Generate spec&#45;ID to index map -->
<g id="edge34" class="edge">
<title>Divide runs over abs wksp&#45;&gt;Generate spec&#45;ID to index map</title>
<path fill="none" stroke="black" d="M815.37,-546.2C790.07,-528.32 749.86,-499.91 721.64,-479.96"/>
<polygon fill="black" stroke="black" points="723.48,-476.98 713.29,-474.07 719.44,-482.7 723.48,-476.98"/>
</g>
<!-- Generate output group pattern -->
<g id="node31" class="node">
<title>Generate output group pattern</title>
<ellipse fill="none" stroke="black" cx="666.14" cy="-383" rx="155.17" ry="18"/>
<text text-anchor="middle" x="666.14" y="-379.3" font-family="Times,serif" font-size="14.00">Generate output group pattern</text>
</g>
<!-- Generate spec&#45;ID to index map&#45;&gt;Generate output group pattern -->
<g id="edge36" class="edge">
<title>Generate spec&#45;ID to index map&#45;&gt;Generate output group pattern</title>
<path fill="none" stroke="black" d="M683.57,-437.81C680.95,-429.7 677.75,-419.84 674.81,-410.78"/>
<polygon fill="black" stroke="black" points="678.07,-409.46 671.66,-401.03 671.41,-411.62 678.07,-409.46"/>
</g>
<!-- convert_to_q_1 -->
<g id="node32" class="node">
<title>convert_to_q_1</title>
<ellipse fill="none" stroke="black" cx="636.14" cy="-310" rx="91.78" ry="18"/>
<text text-anchor="middle" x="636.14" y="-306.3" font-family="Times,serif" font-size="14.00">Convert unit to Q</text>
</g>
<!-- Generate output group pattern&#45;&gt;convert_to_q_1 -->
<g id="edge37" class="edge">
<title>Generate output group pattern&#45;&gt;convert_to_q_1</title>
<path fill="none" stroke="black" d="M658.88,-364.81C655.41,-356.62 651.19,-346.62 647.33,-337.48"/>
<polygon fill="black" stroke="black" points="650.45,-335.88 643.34,-328.03 644,-338.6 650.45,-335.88"/>
</g>
<!-- rebin_to_fine_q_grid -->
<g id="node33" class="node">
<title>rebin_to_fine_q_grid</title>
<ellipse fill="none" stroke="black" cx="636.14" cy="-237" rx="102.88" ry="18"/>
<text text-anchor="middle" x="636.14" y="-233.3" font-family="Times,serif" font-size="14.00">Rebin to fine Q grid</text>
</g>
<!-- convert_to_q_1&#45;&gt;rebin_to_fine_q_grid -->
<g id="edge38" class="edge">
<title>convert_to_q_1&#45;&gt;rebin_to_fine_q_grid</title>
<path fill="none" stroke="black" d="M636.14,-291.81C636.14,-283.79 636.14,-274.05 636.14,-265.07"/>
<polygon fill="black" stroke="black" points="639.64,-265.03 636.14,-255.03 632.64,-265.03 639.64,-265.03"/>
</g>
<!-- Group detectors -->
<g id="node35" class="node">
<title>Group detectors</title>
<ellipse fill="none" stroke="black" cx="575.14" cy="-164" rx="86.38" ry="18"/>
<text text-anchor="middle" x="575.14" y="-160.3" font-family="Times,serif" font-size="14.00">Group detectors</text>
</g>
<!-- rebin_to_fine_q_grid&#45;&gt;Group detectors -->
<g id="edge40" class="edge">
<title>rebin_to_fine_q_grid&#45;&gt;Group detectors</title>
<path fill="none" stroke="black" d="M621.68,-219.17C614.2,-210.46 604.91,-199.65 596.6,-189.98"/>
<polygon fill="black" stroke="black" points="599.09,-187.5 589.92,-182.2 593.78,-192.06 599.09,-187.5"/>
</g>
<!-- Fine Q grid params -->
<g id="node34" class="node">
<title>Fine Q grid params</title>
<ellipse fill="none" stroke="green" cx="846.14" cy="-310" rx="100.98" ry="18"/>
<text text-anchor="middle" x="846.14" y="-306.3" font-family="Times,serif" font-size="14.00">Fine Q grid params</text>
</g>
<!-- Fine Q grid params&#45;&gt;rebin_to_fine_q_grid -->
<g id="edge39" class="edge">
<title>Fine Q grid params&#45;&gt;rebin_to_fine_q_grid</title>
<path fill="none" stroke="black" d="M801.35,-293.86C769.11,-282.96 725.45,-268.19 691.1,-256.58"/>
<polygon fill="black" stroke="black" points="691.82,-253.13 681.23,-253.24 689.58,-259.76 691.82,-253.13"/>
</g>
<!-- Group detectors&#45;&gt;Normalize by current -->
<g id="edge41" class="edge">
<title>Group detectors&#45;&gt;Normalize by current</title>
<path fill="none" stroke="black" d="M523.72,-149.48C480.3,-138.06 417.85,-121.64 370.81,-109.27"/>
<polygon fill="black" stroke="black" points="371.58,-105.85 361.02,-106.7 369.8,-112.62 371.58,-105.85"/>
</g>
</g>
</svg>
