<?xml version="1.0" encoding="UTF-8" standalone="no"?>
<!DOCTYPE svg PUBLIC "-//W3C//DTD SVG 1.1//EN"
 "http://www.w3.org/Graphics/SVG/1.1/DTD/svg11.dtd">
<!-- Generated by graphviz version 2.43.0 (0)
 -->
<!-- Title: G Pages: 1 -->
<svg width="1033pt" height="1268pt"
 viewBox="0.00 0.00 1032.92 1268.00" xmlns="http://www.w3.org/2000/svg" xmlns:xlink="http://www.w3.org/1999/xlink">
<g id="graph0" class="graph" transform="scale(1 1) rotate(0) translate(4 1264)">
<title>G</title>
<polygon fill="white" stroke="transparent" points="-4,4 -4,-1264 1028.92,-1264 1028.92,4 -4,4"/>
<!-- Total scattering data reduction -->
<g id="node1" class="node">
<title>Total scattering data reduction</title>
<ellipse fill="none" stroke="red" cx="302.99" cy="-1242" rx="155.17" ry="18"/>
<text text-anchor="middle" x="302.99" y="-1238.3" font-family="Times,serif" font-size="14.00">Total scattering data reduction</text>
</g>
<!-- Load input params -->
<g id="node2" class="node">
<title>Load input params</title>
<ellipse fill="none" stroke="black" cx="302.99" cy="-1170" rx="98.28" ry="18"/>
<text text-anchor="middle" x="302.99" y="-1166.3" font-family="Times,serif" font-size="14.00">Load input params</text>
</g>
<!-- Total scattering data reduction&#45;&gt;Load input params -->
<g id="edge1" class="edge">
<title>Total scattering data reduction&#45;&gt;Load input params</title>
<path fill="none" stroke="black" d="M302.99,-1223.7C302.99,-1215.98 302.99,-1206.71 302.99,-1198.11"/>
<polygon fill="black" stroke="black" points="306.49,-1198.1 302.99,-1188.1 299.49,-1198.1 306.49,-1198.1"/>
</g>
<!-- Sample &amp; Container absorption processing -->
<g id="node3" class="node">
<title>Sample &amp; Container absorption processing</title>
<ellipse fill="none" stroke="red" cx="302.99" cy="-1098" rx="211.46" ry="18"/>
<text text-anchor="middle" x="302.99" y="-1094.3" font-family="Times,serif" font-size="14.00">Sample &amp; Container absorption processing</text>
</g>
<!-- Load input params&#45;&gt;Sample &amp; Container absorption processing -->
<g id="edge2" class="edge">
<title>Load input params&#45;&gt;Sample &amp; Container absorption processing</title>
<path fill="none" stroke="black" d="M302.99,-1151.7C302.99,-1143.98 302.99,-1134.71 302.99,-1126.11"/>
<polygon fill="black" stroke="black" points="306.49,-1126.1 302.99,-1116.1 299.49,-1126.1 306.49,-1126.1"/>
</g>
<!-- Sample abs wksp -->
<g id="node4" class="node">
<title>Sample abs wksp</title>
<ellipse fill="none" stroke="green" cx="90.99" cy="-1026" rx="90.98" ry="18"/>
<text text-anchor="middle" x="90.99" y="-1022.3" font-family="Times,serif" font-size="14.00">Sample abs wksp</text>
</g>
<!-- Sample &amp; Container absorption processing&#45;&gt;Sample abs wksp -->
<g id="edge3" class="edge">
<title>Sample &amp; Container absorption processing&#45;&gt;Sample abs wksp</title>
<path fill="none" stroke="black" d="M253.02,-1080.5C220.6,-1069.79 178.36,-1055.85 145.14,-1044.88"/>
<polygon fill="black" stroke="black" points="146.18,-1041.54 135.58,-1041.72 143.98,-1048.18 146.18,-1041.54"/>
</g>
<!-- Container abs wksp -->
<g id="node5" class="node">
<title>Container abs wksp</title>
<ellipse fill="none" stroke="green" cx="302.99" cy="-1026" rx="102.88" ry="18"/>
<text text-anchor="middle" x="302.99" y="-1022.3" font-family="Times,serif" font-size="14.00">Container abs wksp</text>
</g>
<!-- Sample &amp; Container absorption processing&#45;&gt;Container abs wksp -->
<g id="edge4" class="edge">
<title>Sample &amp; Container absorption processing&#45;&gt;Container abs wksp</title>
<path fill="none" stroke="black" d="M302.99,-1079.7C302.99,-1071.98 302.99,-1062.71 302.99,-1054.11"/>
<polygon fill="black" stroke="black" points="306.49,-1054.1 302.99,-1044.1 299.49,-1054.1 306.49,-1054.1"/>
</g>
<!-- Group wksp -->
<g id="node6" class="node">
<title>Group wksp</title>
<ellipse fill="none" stroke="green" cx="489.99" cy="-1026" rx="66.09" ry="18"/>
<text text-anchor="middle" x="489.99" y="-1022.3" font-family="Times,serif" font-size="14.00">Group wksp</text>
</g>
<!-- Sample &amp; Container absorption processing&#45;&gt;Group wksp -->
<g id="edge5" class="edge">
<title>Sample &amp; Container absorption processing&#45;&gt;Group wksp</title>
<path fill="none" stroke="black" d="M347.78,-1080.23C376.62,-1069.44 414.02,-1055.44 443.23,-1044.5"/>
<polygon fill="black" stroke="black" points="444.66,-1047.71 452.8,-1040.92 442.21,-1041.15 444.66,-1047.71"/>
</g>
<!-- data_loader_sc -->
<g id="node7" class="node">
<title>data_loader_sc</title>
<ellipse fill="none" stroke="red" cx="395.99" cy="-954" rx="64.99" ry="18"/>
<text text-anchor="middle" x="395.99" y="-950.3" font-family="Times,serif" font-size="14.00">Data loader</text>
</g>
<!-- Sample abs wksp&#45;&gt;data_loader_sc -->
<g id="edge6" class="edge">
<title>Sample abs wksp&#45;&gt;data_loader_sc</title>
<path fill="none" stroke="black" d="M148,-1011.92C202.05,-999.51 282.88,-980.96 337.44,-968.44"/>
<polygon fill="black" stroke="black" points="338.34,-971.82 347.31,-966.17 336.78,-965 338.34,-971.82"/>
</g>
<!-- Container abs wksp&#45;&gt;data_loader_sc -->
<g id="edge7" class="edge">
<title>Container abs wksp&#45;&gt;data_loader_sc</title>
<path fill="none" stroke="black" d="M325.03,-1008.41C337.4,-999.1 352.99,-987.37 366.41,-977.27"/>
<polygon fill="black" stroke="black" points="368.55,-980.04 374.43,-971.23 364.34,-974.45 368.55,-980.04"/>
</g>
<!-- Group wksp&#45;&gt;data_loader_sc -->
<g id="edge8" class="edge">
<title>Group wksp&#45;&gt;data_loader_sc</title>
<path fill="none" stroke="black" d="M468.19,-1008.76C455.61,-999.4 439.62,-987.49 425.89,-977.26"/>
<polygon fill="black" stroke="black" points="427.79,-974.31 417.68,-971.15 423.61,-979.93 427.79,-974.31"/>
</g>
<!-- Vanadium absorption processing -->
<g id="node9" class="node">
<title>Vanadium absorption processing</title>
<ellipse fill="none" stroke="red" cx="395.99" cy="-882" rx="162.47" ry="18"/>
<text text-anchor="middle" x="395.99" y="-878.3" font-family="Times,serif" font-size="14.00">Vanadium absorption processing</text>
</g>
<!-- data_loader_sc&#45;&gt;Vanadium absorption processing -->
<g id="edge10" class="edge">
<title>data_loader_sc&#45;&gt;Vanadium absorption processing</title>
<path fill="none" stroke="black" d="M395.99,-935.7C395.99,-927.98 395.99,-918.71 395.99,-910.11"/>
<polygon fill="black" stroke="black" points="399.49,-910.1 395.99,-900.1 392.49,-910.1 399.49,-910.1"/>
</g>
<!-- Sample &amp; container runs -->
<g id="node8" class="node">
<title>Sample &amp; container runs</title>
<ellipse fill="none" stroke="green" cx="701.99" cy="-1026" rx="127.28" ry="18"/>
<text text-anchor="middle" x="701.99" y="-1022.3" font-family="Times,serif" font-size="14.00">Sample &amp; container runs</text>
</g>
<!-- Sample &amp; container runs&#45;&gt;data_loader_sc -->
<g id="edge9" class="edge">
<title>Sample &amp; container runs&#45;&gt;data_loader_sc</title>
<path fill="none" stroke="black" d="M638.22,-1010.41C584.08,-998.03 507.03,-980.4 454.47,-968.38"/>
<polygon fill="black" stroke="black" points="455.15,-964.94 444.62,-966.12 453.59,-971.77 455.15,-964.94"/>
</g>
<!-- Vanadium abs wksp -->
<g id="node10" class="node">
<title>Vanadium abs wksp</title>
<ellipse fill="none" stroke="green" cx="270.99" cy="-810" rx="102.88" ry="18"/>
<text text-anchor="middle" x="270.99" y="-806.3" font-family="Times,serif" font-size="14.00">Vanadium abs wksp</text>
</g>
<!-- Vanadium absorption processing&#45;&gt;Vanadium abs wksp -->
<g id="edge11" class="edge">
<title>Vanadium absorption processing&#45;&gt;Vanadium abs wksp</title>
<path fill="none" stroke="black" d="M366.05,-864.23C349,-854.68 327.46,-842.62 309.2,-832.39"/>
<polygon fill="black" stroke="black" points="310.69,-829.22 300.26,-827.39 307.27,-835.33 310.69,-829.22"/>
</g>
<!-- group_wksp_van -->
<g id="node11" class="node">
<title>group_wksp_van</title>
<ellipse fill="none" stroke="green" cx="521.99" cy="-810" rx="130.78" ry="18"/>
<text text-anchor="middle" x="521.99" y="-806.3" font-family="Times,serif" font-size="14.00">Group wksp for vanadium</text>
</g>
<!-- Vanadium absorption processing&#45;&gt;group_wksp_van -->
<g id="edge12" class="edge">
<title>Vanadium absorption processing&#45;&gt;group_wksp_van</title>
<path fill="none" stroke="black" d="M426.17,-864.23C443.24,-854.75 464.76,-842.8 483.08,-832.62"/>
<polygon fill="black" stroke="black" points="485.02,-835.55 492.06,-827.63 481.62,-829.43 485.02,-835.55"/>
</g>
<!-- data_loader_van -->
<g id="node12" class="node">
<title>data_loader_van</title>
<ellipse fill="none" stroke="red" cx="521.99" cy="-738" rx="64.99" ry="18"/>
<text text-anchor="middle" x="521.99" y="-734.3" font-family="Times,serif" font-size="14.00">Data loader</text>
</g>
<!-- Vanadium abs wksp&#45;&gt;data_loader_van -->
<g id="edge13" class="edge">
<title>Vanadium abs wksp&#45;&gt;data_loader_van</title>
<path fill="none" stroke="black" d="M323.3,-794.41C365.69,-782.59 425.2,-765.99 468.02,-754.05"/>
<polygon fill="black" stroke="black" points="469.02,-757.41 477.71,-751.35 467.14,-750.66 469.02,-757.41"/>
</g>
<!-- group_wksp_van&#45;&gt;data_loader_van -->
<g id="edge14" class="edge">
<title>group_wksp_van&#45;&gt;data_loader_van</title>
<path fill="none" stroke="black" d="M521.99,-791.7C521.99,-783.98 521.99,-774.71 521.99,-766.11"/>
<polygon fill="black" stroke="black" points="525.49,-766.1 521.99,-756.1 518.49,-766.1 525.49,-766.1"/>
</g>
<!-- data_loader_bkg -->
<g id="node14" class="node">
<title>data_loader_bkg</title>
<ellipse fill="none" stroke="red" cx="667.99" cy="-666" rx="64.99" ry="18"/>
<text text-anchor="middle" x="667.99" y="-662.3" font-family="Times,serif" font-size="14.00">Data loader</text>
</g>
<!-- data_loader_van&#45;&gt;data_loader_bkg -->
<g id="edge16" class="edge">
<title>data_loader_van&#45;&gt;data_loader_bkg</title>
<path fill="none" stroke="black" d="M552.95,-722.15C574.75,-711.7 604.14,-697.61 627.75,-686.29"/>
<polygon fill="black" stroke="black" points="629.32,-689.42 636.82,-681.94 626.29,-683.11 629.32,-689.42"/>
</g>
<!-- Vanadium runs -->
<g id="node13" class="node">
<title>Vanadium runs</title>
<ellipse fill="none" stroke="green" cx="750.99" cy="-810" rx="80.69" ry="18"/>
<text text-anchor="middle" x="750.99" y="-806.3" font-family="Times,serif" font-size="14.00">Vanadium runs</text>
</g>
<!-- Vanadium runs&#45;&gt;data_loader_van -->
<g id="edge15" class="edge">
<title>Vanadium runs&#45;&gt;data_loader_van</title>
<path fill="none" stroke="black" d="M705.48,-795.09C667.48,-783.47 613.32,-766.92 573.69,-754.8"/>
<polygon fill="black" stroke="black" points="574.54,-751.4 563.95,-751.83 572.49,-758.1 574.54,-751.4"/>
</g>
<!-- Background subtraction -->
<g id="node16" class="node">
<title>Background subtraction</title>
<ellipse fill="none" stroke="black" cx="667.99" cy="-594" rx="122.38" ry="18"/>
<text text-anchor="middle" x="667.99" y="-590.3" font-family="Times,serif" font-size="14.00">Background subtraction</text>
</g>
<!-- data_loader_bkg&#45;&gt;Background subtraction -->
<g id="edge18" class="edge">
<title>data_loader_bkg&#45;&gt;Background subtraction</title>
<path fill="none" stroke="black" d="M667.99,-647.7C667.99,-639.98 667.99,-630.71 667.99,-622.11"/>
<polygon fill="black" stroke="black" points="671.49,-622.1 667.99,-612.1 664.49,-622.1 671.49,-622.1"/>
</g>
<!-- Empty container &amp; empty instrument runs -->
<g id="node15" class="node">
<title>Empty container &amp; empty instrument runs</title>
<ellipse fill="none" stroke="green" cx="814.99" cy="-738" rx="209.86" ry="18"/>
<text text-anchor="middle" x="814.99" y="-734.3" font-family="Times,serif" font-size="14.00">Empty container &amp; empty instrument runs</text>
</g>
<!-- Empty container &amp; empty instrument runs&#45;&gt;data_loader_bkg -->
<g id="edge17" class="edge">
<title>Empty container &amp; empty instrument runs&#45;&gt;data_loader_bkg</title>
<path fill="none" stroke="black" d="M779.78,-720.23C758.38,-710.04 730.96,-696.99 708.64,-686.36"/>
<polygon fill="black" stroke="black" points="709.95,-683.1 699.41,-681.96 706.94,-689.42 709.95,-683.1"/>
</g>
<!-- Strip vanadium peaks and smooth -->
<g id="node17" class="node">
<title>Strip vanadium peaks and smooth</title>
<ellipse fill="none" stroke="black" cx="667.99" cy="-522" rx="168.97" ry="18"/>
<text text-anchor="middle" x="667.99" y="-518.3" font-family="Times,serif" font-size="14.00">Strip vanadium peaks and smooth</text>
</g>
<!-- Background subtraction&#45;&gt;Strip vanadium peaks and smooth -->
<g id="edge19" class="edge">
<title>Background subtraction&#45;&gt;Strip vanadium peaks and smooth</title>
<path fill="none" stroke="black" d="M667.99,-575.7C667.99,-567.98 667.99,-558.71 667.99,-550.11"/>
<polygon fill="black" stroke="black" points="671.49,-550.1 667.99,-540.1 664.49,-550.1 671.49,-550.1"/>
</g>
<!-- Inelastic correction for vanadium -->
<g id="node18" class="node">
<title>Inelastic correction for vanadium</title>
<ellipse fill="none" stroke="black" cx="667.99" cy="-450" rx="165.17" ry="18"/>
<text text-anchor="middle" x="667.99" y="-446.3" font-family="Times,serif" font-size="14.00">Inelastic correction for vanadium</text>
</g>
<!-- Strip vanadium peaks and smooth&#45;&gt;Inelastic correction for vanadium -->
<g id="edge20" class="edge">
<title>Strip vanadium peaks and smooth&#45;&gt;Inelastic correction for vanadium</title>
<path fill="none" stroke="black" d="M667.99,-503.7C667.99,-495.98 667.99,-486.71 667.99,-478.11"/>
<polygon fill="black" stroke="black" points="671.49,-478.1 667.99,-468.1 664.49,-478.1 671.49,-478.1"/>
</g>
<!-- Normalization over vanadium -->
<g id="node19" class="node">
<title>Normalization over vanadium</title>
<ellipse fill="none" stroke="black" cx="667.99" cy="-378" rx="148.37" ry="18"/>
<text text-anchor="middle" x="667.99" y="-374.3" font-family="Times,serif" font-size="14.00">Normalization over vanadium</text>
</g>
<!-- Inelastic correction for vanadium&#45;&gt;Normalization over vanadium -->
<g id="edge21" class="edge">
<title>Inelastic correction for vanadium&#45;&gt;Normalization over vanadium</title>
<path fill="none" stroke="black" d="M667.99,-431.7C667.99,-423.98 667.99,-414.71 667.99,-406.11"/>
<polygon fill="black" stroke="black" points="671.49,-406.1 667.99,-396.1 664.49,-406.1 671.49,-406.1"/>
</g>
<!-- Normalization over total number of atoms -->
<g id="node20" class="node">
<title>Normalization over total number of atoms</title>
<ellipse fill="none" stroke="black" cx="667.99" cy="-306" rx="206.06" ry="18"/>
<text text-anchor="middle" x="667.99" y="-302.3" font-family="Times,serif" font-size="14.00">Normalization over total number of atoms</text>
</g>
<!-- Normalization over vanadium&#45;&gt;Normalization over total number of atoms -->
<g id="edge22" class="edge">
<title>Normalization over vanadium&#45;&gt;Normalization over total number of atoms</title>
<path fill="none" stroke="black" d="M667.99,-359.7C667.99,-351.98 667.99,-342.71 667.99,-334.11"/>
<polygon fill="black" stroke="black" points="671.49,-334.1 667.99,-324.1 664.49,-334.1 671.49,-334.1"/>
</g>
<!-- Wrapping final factors -->
<g id="node21" class="node">
<title>Wrapping final factors</title>
<ellipse fill="none" stroke="black" cx="667.99" cy="-234" rx="114.28" ry="18"/>
<text text-anchor="middle" x="667.99" y="-230.3" font-family="Times,serif" font-size="14.00">Wrapping final factors</text>
</g>
<!-- Normalization over total number of atoms&#45;&gt;Wrapping final factors -->
<g id="edge23" class="edge">
<title>Normalization over total number of atoms&#45;&gt;Wrapping final factors</title>
<path fill="none" stroke="black" d="M667.99,-287.7C667.99,-279.98 667.99,-270.71 667.99,-262.11"/>
<polygon fill="black" stroke="black" points="671.49,-262.1 667.99,-252.1 664.49,-262.1 671.49,-262.1"/>
</g>
<!-- Inelasctic correction for sample -->
<g id="node22" class="node">
<title>Inelasctic correction for sample</title>
<ellipse fill="none" stroke="black" cx="667.99" cy="-162" rx="157.07" ry="18"/>
<text text-anchor="middle" x="667.99" y="-158.3" font-family="Times,serif" font-size="14.00">Inelasctic correction for sample</text>
</g>
<!-- Wrapping final factors&#45;&gt;Inelasctic correction for sample -->
<g id="edge24" class="edge">
<title>Wrapping final factors&#45;&gt;Inelasctic correction for sample</title>
<path fill="none" stroke="black" d="M667.99,-215.7C667.99,-207.98 667.99,-198.71 667.99,-190.11"/>
<polygon fill="black" stroke="black" points="671.49,-190.1 667.99,-180.1 664.49,-190.1 671.49,-190.1"/>
</g>
<!-- Prepare normalized S(Q) -->
<g id="node23" class="node">
<title>Prepare normalized S(Q)</title>
<ellipse fill="none" stroke="black" cx="667.99" cy="-90" rx="126.18" ry="18"/>
<text text-anchor="middle" x="667.99" y="-86.3" font-family="Times,serif" font-size="14.00">Prepare normalized S(Q)</text>
</g>
<!-- Inelasctic correction for sample&#45;&gt;Prepare normalized S(Q) -->
<g id="edge25" class="edge">
<title>Inelasctic correction for sample&#45;&gt;Prepare normalized S(Q)</title>
<path fill="none" stroke="black" d="M667.99,-143.7C667.99,-135.98 667.99,-126.71 667.99,-118.11"/>
<polygon fill="black" stroke="black" points="671.49,-118.1 667.99,-108.1 664.49,-118.1 671.49,-118.1"/>
</g>
<!-- Output -->
<g id="node24" class="node">
<title>Output</title>
<ellipse fill="none" stroke="black" cx="667.99" cy="-18" rx="43.59" ry="18"/>
<text text-anchor="middle" x="667.99" y="-14.3" font-family="Times,serif" font-size="14.00">Output</text>
</g>
<!-- Prepare normalized S(Q)&#45;&gt;Output -->
<g id="edge26" class="edge">
<title>Prepare normalized S(Q)&#45;&gt;Output</title>
<path fill="none" stroke="black" d="M667.99,-71.7C667.99,-63.98 667.99,-54.71 667.99,-46.11"/>
<polygon fill="black" stroke="black" points="671.49,-46.1 667.99,-36.1 664.49,-46.1 671.49,-46.1"/>
</g>
</g>
</svg>
