<?xml version="1.0" encoding="UTF-8" standalone="no"?>
<!DOCTYPE svg PUBLIC "-//W3C//DTD SVG 1.1//EN"
 "http://www.w3.org/Graphics/SVG/1.1/DTD/svg11.dtd">
<!-- Generated by graphviz version 2.43.0 (0)
 -->
<!-- Title: G Pages: 1 -->
<svg width="932pt" height="921pt"
 viewBox="0.00 0.00 932.16 921.00" xmlns="http://www.w3.org/2000/svg" xmlns:xlink="http://www.w3.org/1999/xlink">
<g id="graph0" class="graph" transform="scale(1 1) rotate(0) translate(4 917)">
<title>G</title>
<polygon fill="white" stroke="transparent" points="-4,4 -4,-917 928.16,-917 928.16,4 -4,4"/>
<!-- Sample &amp; Container absorption processing -->
<g id="node1" class="node">
<title>Sample &amp; Container absorption processing</title>
<ellipse fill="none" stroke="red" cx="211.23" cy="-895" rx="211.46" ry="18"/>
<text text-anchor="middle" x="211.23" y="-891.3" font-family="Times,serif" font-size="14.00">Sample &amp; Container absorption processing</text>
</g>
<!-- group_wksp = None -->
<g id="node2" class="node">
<title>group_wksp = None</title>
<ellipse fill="none" stroke="green" cx="211.23" cy="-822" rx="104.78" ry="18"/>
<text text-anchor="middle" x="211.23" y="-818.3" font-family="Times,serif" font-size="14.00">group_wksp = None</text>
</g>
<!-- Sample &amp; Container absorption processing&#45;&gt;group_wksp = None -->
<g id="edge1" class="edge">
<title>Sample &amp; Container absorption processing&#45;&gt;group_wksp = None</title>
<path fill="none" stroke="black" d="M211.23,-876.81C211.23,-868.79 211.23,-859.05 211.23,-850.07"/>
<polygon fill="black" stroke="black" points="214.73,-850.03 211.23,-840.03 207.73,-850.03 214.73,-850.03"/>
</g>
<!-- Absorption correction? -->
<g id="node3" class="node">
<title>Absorption correction?</title>
<ellipse fill="none" stroke="black" cx="211.23" cy="-749" rx="116.18" ry="18"/>
<text text-anchor="middle" x="211.23" y="-745.3" font-family="Times,serif" font-size="14.00">Absorption correction?</text>
</g>
<!-- group_wksp = None&#45;&gt;Absorption correction? -->
<g id="edge2" class="edge">
<title>group_wksp = None&#45;&gt;Absorption correction?</title>
<path fill="none" stroke="black" d="M211.23,-803.81C211.23,-795.79 211.23,-786.05 211.23,-777.07"/>
<polygon fill="black" stroke="black" points="214.73,-777.03 211.23,-767.03 207.73,-777.03 214.73,-777.03"/>
</g>
<!-- Data loader -->
<g id="node4" class="node">
<title>Data loader</title>
<ellipse fill="none" stroke="red" cx="423.23" cy="-18" rx="64.99" ry="18"/>
<text text-anchor="middle" x="423.23" y="-14.3" font-family="Times,serif" font-size="14.00">Data loader</text>
</g>
<!-- Absorption correction?&#45;&gt;Data loader -->
<g id="edge3" class="edge">
<title>Absorption correction?&#45;&gt;Data loader</title>
<path fill="none" stroke="black" d="M206.08,-730.92C201.4,-713.88 195.23,-686.88 195.23,-663 195.23,-663 195.23,-663 195.23,-90 195.23,-56.33 287,-36.81 354.1,-27.03"/>
<polygon fill="black" stroke="black" points="354.81,-30.47 364.22,-25.6 353.83,-23.53 354.81,-30.47"/>
<text text-anchor="middle" x="207.73" y="-411.3" font-family="Times,serif" font-size="14.00"> No</text>
</g>
<!-- Regen group or cache not found? -->
<g id="node5" class="node">
<title>Regen group or cache not found?</title>
<ellipse fill="none" stroke="black" cx="387.23" cy="-662" rx="164.37" ry="18"/>
<text text-anchor="middle" x="387.23" y="-658.3" font-family="Times,serif" font-size="14.00">Regen group or cache not found?</text>
</g>
<!-- Absorption correction?&#45;&gt;Regen group or cache not found? -->
<g id="edge4" class="edge">
<title>Absorption correction?&#45;&gt;Regen group or cache not found?</title>
<path fill="none" stroke="black" d="M245.17,-731.61C273.23,-718.06 313.27,-698.72 343.69,-684.03"/>
<polygon fill="black" stroke="black" points="345.32,-687.13 352.8,-679.63 342.27,-680.83 345.32,-687.13"/>
<text text-anchor="middle" x="328.23" y="-701.8" font-family="Times,serif" font-size="14.00"> &#160;&#160;Yes</text>
</g>
<!-- Create absorption workspace -->
<g id="node6" class="node">
<title>Create absorption workspace</title>
<ellipse fill="none" stroke="red" cx="370.23" cy="-575" rx="146.77" ry="18"/>
<text text-anchor="middle" x="370.23" y="-571.3" font-family="Times,serif" font-size="14.00">Create absorption workspace</text>
</g>
<!-- Regen group or cache not found?&#45;&gt;Create absorption workspace -->
<g id="edge5" class="edge">
<title>Regen group or cache not found?&#45;&gt;Create absorption workspace</title>
<path fill="none" stroke="black" d="M383.79,-643.8C381.46,-632.16 378.34,-616.55 375.68,-603.24"/>
<polygon fill="black" stroke="black" points="379.06,-602.29 373.67,-593.18 372.2,-603.67 379.06,-602.29"/>
<text text-anchor="middle" x="396.23" y="-614.8" font-family="Times,serif" font-size="14.00"> &#160;Yes</text>
</g>
<!-- Load cache to abs_ws -->
<g id="node9" class="node">
<title>Load cache to abs_ws</title>
<ellipse fill="none" stroke="black" cx="645.23" cy="-575" rx="110.48" ry="18"/>
<text text-anchor="middle" x="645.23" y="-571.3" font-family="Times,serif" font-size="14.00">Load cache to abs_ws</text>
</g>
<!-- Regen group or cache not found?&#45;&gt;Load cache to abs_ws -->
<g id="edge9" class="edge">
<title>Regen group or cache not found?&#45;&gt;Load cache to abs_ws</title>
<path fill="none" stroke="black" d="M436.37,-644.81C479.82,-630.5 543.2,-609.62 588.73,-594.61"/>
<polygon fill="black" stroke="black" points="590.05,-597.87 598.45,-591.41 587.86,-591.22 590.05,-597.87"/>
<text text-anchor="middle" x="546.23" y="-614.8" font-family="Times,serif" font-size="14.00"> &#160;No</text>
</g>
<!-- regen_group_f_2 -->
<g id="node7" class="node">
<title>regen_group_f_2</title>
<ellipse fill="none" stroke="black" cx="347.23" cy="-502" rx="107.78" ry="18"/>
<text text-anchor="middle" x="347.23" y="-498.3" font-family="Times,serif" font-size="14.00">Regen group = False</text>
</g>
<!-- Create absorption workspace&#45;&gt;regen_group_f_2 -->
<g id="edge6" class="edge">
<title>Create absorption workspace&#45;&gt;regen_group_f_2</title>
<path fill="none" stroke="black" d="M364.66,-556.81C362.04,-548.7 358.84,-538.84 355.91,-529.78"/>
<polygon fill="black" stroke="black" points="359.16,-528.46 352.75,-520.03 352.5,-530.62 359.16,-528.46"/>
</g>
<!-- Save absorption wksp -->
<g id="node8" class="node">
<title>Save absorption wksp</title>
<ellipse fill="none" stroke="black" cx="336.23" cy="-361" rx="112.38" ry="18"/>
<text text-anchor="middle" x="336.23" y="-357.3" font-family="Times,serif" font-size="14.00">Save absorption wksp</text>
</g>
<!-- regen_group_f_2&#45;&gt;Save absorption wksp -->
<g id="edge7" class="edge">
<title>regen_group_f_2&#45;&gt;Save absorption wksp</title>
<path fill="none" stroke="black" d="M345.88,-483.96C344.01,-460.3 340.6,-417.26 338.38,-389.15"/>
<polygon fill="black" stroke="black" points="341.87,-388.88 337.59,-379.18 334.89,-389.43 341.87,-388.88"/>
</g>
<!-- Save absorption wksp&#45;&gt;Data loader -->
<g id="edge8" class="edge">
<title>Save absorption wksp&#45;&gt;Data loader</title>
<path fill="none" stroke="black" d="M337.54,-342.75C339.03,-321.79 341.23,-285.32 341.23,-254 341.23,-254 341.23,-254 341.23,-90 341.23,-67.14 359.67,-49.99 379.07,-38.28"/>
<polygon fill="black" stroke="black" points="380.97,-41.23 387.98,-33.28 377.55,-35.12 380.97,-41.23"/>
</g>
<!-- gf_exists_1 -->
<g id="node10" class="node">
<title>gf_exists_1</title>
<ellipse fill="none" stroke="black" cx="645.23" cy="-502" rx="92.08" ry="18"/>
<text text-anchor="middle" x="645.23" y="-498.3" font-family="Times,serif" font-size="14.00">Group file exists?</text>
</g>
<!-- Load cache to abs_ws&#45;&gt;gf_exists_1 -->
<g id="edge10" class="edge">
<title>Load cache to abs_ws&#45;&gt;gf_exists_1</title>
<path fill="none" stroke="black" d="M645.23,-556.81C645.23,-548.79 645.23,-539.05 645.23,-530.07"/>
<polygon fill="black" stroke="black" points="648.73,-530.03 645.23,-520.03 641.73,-530.03 648.73,-530.03"/>
</g>
<!-- abs_ws focused? -->
<g id="node11" class="node">
<title>abs_ws focused?</title>
<ellipse fill="none" stroke="black" cx="501.23" cy="-415" rx="87.18" ry="18"/>
<text text-anchor="middle" x="501.23" y="-411.3" font-family="Times,serif" font-size="14.00">abs_ws focused?</text>
</g>
<!-- gf_exists_1&#45;&gt;abs_ws focused? -->
<g id="edge11" class="edge">
<title>gf_exists_1&#45;&gt;abs_ws focused?</title>
<path fill="none" stroke="black" d="M617.81,-484.81C594.99,-471.34 562.32,-452.06 537.36,-437.33"/>
<polygon fill="black" stroke="black" points="538.94,-434.2 528.55,-432.13 535.39,-440.23 538.94,-434.2"/>
<text text-anchor="middle" x="596.23" y="-454.8" font-family="Times,serif" font-size="14.00"> &#160;No</text>
</g>
<!-- Load group to group_wksp -->
<g id="node14" class="node">
<title>Load group to group_wksp</title>
<ellipse fill="none" stroke="green" cx="740.23" cy="-415" rx="133.78" ry="18"/>
<text text-anchor="middle" x="740.23" y="-411.3" font-family="Times,serif" font-size="14.00">Load group to group_wksp</text>
</g>
<!-- gf_exists_1&#45;&gt;Load group to group_wksp -->
<g id="edge15" class="edge">
<title>gf_exists_1&#45;&gt;Load group to group_wksp</title>
<path fill="none" stroke="black" d="M664,-484.21C678.09,-471.6 697.58,-454.16 713.33,-440.07"/>
<polygon fill="black" stroke="black" points="716.06,-442.33 721.18,-433.05 711.39,-437.11 716.06,-442.33"/>
</g>
<!-- Raise error -->
<g id="node12" class="node">
<title>Raise error</title>
<ellipse fill="none" stroke="black" cx="437.23" cy="-307" rx="63.09" ry="18"/>
<text text-anchor="middle" x="437.23" y="-303.3" font-family="Times,serif" font-size="14.00">Raise error</text>
</g>
<!-- abs_ws focused?&#45;&gt;Raise error -->
<g id="edge12" class="edge">
<title>abs_ws focused?&#45;&gt;Raise error</title>
<path fill="none" stroke="black" d="M485.94,-397.17C481.25,-391.6 476.27,-385.23 472.23,-379 463.09,-364.89 454.69,-348.06 448.42,-334.32"/>
<polygon fill="black" stroke="black" points="451.51,-332.66 444.24,-324.95 445.12,-335.51 451.51,-332.66"/>
<text text-anchor="middle" x="489.23" y="-357.3" font-family="Times,serif" font-size="14.00"> &#160;Yes</text>
</g>
<!-- group_wksp_none_1 -->
<g id="node13" class="node">
<title>group_wksp_none_1</title>
<ellipse fill="none" stroke="green" cx="470.23" cy="-253" rx="104.78" ry="18"/>
<text text-anchor="middle" x="470.23" y="-249.3" font-family="Times,serif" font-size="14.00">group_wksp = None</text>
</g>
<!-- abs_ws focused?&#45;&gt;group_wksp_none_1 -->
<g id="edge13" class="edge">
<title>abs_ws focused?&#45;&gt;group_wksp_none_1</title>
<path fill="none" stroke="black" d="M507.15,-396.94C514.75,-372.02 525.18,-324.75 509.23,-289 507.48,-285.07 505.05,-281.41 502.24,-278.03"/>
<polygon fill="black" stroke="black" points="504.64,-275.48 495.17,-270.72 499.6,-280.34 504.64,-275.48"/>
<text text-anchor="middle" x="532.23" y="-357.3" font-family="Times,serif" font-size="14.00"> &#160;No</text>
</g>
<!-- group_wksp_none_1&#45;&gt;Data loader -->
<g id="edge14" class="edge">
<title>group_wksp_none_1&#45;&gt;Data loader</title>
<path fill="none" stroke="black" d="M462.43,-235.01C454.7,-217.39 443.18,-188.86 437.23,-163 428.05,-123.06 424.88,-75.54 423.8,-46.32"/>
<polygon fill="black" stroke="black" points="427.29,-45.96 423.47,-36.08 420.29,-46.18 427.29,-45.96"/>
</g>
<!-- abs_ws == group_wksp in # of spec? -->
<g id="node15" class="node">
<title>abs_ws == group_wksp in # of spec?</title>
<ellipse fill="none" stroke="black" cx="740.23" cy="-307" rx="183.87" ry="18"/>
<text text-anchor="middle" x="740.23" y="-303.3" font-family="Times,serif" font-size="14.00">abs_ws == group_wksp in # of spec?</text>
</g>
<!-- Load group to group_wksp&#45;&gt;abs_ws == group_wksp in # of spec? -->
<g id="edge16" class="edge">
<title>Load group to group_wksp&#45;&gt;abs_ws == group_wksp in # of spec?</title>
<path fill="none" stroke="black" d="M740.23,-396.97C740.23,-380.38 740.23,-354.88 740.23,-335.43"/>
<polygon fill="black" stroke="black" points="743.73,-335.34 740.23,-325.34 736.73,-335.34 743.73,-335.34"/>
</g>
<!-- Regen group = False -->
<g id="node16" class="node">
<title>Regen group = False</title>
<ellipse fill="none" stroke="black" cx="546.23" cy="-145" rx="107.78" ry="18"/>
<text text-anchor="middle" x="546.23" y="-141.3" font-family="Times,serif" font-size="14.00">Regen group = False</text>
</g>
<!-- abs_ws == group_wksp in # of spec?&#45;&gt;Regen group = False -->
<g id="edge17" class="edge">
<title>abs_ws == group_wksp in # of spec?&#45;&gt;Regen group = False</title>
<path fill="none" stroke="black" d="M719.47,-288.88C684.52,-260.05 613.89,-201.8 574.47,-169.29"/>
<polygon fill="black" stroke="black" points="576.49,-166.42 566.55,-162.76 572.04,-171.82 576.49,-166.42"/>
<text text-anchor="middle" x="711.23" y="-249.3" font-family="Times,serif" font-size="14.00"> &#160;Yes</text>
</g>
<!-- abs_ws_focused_1 -->
<g id="node17" class="node">
<title>abs_ws_focused_1</title>
<ellipse fill="none" stroke="black" cx="740.23" cy="-199" rx="87.18" ry="18"/>
<text text-anchor="middle" x="740.23" y="-195.3" font-family="Times,serif" font-size="14.00">abs_ws focused?</text>
</g>
<!-- abs_ws == group_wksp in # of spec?&#45;&gt;abs_ws_focused_1 -->
<g id="edge19" class="edge">
<title>abs_ws == group_wksp in # of spec?&#45;&gt;abs_ws_focused_1</title>
<path fill="none" stroke="black" d="M740.23,-288.97C740.23,-272.38 740.23,-246.88 740.23,-227.43"/>
<polygon fill="black" stroke="black" points="743.73,-227.34 740.23,-217.34 736.73,-227.34 743.73,-227.34"/>
<text text-anchor="middle" x="755.23" y="-249.3" font-family="Times,serif" font-size="14.00"> &#160;No</text>
</g>
<!-- Regen group = False&#45;&gt;Data loader -->
<g id="edge18" class="edge">
<title>Regen group = False&#45;&gt;Data loader</title>
<path fill="none" stroke="black" d="M529.64,-127.14C508.25,-105.4 470.91,-67.46 446.64,-42.79"/>
<polygon fill="black" stroke="black" points="449.07,-40.26 439.56,-35.59 444.08,-45.17 449.07,-40.26"/>
</g>
<!-- raise_err_1 -->
<g id="node18" class="node">
<title>raise_err_1</title>
<ellipse fill="none" stroke="black" cx="613.23" cy="-91" rx="63.09" ry="18"/>
<text text-anchor="middle" x="613.23" y="-87.3" font-family="Times,serif" font-size="14.00">Raise error</text>
</g>
<!-- abs_ws_focused_1&#45;&gt;raise_err_1 -->
<g id="edge20" class="edge">
<title>abs_ws_focused_1&#45;&gt;raise_err_1</title>
<path fill="none" stroke="black" d="M720.31,-181.35C703.09,-166.96 677.52,-145.6 655.23,-127 650.56,-123.1 645.6,-118.97 640.78,-114.95"/>
<polygon fill="black" stroke="black" points="642.82,-112.09 632.89,-108.38 638.33,-117.47 642.82,-112.09"/>
<text text-anchor="middle" x="713.23" y="-141.3" font-family="Times,serif" font-size="14.00"> &#160;Yes</text>
</g>
<!-- group_wksp_none_2 -->
<g id="node19" class="node">
<title>group_wksp_none_2</title>
<ellipse fill="none" stroke="green" cx="799.23" cy="-91" rx="104.78" ry="18"/>
<text text-anchor="middle" x="799.23" y="-87.3" font-family="Times,serif" font-size="14.00">group_wksp = None</text>
</g>
<!-- abs_ws_focused_1&#45;&gt;group_wksp_none_2 -->
<g id="edge21" class="edge">
<title>abs_ws_focused_1&#45;&gt;group_wksp_none_2</title>
<path fill="none" stroke="black" d="M749.71,-180.97C759.22,-163.89 773.97,-137.38 784.9,-117.74"/>
<polygon fill="black" stroke="black" points="787.97,-119.43 789.78,-108.99 781.85,-116.02 787.97,-119.43"/>
<text text-anchor="middle" x="793.23" y="-141.3" font-family="Times,serif" font-size="14.00"> &#160;No</text>
</g>
<!-- group_wksp_none_2&#45;&gt;Data loader -->
<g id="edge22" class="edge">
<title>group_wksp_none_2&#45;&gt;Data loader</title>
<path fill="none" stroke="black" d="M731.58,-77.22C661.59,-64.01 553.22,-43.55 485.35,-30.73"/>
<polygon fill="black" stroke="black" points="485.7,-27.23 475.23,-28.82 484.4,-34.11 485.7,-27.23"/>
</g>
</g>
</svg>
