<?xml version="1.0" encoding="UTF-8" standalone="no"?>
<!DOCTYPE svg PUBLIC "-//W3C//DTD SVG 1.1//EN"
 "http://www.w3.org/Graphics/SVG/1.1/DTD/svg11.dtd">
<!-- Generated by graphviz version 2.43.0 (0)
 -->
<!-- Title: G Pages: 1 -->
<svg width="949pt" height="921pt"
 viewBox="0.00 0.00 948.87 921.00" xmlns="http://www.w3.org/2000/svg" xmlns:xlink="http://www.w3.org/1999/xlink">
<g id="graph0" class="graph" transform="scale(1 1) rotate(0) translate(4 917)">
<title>G</title>
<polygon fill="white" stroke="transparent" points="-4,4 -4,-917 944.87,-917 944.87,4 -4,4"/>
<!-- Vanadium absorption processing -->
<g id="node1" class="node">
<title>Vanadium absorption processing</title>
<ellipse fill="none" stroke="red" cx="162.49" cy="-895" rx="162.47" ry="18"/>
<text text-anchor="middle" x="162.49" y="-891.3" font-family="Times,serif" font-size="14.00">Vanadium absorption processing</text>
</g>
<!-- group_wksp_van = None -->
<g id="node2" class="node">
<title>group_wksp_van = None</title>
<ellipse fill="none" stroke="green" cx="162.49" cy="-822" rx="125.38" ry="18"/>
<text text-anchor="middle" x="162.49" y="-818.3" font-family="Times,serif" font-size="14.00">group_wksp_van = None</text>
</g>
<!-- Vanadium absorption processing&#45;&gt;group_wksp_van = None -->
<g id="edge1" class="edge">
<title>Vanadium absorption processing&#45;&gt;group_wksp_van = None</title>
<path fill="none" stroke="black" d="M162.49,-876.81C162.49,-868.79 162.49,-859.05 162.49,-850.07"/>
<polygon fill="black" stroke="black" points="165.99,-850.03 162.49,-840.03 158.99,-850.03 165.99,-850.03"/>
</g>
<!-- Absorption correction? -->
<g id="node3" class="node">
<title>Absorption correction?</title>
<ellipse fill="none" stroke="black" cx="162.49" cy="-749" rx="116.18" ry="18"/>
<text text-anchor="middle" x="162.49" y="-745.3" font-family="Times,serif" font-size="14.00">Absorption correction?</text>
</g>
<!-- group_wksp_van = None&#45;&gt;Absorption correction? -->
<g id="edge2" class="edge">
<title>group_wksp_van = None&#45;&gt;Absorption correction?</title>
<path fill="none" stroke="black" d="M162.49,-803.81C162.49,-795.79 162.49,-786.05 162.49,-777.07"/>
<polygon fill="black" stroke="black" points="165.99,-777.03 162.49,-767.03 158.99,-777.03 165.99,-777.03"/>
</g>
<!-- Data loader -->
<g id="node4" class="node">
<title>Data loader</title>
<ellipse fill="none" stroke="red" cx="327.49" cy="-18" rx="64.99" ry="18"/>
<text text-anchor="middle" x="327.49" y="-14.3" font-family="Times,serif" font-size="14.00">Data loader</text>
</g>
<!-- Absorption correction?&#45;&gt;Data loader -->
<g id="edge3" class="edge">
<title>Absorption correction?&#45;&gt;Data loader</title>
<path fill="none" stroke="black" d="M157.34,-730.92C152.66,-713.88 146.49,-686.88 146.49,-663 146.49,-663 146.49,-663 146.49,-90 146.49,-63.76 213.25,-43.2 265.68,-31.11"/>
<polygon fill="black" stroke="black" points="266.63,-34.48 275.62,-28.87 265.09,-27.65 266.63,-34.48"/>
<text text-anchor="middle" x="161.49" y="-355.3" font-family="Times,serif" font-size="14.00"> &#160;No</text>
</g>
<!-- group_wksp is None? -->
<g id="node5" class="node">
<title>group_wksp is None?</title>
<ellipse fill="none" stroke="green" cx="318.49" cy="-662" rx="109.38" ry="18"/>
<text text-anchor="middle" x="318.49" y="-658.3" font-family="Times,serif" font-size="14.00">group_wksp is None?</text>
</g>
<!-- Absorption correction?&#45;&gt;group_wksp is None? -->
<g id="edge4" class="edge">
<title>Absorption correction?&#45;&gt;group_wksp is None?</title>
<path fill="none" stroke="black" d="M192.56,-731.61C217.38,-718.09 252.77,-698.81 279.71,-684.13"/>
<polygon fill="black" stroke="black" points="281.39,-687.2 288.5,-679.34 278.04,-681.05 281.39,-687.2"/>
<text text-anchor="middle" x="267.49" y="-701.8" font-family="Times,serif" font-size="14.00"> &#160;Yes</text>
</g>
<!-- group_wksp_van = group_wksp -->
<g id="node6" class="node">
<title>group_wksp_van = group_wksp</title>
<ellipse fill="none" stroke="green" cx="318.49" cy="-521" rx="156.77" ry="18"/>
<text text-anchor="middle" x="318.49" y="-517.3" font-family="Times,serif" font-size="14.00">group_wksp_van = group_wksp</text>
</g>
<!-- group_wksp is None?&#45;&gt;group_wksp_van = group_wksp -->
<g id="edge5" class="edge">
<title>group_wksp is None?&#45;&gt;group_wksp_van = group_wksp</title>
<path fill="none" stroke="black" d="M318.49,-643.96C318.49,-620.4 318.49,-577.64 318.49,-549.53"/>
<polygon fill="black" stroke="black" points="321.99,-549.18 318.49,-539.18 314.99,-549.18 321.99,-549.18"/>
<text text-anchor="middle" x="333.49" y="-614.8" font-family="Times,serif" font-size="14.00"> &#160;No</text>
</g>
<!-- Group file exists? -->
<g id="node9" class="node">
<title>Group file exists?</title>
<ellipse fill="none" stroke="black" cx="508.49" cy="-575" rx="92.08" ry="18"/>
<text text-anchor="middle" x="508.49" y="-571.3" font-family="Times,serif" font-size="14.00">Group file exists?</text>
</g>
<!-- group_wksp is None?&#45;&gt;Group file exists? -->
<g id="edge8" class="edge">
<title>group_wksp is None?&#45;&gt;Group file exists?</title>
<path fill="none" stroke="black" d="M354.67,-644.81C385.74,-630.91 430.63,-610.83 463.91,-595.94"/>
<polygon fill="black" stroke="black" points="465.7,-598.98 473.4,-591.7 462.84,-592.59 465.7,-598.98"/>
<text text-anchor="middle" x="441.49" y="-614.8" font-family="Times,serif" font-size="14.00"> &#160;Yes</text>
</g>
<!-- v_abs_cache_fn = focused V abs cache file -->
<g id="node7" class="node">
<title>v_abs_cache_fn = focused V abs cache file</title>
<ellipse fill="none" stroke="black" cx="463.49" cy="-359" rx="205.26" ry="18"/>
<text text-anchor="middle" x="463.49" y="-355.3" font-family="Times,serif" font-size="14.00">v_abs_cache_fn = focused V abs cache file</text>
</g>
<!-- group_wksp_van = group_wksp&#45;&gt;v_abs_cache_fn = focused V abs cache file -->
<g id="edge6" class="edge">
<title>group_wksp_van = group_wksp&#45;&gt;v_abs_cache_fn = focused V abs cache file</title>
<path fill="none" stroke="black" d="M316.5,-502.91C315.59,-487.64 316.44,-465.25 326.49,-449 345.65,-417.97 380.13,-395.66 409.7,-381.14"/>
<polygon fill="black" stroke="black" points="411.56,-384.13 419.1,-376.69 408.57,-377.8 411.56,-384.13"/>
</g>
<!-- v_abs_cache_fn exists? -->
<g id="node8" class="node">
<title>v_abs_cache_fn exists?</title>
<ellipse fill="none" stroke="black" cx="479.49" cy="-286" rx="116.18" ry="18"/>
<text text-anchor="middle" x="479.49" y="-282.3" font-family="Times,serif" font-size="14.00">v_abs_cache_fn exists?</text>
</g>
<!-- v_abs_cache_fn = focused V abs cache file&#45;&gt;v_abs_cache_fn exists? -->
<g id="edge7" class="edge">
<title>v_abs_cache_fn = focused V abs cache file&#45;&gt;v_abs_cache_fn exists?</title>
<path fill="none" stroke="black" d="M467.36,-340.81C469.17,-332.79 471.36,-323.05 473.39,-314.07"/>
<polygon fill="black" stroke="black" points="476.86,-314.55 475.65,-304.03 470.04,-313.01 476.86,-314.55"/>
</g>
<!-- Load V abs cache file to v_abs_ws -->
<g id="node12" class="node">
<title>Load V abs cache file to v_abs_ws</title>
<ellipse fill="none" stroke="black" cx="327.49" cy="-145" rx="166.27" ry="18"/>
<text text-anchor="middle" x="327.49" y="-141.3" font-family="Times,serif" font-size="14.00">Load V abs cache file to v_abs_ws</text>
</g>
<!-- v_abs_cache_fn exists?&#45;&gt;Load V abs cache file to v_abs_ws -->
<g id="edge13" class="edge">
<title>v_abs_cache_fn exists?&#45;&gt;Load V abs cache file to v_abs_ws</title>
<path fill="none" stroke="black" d="M430.63,-269.6C403.6,-258.8 371.35,-241.8 350.49,-217 340.08,-204.63 334.36,-187.46 331.22,-173.11"/>
<polygon fill="black" stroke="black" points="334.65,-172.44 329.36,-163.26 327.78,-173.73 334.65,-172.44"/>
<text text-anchor="middle" x="407.49" y="-238.8" font-family="Times,serif" font-size="14.00"> &#160;&#160;Yes</text>
</g>
<!-- Create absorption workspace -->
<g id="node13" class="node">
<title>Create absorption workspace</title>
<ellipse fill="none" stroke="red" cx="506.49" cy="-199" rx="146.77" ry="18"/>
<text text-anchor="middle" x="506.49" y="-195.3" font-family="Times,serif" font-size="14.00">Create absorption workspace</text>
</g>
<!-- v_abs_cache_fn exists?&#45;&gt;Create absorption workspace -->
<g id="edge15" class="edge">
<title>v_abs_cache_fn exists?&#45;&gt;Create absorption workspace</title>
<path fill="none" stroke="black" d="M484.95,-267.8C488.68,-256.05 493.7,-240.24 497.96,-226.84"/>
<polygon fill="black" stroke="black" points="501.34,-227.77 501.03,-217.18 494.67,-225.65 501.34,-227.77"/>
<text text-anchor="middle" x="509.49" y="-238.8" font-family="Times,serif" font-size="14.00"> &#160;No</text>
</g>
<!-- Load group file to group_wksp_van -->
<g id="node10" class="node">
<title>Load group file to group_wksp_van</title>
<ellipse fill="none" stroke="green" cx="508.49" cy="-467" rx="172.77" ry="18"/>
<text text-anchor="middle" x="508.49" y="-463.3" font-family="Times,serif" font-size="14.00">Load group file to group_wksp_van</text>
</g>
<!-- Group file exists?&#45;&gt;Load group file to group_wksp_van -->
<g id="edge9" class="edge">
<title>Group file exists?&#45;&gt;Load group file to group_wksp_van</title>
<path fill="none" stroke="black" d="M508.49,-556.97C508.49,-540.38 508.49,-514.88 508.49,-495.43"/>
<polygon fill="black" stroke="black" points="511.99,-495.34 508.49,-485.34 504.99,-495.34 511.99,-495.34"/>
<text text-anchor="middle" x="525.49" y="-517.3" font-family="Times,serif" font-size="14.00"> &#160;Yes</text>
</g>
<!-- v_abs_cache_fn = pixel by pixel V abs cache file -->
<g id="node11" class="node">
<title>v_abs_cache_fn = pixel by pixel V abs cache file</title>
<ellipse fill="none" stroke="black" cx="709.49" cy="-413" rx="231.26" ry="18"/>
<text text-anchor="middle" x="709.49" y="-409.3" font-family="Times,serif" font-size="14.00">v_abs_cache_fn = pixel by pixel V abs cache file</text>
</g>
<!-- Group file exists?&#45;&gt;v_abs_cache_fn = pixel by pixel V abs cache file -->
<g id="edge11" class="edge">
<title>Group file exists?&#45;&gt;v_abs_cache_fn = pixel by pixel V abs cache file</title>
<path fill="none" stroke="black" d="M563.6,-560.39C604.36,-547.54 658.18,-524.24 690.49,-485 700.57,-472.75 705.34,-455.66 707.58,-441.31"/>
<polygon fill="black" stroke="black" points="711.1,-441.35 708.84,-431 704.15,-440.5 711.1,-441.35"/>
<text text-anchor="middle" x="685.49" y="-517.3" font-family="Times,serif" font-size="14.00"> &#160;No</text>
</g>
<!-- Load group file to group_wksp_van&#45;&gt;v_abs_cache_fn = focused V abs cache file -->
<g id="edge10" class="edge">
<title>Load group file to group_wksp_van&#45;&gt;v_abs_cache_fn = focused V abs cache file</title>
<path fill="none" stroke="black" d="M490.05,-448.83C485.31,-443.54 480.66,-437.4 477.49,-431 470.8,-417.5 467.3,-401.06 465.48,-387.41"/>
<polygon fill="black" stroke="black" points="468.92,-386.71 464.34,-377.16 461.97,-387.48 468.92,-386.71"/>
</g>
<!-- v_abs_cache_fn = pixel by pixel V abs cache file&#45;&gt;v_abs_cache_fn exists? -->
<g id="edge12" class="edge">
<title>v_abs_cache_fn = pixel by pixel V abs cache file&#45;&gt;v_abs_cache_fn exists?</title>
<path fill="none" stroke="black" d="M706.15,-394.85C702.11,-378.67 693.73,-354.87 677.49,-341 651.95,-319.19 618.38,-306.12 586.15,-298.31"/>
<polygon fill="black" stroke="black" points="586.73,-294.85 576.2,-296.05 585.18,-301.68 586.73,-294.85"/>
</g>
<!-- Load V abs cache file to v_abs_ws&#45;&gt;Data loader -->
<g id="edge14" class="edge">
<title>Load V abs cache file to v_abs_ws&#45;&gt;Data loader</title>
<path fill="none" stroke="black" d="M327.49,-126.88C327.49,-106.15 327.49,-70.95 327.49,-46.42"/>
<polygon fill="black" stroke="black" points="330.99,-46.31 327.49,-36.31 323.99,-46.31 330.99,-46.31"/>
</g>
<!-- Save absorption wksp -->
<g id="node14" class="node">
<title>Save absorption wksp</title>
<ellipse fill="none" stroke="black" cx="487.49" cy="-91" rx="112.38" ry="18"/>
<text text-anchor="middle" x="487.49" y="-87.3" font-family="Times,serif" font-size="14.00">Save absorption wksp</text>
</g>
<!-- Create absorption workspace&#45;&gt;Save absorption wksp -->
<g id="edge16" class="edge">
<title>Create absorption workspace&#45;&gt;Save absorption wksp</title>
<path fill="none" stroke="black" d="M503.72,-180.76C501.38,-166.36 497.86,-145.32 494.49,-127 494.01,-124.44 493.51,-121.78 492.99,-119.12"/>
<polygon fill="black" stroke="black" points="496.38,-118.2 491.01,-109.07 489.51,-119.56 496.38,-118.2"/>
</g>
<!-- Save absorption wksp&#45;&gt;Data loader -->
<g id="edge17" class="edge">
<title>Save absorption wksp&#45;&gt;Data loader</title>
<path fill="none" stroke="black" d="M451.18,-73.89C426.98,-63.15 395.08,-49 369.74,-37.75"/>
<polygon fill="black" stroke="black" points="370.94,-34.46 360.38,-33.6 368.1,-40.85 370.94,-34.46"/>
</g>
</g>
</svg>
